<svg xmlns="http://www.w3.org/2000/svg" width="912.906" height="465.704"><defs><style>.cls-1{fill:#fff}.cls-4{opacity:.571;fill:#50bad7}.cls-8{fill:#003d64}.cls-9{fill:#d2dcdf}.cls-10{fill:#fe9f04}.cls-11{fill:#feb031}.cls-12{fill:#c2cbcf}.cls-13{fill:#a4d8e7}.cls-14{fill:#53c2e0}.cls-16{fill:#fffffa}.cls-19{fill:none;stroke:#fff;stroke-width:3px}</style></defs><g id="Group_1736"  transform="translate(-527.336 -198.213)"><g id="Group_580"  transform="translate(833.844 198.658)"><path id="Path_471" d="M1214.606 614.4v170.715H301.7c17.06-7.154 35.677-12.72 46.648-24.877 25.123-27.857-7.064-67.579 6.731-99.875 16.66-38.977 90.188-48.094 108.414-86.643 8.626-18.265-.381-35.743 3.191-54.266 3.233-16.764 13.454-32.779 29.249-44.52 12.8-9.514 29.336-16.786 36.993-29.2 7.27-11.79 4.91-25.69 8.341-38.491 4.306-16.065 18.716-30.076 37.3-37.645 17.717-7.215 47.512-9.982 66.532-5.166 23.849 6.038 45.57 23.43 63.641 36.455 15.823 11.4 31.5 14.4 53.027 10.744 46.126-7.841 80.154-39.294 123.29-52.979a155.466 155.466 0 0128.244-6.288c22.424-2.722 47.073 1.108 63.383 13.388 14.794 11.146 20.917 27.475 33.128 40.377 25.165 26.6 77.677 33.65 98.577 62.272 20.45 27.993 8.138 64.767 27.272 93.007 16.196 23.885 53.73 35.069 78.945 52.992z" class="cls-1"  transform="translate(-608.208 -351.527)"/><path id="Path_472" d="M1214.439 435.456c4.121.724 8.784.875 12.028-1.767 2.926-2.383 3.9-6.423 4.11-10.19 1.074-19.231-35.271-72.632-54.293-44.649-17.184 25.278 16.608 52.818 38.155 56.606z" class="cls-1"  transform="translate(-708.659 -371.347)"/></g><g id="Group_582"  opacity=".4" transform="translate(-47.705 -16.241)"><path id="Rectangle_249" fill="#53c1df" d="M0 0h325.266v353.527H0z"  opacity=".571" transform="translate(873.336 311.782)"/><path id="Rectangle_250" d="M0 0h41.948v72.476H0z" class="cls-4"  transform="translate(1014.995 311.782)"/><path id="Rectangle_252" fill="#a8dbe9" d="M0 0h280.336v224.649H0z"  opacity=".571" transform="translate(786.151 440.66)"/><path id="Rectangle_253" d="M0 0h36.154v63.417H0z" class="cls-4"  transform="translate(908.242 601.892)"/><path id="Rectangle_254" d="M0 0h36.154v72.945H0z" class="cls-4"  transform="translate(908.242 440.66)"/><path id="Rectangle_255" fill="#4fb9d5" d="M0 0h275.096v155.12H0z"  opacity=".571" transform="translate(959.302 510.189)"/><g id="Bluehost_icon_-_logo"  transform="translate(1148.705 330.242)" style="mix-blend-mode:luminosity;isolation:isolate"><path id="Icon" d="M31.772-.923V8H22.9V-.923zm-11.45 0V8h-8.876V-.923zm-11.45 0V8H0V-.923zm22.9-11.539v8.922H22.9v-8.922zm-11.45 0v8.922h-8.876v-8.922zm-11.45 0v8.922H0v-8.922zM31.772-24v8.921H22.9V-24zm-11.45 0v8.921h-8.876V-24zm-11.45 0v8.921H0V-24z" class="cls-1" transform="translate(0 24)"/></g></g><rect id="Rectangle_294" width="258.467" height="174.207" class="cls-8"  rx="11.558" transform="translate(993.356 463.158)"/><path id="Rectangle_295" d="M0 0h239.858v153.53H0z" class="cls-1"  transform="translate(1002.661 473.496)"/><path id="Rectangle_296" d="M0 0h239.858v14.388H0z" class="cls-9"  transform="translate(1002.661 473.496)"/><path id="Rectangle_297" d="M0 0h239.858v16.887H0z" class="cls-10"  transform="translate(1002.661 487.885)"/><g id="Group_579"  transform="translate(1219.917 478.437)"><g id="Group_574" ><g id="Group_571" ><circle id="Ellipse_43" cx="1.982" cy="1.982" r="1.982" class="cls-11" /></g><g id="Group_572"  transform="translate(6.376)"><path id="Path_595" d="M557.379 194.11a1.981 1.981 0 11-1.982-1.981 1.982 1.982 0 011.982 1.981z" class="cls-11"  transform="translate(-553.416 -192.129)"/></g><g id="Group_573"  transform="translate(12.751)"><path id="Path_596" d="M567.043 194.11a1.981 1.981 0 11-1.982-1.981 1.982 1.982 0 011.982 1.981z" class="cls-11"  transform="translate(-563.08 -192.129)"/></g></g></g><path id="Rectangle_300" d="M0 0h124.064v7.409H0z" class="cls-1"  transform="translate(1010.932 492.709)"/><path id="Rectangle_298" d="M0 0h19.471v7.409H0z" class="cls-8"  transform="translate(1134.996 492.709)"/><path id="Rectangle_299" d="M0 0h73.701v5.779H0z" class="cls-8"  transform="translate(1098.274 656.509)"/><path id="Rectangle_301" d="M0 0h15.404v26.33H0z" class="cls-8"  transform="translate(1127.423 633.068)"/><g id="Group_563"  transform="translate(1273.448 610.875)"><g id="Group_557"  transform="translate(7.808 2.597)"><path id="Path_581" d="M716.8 359.42h-97.07v.051c3.946.507 7.036 5.071 7.036 10.629v.52c0 5.559-3.089 10.121-7.036 10.629v.051h97.07c4.289 0 7.768-4.782 7.768-10.68v-.52c.004-5.9-3.474-10.68-7.768-10.68z" class="cls-1"  transform="translate(-619.73 -359.42)"/></g><g id="Group_558"  transform="translate(7.808 2.597)"><path id="Path_582" d="M626.726 369.034h97.806c-.389-5.4-3.7-9.614-7.728-9.614H619.73v.051c3.691.475 6.631 4.497 6.996 9.563z" class="cls-12"  transform="translate(-619.73 -359.42)"/></g><path id="Path_583" d="M709.714 355.484h-101.82v4.42h101.82a8.84 8.84 0 110 17.68h-101.82v4.421h101.82a13.261 13.261 0 100-26.521z" class="cls-13"  transform="translate(-607.894 -355.484)"/><g id="Group_560"  transform="translate(10.24 29.118)"><g id="Group_559" ><path id="Path_584" d="M631.183 399.621h97.074v.051c-3.946.507-7.036 5.071-7.036 10.629v.52c0 5.559 3.089 10.121 7.036 10.629v.051h-97.074c-4.29 0-7.767-4.782-7.767-10.68v-.52c0-5.901 3.477-10.68 7.767-10.68z" class="cls-1"  transform="translate(-623.416 -399.621)"/></g></g><g id="Group_562"  transform="translate(10.279 29.118)"><g id="Group_561" ><path id="Path_585" d="M721.281 409.235h-97.806c.389-5.4 3.7-9.614 7.728-9.614h97.074v.051c-3.69.475-6.631 4.497-6.996 9.563z" class="cls-12"  transform="translate(-623.475 -399.621)"/></g></g><path id="Path_586" d="M632.991 395.685h101.821v4.42H632.991a8.84 8.84 0 000 17.68h101.821v4.421H632.991a13.261 13.261 0 110-26.521z" class="cls-8"  transform="translate(-611.922 -369.164)"/><path id="Path_587" d="M649.432 374.3l-4.089-2.652-4.089 2.652v-12.159h8.177z" class="cls-14"  transform="translate(-619.246 -357.749)"/></g><path id="Rectangle_277" fill="#28343c" d="M0 0h17.128v1.879H0z"  transform="translate(707.523 595.772)"/><g id="Group_570"  transform="translate(550 609.118)"><g id="Group_564"  transform="translate(7.808 2.597)"><path id="Path_588" d="M90.2 352.151H-6.872v.051c3.946.507 7.036 5.071 7.036 10.629v.52c0 5.559-3.089 10.121-7.036 10.629v.051H90.2c4.289 0 7.768-4.782 7.768-10.68v-.52c.002-5.898-3.476-10.68-7.768-10.68z" class="cls-1"  transform="translate(6.872 -352.151)"/></g><g id="Group_565"  transform="translate(7.808 2.597)"><path id="Path_589" d="M.124 361.765H97.93c-.389-5.4-3.7-9.614-7.728-9.614H-6.872v.051c3.691.475 6.631 4.498 6.996 9.563z" class="cls-12"  transform="translate(6.872 -352.151)"/></g><path id="Path_590" d="M83.112 348.215h-101.82v4.42h101.82a8.84 8.84 0 110 17.68h-101.82v4.421h101.82a13.261 13.261 0 100-26.521z" class="cls-8"  transform="translate(18.708 -348.215)"/><g id="Group_567"  transform="translate(10.24 29.118)"><g id="Group_566" ><path id="Path_591" d="M4.581 392.352h97.074v.051c-3.946.507-7.036 5.071-7.036 10.629v.52c0 5.559 3.089 10.121 7.036 10.629v.051H4.581c-4.289 0-7.767-4.782-7.767-10.68v-.52c0-5.898 3.477-10.68 7.767-10.68z" class="cls-12"  transform="translate(3.186 -392.352)"/></g></g><g id="Group_569"  transform="translate(10.279 29.118)"><g id="Group_568" ><path id="Path_592" d="M94.679 401.966H-3.127c.389-5.4 3.7-9.614 7.728-9.614h97.074v.051c-3.691.475-6.631 4.497-6.996 9.563z" class="cls-1"  transform="translate(3.127 -392.352)"/></g></g><path id="Path_593" d="M6.389 388.416H108.21v4.42H6.389a8.84 8.84 0 100 17.68H108.21v4.421H6.389a13.261 13.261 0 110-26.521z" class="cls-13"  transform="translate(14.68 -361.895)"/><path id="Path_594" d="M22.83 367.028l-4.089-2.652-4.089 2.652v-12.156h8.178z" class="cls-14"  transform="translate(7.356 -350.48)"/></g><rect id="Rectangle_278" width="258.467" height="174.207" class="cls-8"  rx="11.558" transform="translate(697.803 463.158)"/><path id="Rectangle_279" d="M0 0h239.858v153.53H0z" class="cls-1"  transform="translate(707.108 473.496)"/><path id="Rectangle_280" d="M0 0h239.858v14.388H0z" class="cls-9"  transform="translate(707.108 473.496)"/><path id="Rectangle_281" d="M0 0h239.858v16.887H0z" class="cls-14"  transform="translate(707.108 487.885)"/><g id="Group_575"  transform="translate(885.44 479.097)"><g id="Group_574-2" ><g id="Group_571-2" ><circle id="Ellipse_43-2" cx="1.982" cy="1.982" r="1.982" class="cls-11" /></g><g id="Group_572-2"  transform="translate(6.376)"><path id="Path_595-2" d="M557.379 194.11a1.981 1.981 0 11-1.982-1.981 1.982 1.982 0 011.982 1.981z" class="cls-11"  transform="translate(-553.416 -192.129)"/></g><g id="Group_573-2"  transform="translate(12.751)"><path id="Path_596-2" d="M567.043 194.11a1.981 1.981 0 11-1.982-1.981 1.982 1.982 0 011.982 1.981z" class="cls-11"  transform="translate(-563.08 -192.129)"/></g></g></g><path id="Rectangle_282" d="M0 0h124.064v7.409H0z" class="cls-1"  transform="translate(715.379 492.709)"/><path id="Rectangle_283" d="M0 0h19.471v7.409H0z" class="cls-8"  transform="translate(839.443 492.709)"/><path id="Path_597" d="M265.47 280.409l7.216 5.064-7.216 4.5z" class="cls-16"  transform="translate(474.646 256.928)"/><path id="Path_598" d="M265.47 363.141l7.216 5.064-7.216 4.5z" class="cls-16"  transform="translate(474.646 228.776)"/><g id="Group_578"  transform="translate(1328.697 548.241)"><path id="Rectangle_284" d="M0 0h5.622v6.806H0z" class="cls-1"  transform="translate(12.204 8.403)"/><path id="Rectangle_285" d="M0 0h5.622v26.632H0z" class="cls-10"  transform="translate(12.204 15.209)"/><path id="Rectangle_286" d="M0 0h5.622v6.806H0z" class="cls-1"  transform="rotate(11.766 -14.027 122.3)"/><path id="Rectangle_287" d="M0 0h5.622v26.632H0z" class="cls-14"  transform="rotate(11.766 -47.053 118.896)"/><path id="Rectangle_288" d="M0 0h5.622v6.806H0z" class="cls-1"  transform="rotate(-12.791 5.554 .623)"/><path id="Rectangle_289" d="M0 0h5.622v26.632H0z" class="cls-14"  transform="rotate(-12.791 35.913 -2.781)"/><path id="Rectangle_290" d="M0 0h5.622v6.806H0z" class="cls-1"  transform="rotate(25.326 13.666 87.086)"/><path id="Rectangle_291" d="M0 0h5.622v26.632H0z" class="cls-10"  transform="rotate(25.326 -1.48 83.682)"/><g id="Group_576"  transform="translate(2.444 28.373)"><path id="Path_599" d="M723.983 337.817h-23.01l-5.627-34.265h34.265z" class="cls-9"  transform="translate(-695.346 -303.552)"/></g><g id="Group_577"  transform="translate(2.444 28.373)"><path id="Path_600" d="M703.887 303.552h-8.542l5.627 34.265h7.7z" class="cls-9"  transform="translate(-695.346 -303.552)"/></g></g><path id="Rectangle_292" d="M0 0h73.701v5.779H0z" class="cls-8"  transform="translate(790.186 656.509)"/><path id="Rectangle_293" d="M0 0h15.404v26.33H0z" class="cls-8"  transform="translate(819.335 633.068)"/><path id="Path_607" fill="#53c2e0" d="M1695.547 1062.939l-23.676-25.815s-18.186-19.208 1.674-36.291c.7-.3 1.387-.573 2.218-.863 17.836-6.242 25.533 11.484 25.533 11.484s5.729-20.666 27.378-14.476 21.4 21.25 13.186 31.651-46.313 34.31-46.313 34.31z"  opacity=".455" transform="translate(-878.97 -461.821)"/><path id="Path_610" fill="#fe9f04" d="M1695.853 1063.594l-23.907-26.067s-18.364-19.4 1.69-36.646c.708-.307 1.4-.578 2.24-.872 18.011-6.3 25.782 11.6 25.782 11.6s5.785-20.867 27.646-14.617 21.607 21.457 13.315 31.96-46.766 34.642-46.766 34.642z"  opacity=".455" transform="translate(-583.089 -461.896)"/><path id="Path_2032" d="M812.452 544.346l6.715 14.908 19.477 4.082-4.144 17.921 15.129 6.027-5.408 13.4" class="cls-19"  transform="translate(-10.492 -8.573)"/><path id="Path_2033" d="M812.452 544.346l6.78 15.054 19.667 4.122-4.185 18.1 15.277 6.086-5.461 13.53" class="cls-19"  transform="translate(287.181 -8.631)"/></g></svg>
