<svg xmlns="http://www.w3.org/2000/svg" width="912.906" height="465.704"><defs><clipPath id="clip-path"><path id="Rectangle_308" fill="#fff" stroke="#707070" d="M0 0h293v164H0z" transform="translate(839 658)"/></clipPath><style>.cls-2{fill:#fff}.cls-5{opacity:.571;fill:#50bad7}.cls-10{fill:none;stroke-linecap:round;stroke-dasharray:20 20}.cls-11{fill:#003d64}.cls-12{fill:#d2dcdf}.cls-13{fill:#fe9f04}.cls-14{fill:#feb031}.cls-15{fill:#c2cbcf}.cls-16{fill:#a4d8e7}.cls-17,.cls-23{fill:#53c2e0}.cls-19{fill:#fffffa}.cls-22,.cls-23{stroke:none}</style></defs><g id="Group_1736" transform="translate(-527.336 -198.213)"><g id="Group_580" transform="translate(833.844 198.658)"><path id="Path_471" d="M1214.606 614.4v170.715H301.7c17.06-7.154 35.677-12.72 46.648-24.877 25.123-27.857-7.064-67.579 6.731-99.875 16.66-38.977 90.188-48.094 108.414-86.643 8.626-18.265-.381-35.743 3.191-54.266 3.233-16.764 13.454-32.779 29.249-44.52 12.8-9.514 29.336-16.786 36.993-29.2 7.27-11.79 4.91-25.69 8.341-38.491 4.306-16.065 18.716-30.076 37.3-37.645 17.717-7.215 47.512-9.982 66.532-5.166 23.849 6.038 45.57 23.43 63.641 36.455 15.823 11.4 31.5 14.4 53.027 10.744 46.126-7.841 80.154-39.294 123.29-52.979a155.466 155.466 0 0128.244-6.288c22.424-2.722 47.073 1.108 63.383 13.388 14.794 11.146 20.917 27.475 33.128 40.377 25.165 26.6 77.677 33.65 98.577 62.272 20.45 27.993 8.138 64.767 27.272 93.007 16.196 23.885 53.73 35.069 78.945 52.992z" class="cls-2" transform="translate(-608.208 -351.527)"/><path id="Path_472" d="M1214.439 435.456c4.121.724 8.784.875 12.028-1.767 2.926-2.383 3.9-6.423 4.11-10.19 1.074-19.231-35.271-72.632-54.293-44.649-17.184 25.278 16.608 52.818 38.155 56.606z" class="cls-2" transform="translate(-708.659 -371.347)"/></g><g id="Group_582" opacity=".4" transform="translate(-47.705 -16.241)"><path id="Rectangle_249" fill="#53c1df" d="M0 0h325.266v353.527H0z" opacity=".571" transform="translate(873.336 311.782)"/><path id="Rectangle_250" d="M0 0h41.948v72.476H0z" class="cls-5" transform="translate(1014.995 311.782)"/><path id="Rectangle_252" fill="#a8dbe9" d="M0 0h280.336v224.649H0z" opacity=".571" transform="translate(786.151 440.66)"/><path id="Rectangle_253" d="M0 0h36.154v63.417H0z" class="cls-5" transform="translate(908.242 601.892)"/><path id="Rectangle_254" d="M0 0h36.154v72.945H0z" class="cls-5" transform="translate(908.242 440.66)"/><path id="Rectangle_255" fill="#4fb9d5" d="M0 0h275.096v155.12H0z" opacity=".571" transform="translate(959.302 510.189)"/><g id="Bluehost_icon_-_logo" transform="translate(1148.705 330.242)" style="mix-blend-mode:luminosity;isolation:isolate"><path id="Icon" d="M31.772-.923V8H22.9V-.923zm-11.45 0V8h-8.876V-.923zm-11.45 0V8H0V-.923zm22.9-11.539v8.922H22.9v-8.922zm-11.45 0v8.922h-8.876v-8.922zm-11.45 0v8.922H0v-8.922zM31.772-24v8.921H22.9V-24zm-11.45 0v8.921h-8.876V-24zm-11.45 0v8.921H0V-24z" class="cls-2" transform="translate(0 24)"/></g></g><g id="Mask_Group_30" clip-path="url(#clip-path)" transform="translate(-21 -291)"><g id="Group_583"><g id="Path_608" class="cls-10"><path d="M84 0A84 84 0 110 84 84 84 0 0184 0z" class="cls-22" transform="translate(907 695)"/><path d="M121.592 9.103c.309 0 .623.072.916.224a83.923 83.923 0 017.307 4.256l.033.02v.001l.098.064h.001c.01.008.02.014.03.02l.003.003.031.02.065.043h.002c.01.008.02.014.03.02l.003.002.03.02.001.001.097.064.003.002.028.019c.003 0 .002 0 .004.002.032.02.063.042.095.063l.003.002.028.018.005.004.03.02.064.042.005.003.026.018.006.004.026.017.005.003a72.54 72.54 0 01.068.046l.024.016.008.005.024.016.007.005.027.018.003.002.03.02.006.005.025.016.009.006.021.015.01.006.023.016.006.004.03.02.007.005.023.015.01.007.02.014.01.006.022.015.01.006.028.02.006.003.024.017.01.007.02.013.011.008.018.012.013.008.025.018.007.004.025.018.012.008.017.011.014.01.016.01.014.01.019.013.01.007.027.019a11 11 0 01.014.01l.016.01.014.01.015.01.014.01.017.01.013.01.027.018c.004.003.01.008.015.01l.014.01.015.01.014.01.016.011.013.009.016.01.011.009.031.021.013.009.017.011.01.008.02.013.01.007.018.012.008.006c.013.01.024.016.037.025l.009.007.017.012.012.008.017.012.012.008a15.675 15.675 0 00.066.046c.002 0 .003.002.005.003l.02.014a3.465 3.465 0 00.027.02l.01.005.019.014.006.004a69.723 69.723 0 01.074.052l.022.015.005.004.022.015.005.004a73.618 73.618 0 01.102.071l.023.016.004.003a106.524 106.524 0 01.101.071l.024.017.003.002.1.07.002.002.025.017.001.001a83.652 83.652 0 01.129.091 84.404 84.404 0 016.45 5.07 2 2 0 01-2.626 3.017 80.24 80.24 0 00-15.728-10.667 2 2 0 01.92-3.778zm29.222 25.35c.622 0 1.236.29 1.626.833a83.873 83.873 0 017.955 13.738l.066.144v.002l.013.027.001.004.051.112.001.002.013.028v.002l.052.112.001.004.012.025.002.006a22.72 22.72 0 01.05.11l.002.004.01.024.004.008.01.022.004.01.01.023h.001l.036.081.004.01.01.021.004.01.01.022.004.008.032.073.005.01.009.02.005.013.009.02a3.615 3.615 0 00.014.032l.004.008a48.727 48.727 0 01.032.072l.006.014.008.018.006.015.008.018.006.012.017.039.004.01a9.557 9.557 0 00.015.033l.007.018.007.015.008.017.007.017.007.016.013.03.006.014.009.02.006.015.008.017.007.016.007.017.007.016.01.024.01.02.008.02.006.014.009.019.006.014.008.02.006.013a18.583 18.583 0 01.028.065l.005.012.01.022.005.012.01.022c0 .003.003.01.005.012l.011.027.003.006.014.034.002.004.013.03.004.008.01.026.005.01.012.028.002.004.03.07.002.006.012.027.003.009.013.028c0 .002 0 .003.002.005l.03.07v.002l.014.033.003.006.012.03.002.004.045.106.002.003.013.033.001.003c.016.035.03.07.045.107l.001.001.015.034v.002l.015.035.045.109.001.001.015.035v.001l.06.144v.001c.131.315.26.63.386.948a2 2 0 11-3.713 1.486 79.913 79.913 0 00-9.114-16.672 2 2 0 011.627-3.16zm14.369 35.904a2 2 0 011.977 1.72c.308 2.167.534 4.362.673 6.58l.004.07c0 .002 0-.002 0 0l.006.092v.004l.004.066v.003l.004.067v.003l.006.091v.003l.004.067v.003l.004.067v.003l.005.09v.005l.004.065v.005l.004.065v.025l.001.005a27.956 27.956 0 00.003.045v.019l.001.007.002.036v.007l.001.018v.01l.004.06v.007l.003.064v.006l.002.02v.006l.002.04v.003l.001.02v.008l.003.06v.01l.002.017v.008l.002.034V79.988l.001.011.002.028v.013l.001.016v.013a9.574 9.574 0 01.002.04l.001.015v.014l.002.016v.015l.001.024v.013l.002.016v.014l.001.026v.013l.002.016v.013l.001.02v.02l.002.016v.029l.001.016.001.023.001.013v.016a4.038 4.038 0 00.002.039v.015l.001.015.001.014a5.342 5.342 0 01.002.04v.03l.001.013.001.026v.011l.002.019v.034l.001.015.001.018v.014l.001.017v.014l.002.024v.03l.001.013.001.026v.012l.001.018v.012l.002.025v.033l.001.01v.02l.001.014a11.702 11.702 0 00.003.064v.038l.002.02v.039l.001.008v.022l.001.011v.023l.001.007.001.027v.012l.001.02v.01l.001.028v.008l.001.022v.01l.001.028v.008l.001.022v.01l.001.025v.008l.001.026v.009l.001.022v.01l.001.027v.01l.001.02v.01l.001.029v.03l.001.01v.03l.001.001v.027l.001.011v.031l.001.027v.012l.001.018v.011l.001.027v.032l.001.01v.027l.001.007v.034l.001.024v.006l.001.029v.031l.001.009v.038l.001.02v.01l.001.03v.029a2.512 2.512 0 00.001.035v.005l.001.03v.039l.001.028v.01l.001.022v.043l.001.027v.006l.001.03v.039l.001.027v.041l.001.025V82.68l.001.027v.039l.001.029v.039l.001.03v.039l.001.029v.04l.001.03v.069l.001.03V83.156l.001.024V83.257l.001.027a.32.32 0 010 .004V83.394l.001.024V83.563l.001.025V83.827a.51.51 0 010 .004v.069l.001.03V84.4l-.001.01V84.511a19.431 19.431 0 010 .064l-.001.011V84.707l-.001.013v.098l-.001.024V84.883l-.002.168v.032l-.001.01v.066l-.001.024V85.226l-.001.025V85.29l-.001.03a20.485 20.485 0 010 .034v.003l-.004.202v.003a18.789 18.789 0 000 .035l-.001.028v.006l-.001.027v.039l-.001.03v.003l-.001.03v.003a85.045 85.045 0 01-.008.338v.034l-.001.032v.002a84.932 84.932 0 01-.203 4.094v.001l-.002.031v.004l-.003.028v.008l-.002.024v.01l-.003.023v.01l-.002.022v.01l-.002.022-.001.012-.002.02v.012l-.002.022-.001.01-.002.024v.009l-.002.022-.001.01-.002.026v.007l-.003.032-.001.015-.002.017a8.156 8.156 0 01-.002.031l-.002.021v.011l-.002.02-.001.012-.002.021a2.389 2.389 0 00-.003.032v.01l-.002.023-.001.008-.002.023v.01l-.003.023v.006l-.002.026v.004c-.03.351-.06.702-.094 1.052a2 2 0 01-3.982-.378 81.033 81.033 0 00-.44-19.01 2 2 0 011.984-2.282zm-3.686 38.512a2 2 0 011.89 2.654l-.126.36v.001l-.01.028-.002.005-.01.028-.041.12-.002.002-.01.029v.001l-.042.118-.001.004-.01.027-.001.003-.043.119v.001l-.01.027a.751.751 0 01-.002.006l-.01.027-.032.09v.001a18.658 18.658 0 01-.012.032l-.01.026c0 .002 0 .004-.002.006-.003.008-.006.019-.01.026v.001a84.017 84.017 0 01-.032.091l-.01.027-.002.005-.01.026c0 .002 0 .004-.002.006l-.03.082-.001.005-.009.023-.004.01-.008.023-.003.01-.009.023-.001.003-.021.058-.01.024-.002.008-.009.023-.004.01-.008.024-.003.007-.029.078c0 .003-.002.006-.003.008l-.008.023-.004.01-.008.022-.004.01-.03.083h-.001l-.009.024a3.865 3.865 0 01-.004.01l-.008.022-.004.011-.008.022-.003.009-.02.053-.009.022c0 .004-.002.007-.003.01l-.008.022a2.7 2.7 0 00-.005.012l-.008.021a2.578 2.578 0 00-.032.085l-.004.01-.007.02a4.2 4.2 0 00-.005.013l-.008.02-.005.013-.007.02-.005.012-.014.038-.005.013-.007.019-.006.015-.007.018-.005.014-.008.02-.005.013-.026.07-.005.013-.008.019-.005.014-.007.02-.006.014-.007.018-.006.016-.013.033a4.746 4.746 0 01-.013.033l-.005.014-.007.02-.006.014-.007.019-.005.013-.011.028-.009.022-.006.016-.007.018a12.21 12.21 0 00-.006.016l-.007.017a9.106 9.106 0 01-.006.017l-.007.017-.006.016a12.72 12.72 0 01-.01.024l-.008.022a9.252 9.252 0 01-.007.018l-.006.017-.007.017-.006.016-.008.019c0 .003-.004.012-.005.014l-.01.024-.003.01-.013.032a4.353 4.353 0 00-.005.013l-.008.02-.006.015-.007.02-.006.014-.008.02-.005.013-.013.032c0 .003-.003.008-.004.01l-.01.025-.004.012-.009.02-.005.015a11.85 11.85 0 00-.008.02l-.005.014-.01.025-.005.01-.012.03-.004.012-.009.022-.005.014-.009.02a5.218 5.218 0 00-.013.035l-.005.013-.013.032-.005.01-.008.023-.006.013-.008.022-.005.012-.01.022-.004.012-.013.033v.001a29.391 29.391 0 01-.018.043l-.01.024a4.403 4.403 0 01-.004.011l-.009.023-.005.012-.011.028-.002.005-.014.034a1.93 1.93 0 00-.014.034l-.004.01-.01.024-.004.011a15.56 15.56 0 01-.027.068l-.001.003-.013.03c0 .003-.003.008-.004.01l-.01.024-.004.011-.01.026-.004.008-.028.069-.002.004-.012.03-.004.009-.01.025-.004.01-.012.028-.001.005-.015.035v.001l-.014.032-.003.01a24.02 24.02 0 00-.011.025l-.003.008-.012.028c0 .003-.002.004-.003.007a107.864 107.864 0 01-.03.076l-.012.027-.004.008-.01.027-.004.008-.014.033-.015.036v.002l-.014.032-.003.007-.011.027-.003.008-.013.03-.001.004-.03.07-.001.004-.013.03-.003.006-.012.031-.002.004-.03.07v.002l-.014.033-.002.005-.013.031-.002.004-.045.106v.002l-.015.032-.001.005-.014.032-.001.002-.045.107-.001.002-.015.034v.002l-.046.107-.015.034-.002.004-.06.14-.001.003-.062.142v.003l-.015.033-.001.002-.062.142-.063.144-.079.179a83.802 83.802 0 01-6.238 11.576 1.998 1.998 0 01-2.765.597 2 2 0 01-.597-2.764 79.76 79.76 0 008.322-17.08 2 2 0 011.89-1.345zm-20.952 32.516a2 2 0 011.38 3.448 84.471 84.471 0 01-5.459 4.77l-.121.097-.002.002-.029.023-.091.073h-.002l-.029.024c-.002.002.001 0-.001 0l-.09.073h-.002l-.03.024-.091.073h-.001l-.03.024h-.001l-.121.096-.002.001-.028.022-.003.002-.09.07c-.001.002 0 .002-.003.003l-.027.022-.003.002-.09.07-.003.003-.026.02-.005.004-.089.069-.003.003c-.01.006-.017.012-.026.02-.002 0-.004.002-.006.004l-.026.02-.003.002-.059.046-.005.004-.024.018-.007.006a32.782 32.782 0 01-.088.068l-.005.003a14.57 14.57 0 00-.024.019l-.007.005-.024.019-.005.004-.06.046-.028.022-.007.004-.023.019-.006.004-.028.021-.001.001-.06.045-.006.006-.023.017-.007.006-.025.019-.004.003-.03.022-.002.002-.026.02-.01.007-.02.015-.008.007-.022.016-.007.006-.058.044-.007.005-.023.017-.008.006-.021.016-.008.007-.058.043-.008.006-.02.016a3.88 3.88 0 00-.03.022l-.01.007a16.78 16.78 0 00-.026.02l-.002.001-.029.022-.008.007a10.424 10.424 0 01-.03.022l-.02.015-.01.008-.022.016-.007.005-.028.021-.009.007-.02.015-.01.007-.02.015-.01.007-.02.016-.009.006-.028.021-.007.006a79.473 79.473 0 01-.032.023l-.018.014-.012.009-.018.013-.01.008-.026.019-.008.006-.023.017-.011.008-.018.014-.012.008-.018.014-.01.008-.02.014-.013.01-.024.018-.01.007-.019.014-.012.009-.017.012a3.49 3.49 0 00-.012.01c-.006.003-.011.008-.017.012l-.012.009a14.747 14.747 0 01-.04.028l-.016.013-.013.01-.016.01a9.4 9.4 0 00-.029.022l-.013.01-.027.02-.01.008a16.15 16.15 0 00-.018.012l-.014.01-.015.011-.013.01-.016.012-.013.01-.02.015-.019.013-.016.012-.014.01-.015.011-.014.01-.016.011-.013.01-.017.013-.021.015-.017.012-.015.01c-.004.004-.009.008-.014.01-.004.004-.01.01-.015.012l-.012.01-.017.011-.012.009-.027.02-.015.01-.016.012-.012.009-.016.011a6.23 6.23 0 01-.013.01l-.016.011a5.627 5.627 0 01-.012.009l-.02.015-.022.015-.016.012-.013.009-.016.012-.012.008a11.6 11.6 0 01-.016.012l-.013.009-.016.012-.004.003-.04.028-.01.007-.017.013-.01.008-.019.012a2.332 2.332 0 00-.01.008l-.018.013-.007.004-.036.027-.01.007-.019.013-.009.006-.019.014-.01.007-.018.013-.007.005-.039.028-.007.005-.018.013-.01.007-.019.013-.01.007-.018.013a2.06 2.06 0 01-.075.054c-.002 0-.003.002-.005.003l-.02.015-.009.006-.02.014-.004.003-.07.05c-.002 0-.004.002-.006.004l-.022.015-.005.004-.022.015-.004.003-.098.07-.004.002-.023.016-.004.002-.099.07-.003.002-.023.016-.004.003-.1.07-.002.002-.024.016-.003.002-.126.088-.003.002-.258.179a83.984 83.984 0 01-5.647 3.567 2 2 0 01-1.994-3.468 80.374 80.374 0 0015.215-11.389 1.993 1.993 0 011.38-.552zm-33.498 19.332a2.001 2.001 0 01.567 3.918 83.592 83.592 0 01-12.653 2.656l-.197.026-.197.025c-.7.088-1.404.167-2.11.238h-.001a84.601 84.601 0 01-4.625.332 2 2 0 01-.09-3.998 79.985 79.985 0 0018.744-3.116 2 2 0 01.562-.08zm-57.193-4.143c.28 0 .563.059.833.183a79.503 79.503 0 0018.09 5.797 2 2 0 11-.757 3.928 83.124 83.124 0 01-8.89-2.225l-.15-.046-.036-.011-.002-.001-.147-.046-.003-.001-.033-.01-.004-.002-.035-.01-.075-.024-.035-.011-.005-.002-.03-.01c-.003 0-.004 0-.007-.002a117.592 117.592 0 01-.142-.045l-.009-.003-.028-.009-.007-.002-.034-.01c-.002-.002.002 0 0-.001l-.037-.012h-.002l-.033-.01c-.002-.002-.007-.003-.01-.004l-.024-.008-.011-.004-.026-.008a14.29 14.29 0 00-.079-.025l-.007-.003-.028-.009-.01-.003-.025-.008-.01-.003-.027-.01c-.003 0-.005 0-.008-.002a53.34 53.34 0 01-.07-.022l-.008-.003-.026-.009a3.08 3.08 0 01-.012-.003l-.023-.008-.012-.004-.025-.008-.01-.003-.034-.012a24.82 24.82 0 01-.034-.01l-.011-.004-.023-.008-.014-.004-.02-.007-.014-.005-.024-.007-.01-.004a24.458 24.458 0 01-.034-.011l-.01-.003-.024-.008-.013-.005-.022-.007-.013-.004-.022-.008-.012-.004-.025-.008-.01-.003-.033-.011-.012-.004a11.134 11.134 0 00-.056-.019l-.015-.005a10.186 10.186 0 01-.02-.007l-.014-.004a16.866 16.866 0 01-.024-.008l-.02-.007-.022-.008-.017-.005-.017-.006-.017-.005a6.612 6.612 0 00-.034-.012l-.017-.006-.017-.006-.016-.005-.032-.01c-.006-.003-.011-.005-.017-.006l-.018-.006-.015-.006-.019-.006-.015-.005-.018-.006-.015-.005-.02-.007a.27.27 0 00-.002-.001l-.047-.016-.014-.005a10.506 10.506 0 01-.053-.018l-.013-.004-.021-.007-.009-.003c-.025-.01-.05-.018-.076-.026l-.01-.004-.023-.008-.01-.003-.023-.008-.009-.003a12.533 12.533 0 01-.112-.039l-.005-.002-.026-.009c-.002 0-.004 0-.005-.002l-.027-.009-.005-.001a59.748 59.748 0 01-.12-.042l-.026-.01a81.14 81.14 0 01-.153-.053h-.001l-.03-.01-.001-.001-.15-.053h-.001a83.366 83.366 0 01-6.951-2.819 2 2 0 01.841-3.815zm-30.375-23.96c.593 0 1.18.263 1.574.765a80.57 80.57 0 0013.427 13.456 2 2 0 01-2.478 3.14H32a84.5 84.5 0 01-9.762-9.04l-.026-.028c-.002-.002.001.001 0 0a82.59 82.59 0 01-.106-.114l-.001-.002a82.78 82.78 0 01-.078-.086l-.026-.028-.002-.001a67.79 67.79 0 01-.077-.086h-.002l-.024-.027-.003-.003-.024-.027a82.015 82.015 0 01-.078-.086l-.003-.003-.023-.025-.002-.003-.052-.057-.001-.001a39.614 39.614 0 00-.028-.03l-.021-.025-.004-.004-.024-.027-.026-.029-.003-.002a33.902 33.902 0 01-.021-.024l-.006-.007-.02-.02-.006-.008a25.868 25.868 0 01-.019-.021l-.005-.007-.025-.026-.003-.004-.021-.024-.006-.006-.019-.021-.006-.008-.02-.02-.005-.007-.024-.027-.002-.002-.022-.025a4.699 4.699 0 00-.008-.009l-.016-.018a2.597 2.597 0 01-.009-.01l-.016-.018a1.88 1.88 0 00-.031-.035l-.003-.003-.021-.023a2.59 2.59 0 01-.009-.01l-.015-.017a5.386 5.386 0 01-.034-.038l-.018-.02-.006-.008a34.113 34.113 0 01-.022-.024l-.01-.01-.014-.017a3.78 3.78 0 01-.01-.012l-.013-.014-.011-.013-.013-.014a7.778 7.778 0 00-.015-.017l-.018-.02-.01-.012-.013-.015-.011-.012a5.289 5.289 0 00-.024-.027l-.013-.015-.01-.012a31.072 31.072 0 01-.022-.024l-.012-.014-.011-.012-.013-.015-.01-.011-.013-.016a7.336 7.336 0 01-.01-.011l-.014-.015-.01-.011-.024-.028-.01-.011-.012-.014-.011-.013c-.004-.004-.01-.01-.013-.015l-.01-.01-.013-.016-.008-.01-.027-.03-.009-.01-.014-.016a4.923 4.923 0 00-.008-.01l-.015-.017-.008-.008-.015-.018-.004-.004-.033-.038-.005-.007-.016-.017-.007-.009-.015-.017-.008-.009-.015-.017-.005-.006-.036-.041-.001-.002a18.865 18.865 0 01-.017-.02l-.006-.006-.015-.018a3.876 3.876 0 01-.008-.008l-.015-.018-.004-.005-.056-.064-.004-.005c-.007-.008-.01-.013-.018-.02 0-.002-.002-.003-.003-.005l-.019-.021a93.66 93.66 0 01-.081-.095l-.002-.002a90.91 90.91 0 01-.101-.117l-.002-.002-.019-.023-.001-.001a84.533 84.533 0 01-2.25-2.744 2 2 0 011.575-3.23zM3.45 97.422a2 2 0 011.963 1.627 79.504 79.504 0 005.757 18.102 2 2 0 01-3.64 1.66v-.002l-.032-.069v-.002l-.015-.03-.002-.007a21.542 21.542 0 00-.03-.064l-.001-.003-.031-.07-.001-.002-.014-.03-.003-.008-.012-.026a1.752 1.752 0 01-.017-.038l-.001-.002a108.95 108.95 0 01-.034-.074l-.012-.028-.003-.007-.012-.027-.004-.007-.013-.03-.001-.003-.015-.034-.003-.006a17.146 17.146 0 01-.012-.027l-.004-.009a17.186 17.186 0 01-.011-.024l-.004-.01-.012-.026-.003-.007-.03-.067-.002-.006-.013-.027-.004-.01-.01-.023-.005-.01-.01-.024-.005-.01-.014-.032-.015-.033-.004-.01a20.373 20.373 0 00-.015-.035l-.01-.021a3.38 3.38 0 00-.005-.012l-.01-.023-.004-.01a38.77 38.77 0 01-.015-.033l-.002-.004-.012-.028-.005-.012-.01-.02c-.001-.006-.003-.01-.005-.014l-.01-.021c0-.003-.003-.009-.004-.011l-.011-.025-.004-.009-.014-.032-.003-.008-.011-.025a5.387 5.387 0 01-.005-.012l-.01-.02-.005-.014a11.564 11.564 0 00-.015-.033l-.01-.023a2.635 2.635 0 00-.018-.041l-.004-.011-.01-.022a3.93 3.93 0 00-.03-.068l-.004-.01a28.48 28.48 0 01-.012-.029l-.002-.005-.014-.033-.004-.009-.01-.023-.006-.013a12.903 12.903 0 00-.009-.02l-.005-.013a9.73 9.73 0 00-.015-.034l-.013-.03a2.195 2.195 0 01-.003-.01l-.011-.024a3.87 3.87 0 01-.014-.033L6.73 117l-.008-.02-.006-.014-.01-.02-.004-.012-.014-.032-.005-.012-.009-.02-.006-.015-.007-.018-.007-.016-.008-.018-.006-.014a9.133 9.133 0 01-.008-.02l-.006-.013a27.186 27.186 0 01-.018-.044l-.009-.02-.006-.015-.008-.018-.006-.015-.007-.017-.007-.017-.007-.015-.016-.04-.003-.006-.009-.02-.005-.013-.008-.019-.006-.013-.007-.019-.007-.015-.007-.018-.005-.011-.016-.038-.005-.012-.007-.018-.007-.015a11.792 11.792 0 01-.007-.018l-.006-.014-.008-.019-.005-.013-.029-.068-.005-.013-.008-.02-.005-.012-.009-.02-.004-.011a12.74 12.74 0 00-.009-.022l-.004-.009a64.16 64.16 0 01-.034-.083l-.01-.022c0-.004-.002-.006-.003-.01l-.01-.022a2.17 2.17 0 00-.013-.032l-.002-.006-.022-.054-.01-.024-.003-.008-.01-.022c0-.004-.002-.007-.004-.01l-.008-.022-.005-.01-.009-.022-.001-.004-.023-.055-.01-.025-.003-.008-.01-.023-.003-.009-.01-.023-.002-.006-.032-.08-.003-.006a15.38 15.38 0 01-.01-.023l-.002-.008-.01-.024a1.944 1.944 0 01-.003-.008l-.01-.024-.001-.003-.034-.084-.001-.004a16.916 16.916 0 01-.01-.024l-.003-.008-.01-.023c0-.003-.002-.005-.003-.008l-.044-.11-.002-.005-.01-.026-.003-.005-.01-.027-.001-.003-.046-.114-.001-.004-.01-.026-.003-.005-.01-.026-.002-.004a71.912 71.912 0 01-.046-.119l-.01-.025a.65.65 0 00-.002-.005l-.01-.027h-.001l-.046-.116c0-.002 0-.004-.002-.005l-.01-.026a79.023 79.023 0 01-.058-.15l-.001-.003-.07-.177-.057-.15-.011-.03v-.001l-.057-.148v-.001l-.012-.03-.057-.149v-.002l-.068-.178v-.001c-.087-.23-.172-.46-.256-.69l-.001-.004-.066-.178v-.002l-.066-.18a83.31 83.31 0 01-.541-1.549l-.01-.029v-.002a82.704 82.704 0 01-.344-1.038l-.06-.185a79.926 79.926 0 01-.156-.49v-.002l-.01-.029v-.003l-.01-.029-.038-.121v-.003l-.01-.028v-.004l-.01-.029-.037-.121-.001-.004-.01-.028v-.002l-.037-.122-.01-.03v-.003l-.01-.029v-.001a76.993 76.993 0 01-.046-.15l-.001-.007-.009-.027v-.003l-.037-.12v-.002l-.01-.029v-.003l-.009-.03a67.22 67.22 0 01-.028-.092l-.008-.027-.002-.007-.008-.025c0-.003 0-.005-.002-.007a75.485 75.485 0 01-.036-.121l-.007-.026-.003-.007-.007-.026-.002-.006a97.77 97.77 0 01-.034-.116l-.002-.005-.008-.026c0-.003 0-.005-.002-.007l-.007-.026-.002-.006a94.131 94.131 0 01-.036-.123l-.007-.025-.003-.008a13.306 13.306 0 01-.034-.119 16.995 16.995 0 01-.008-.027l-.002-.008-.007-.024-.003-.008-.007-.026-.002-.005a85.472 85.472 0 01-.024-.083l-.002-.008-.007-.023-.003-.01a13.8 13.8 0 00-.006-.024l-.003-.009-.007-.025v-.002a58.03 58.03 0 01-.025-.086l-.002-.008-.007-.023-.003-.01a92.487 92.487 0 00-.007-.024l-.002-.01-.007-.024-.002-.004-.015-.054a.63.63 0 00-.001-.005l-.007-.023c0-.004-.002-.007-.003-.011l-.006-.022-.003-.011-.007-.024-.002-.008-.022-.079-.003-.01-.007-.022a2.91 2.91 0 00-.003-.011l-.006-.023-.003-.012-.006-.022a1.831 1.831 0 00-.025-.088 2.27 2.27 0 01-.003-.01l-.006-.022a3.878 3.878 0 01-.009-.033l-.004-.014-.006-.02c0-.005-.002-.008-.003-.012l-.012-.045-.002-.008-.006-.02-.004-.015a71.522 71.522 0 00-.006-.02l-.003-.013-.006-.021-.004-.014a10.367 10.367 0 00-.009-.032l-.01-.04-.004-.014-.006-.02-.004-.014-.005-.02a5.022 5.022 0 01-.019-.069l-.003-.012-.01-.038-.005-.015-.005-.019-.004-.016-.005-.02-.004-.013-.006-.021a4.86 4.86 0 01-.017-.064v-.001l-.006-.02-.003-.015-.006-.02-.004-.014-.005-.02-.004-.016-.005-.017-.005-.019-.008-.03-.005-.018-.005-.019-.004-.016-.005-.018a7.617 7.617 0 01-.004-.017l-.005-.018-.005-.017-.004-.018a10.245 10.245 0 01-.006-.02l-.006-.024-.006-.023-.004-.016-.005-.018-.005-.018-.004-.017-.005-.018-.004-.017-.005-.018-.005-.02-.008-.028-.005-.019a6.352 6.352 0 01-.004-.016l-.005-.019a7.293 7.293 0 01-.004-.016l-.005-.02-.004-.016-.005-.02-.004-.015-.009-.033-.004-.013-.005-.022-.004-.015-.005-.02-.004-.015-.005-.02-.004-.016-.007-.026-.002-.008-.01-.035c0-.005 0-.006-.002-.01l-.006-.025-.004-.014-.005-.021-.004-.015a11.185 11.185 0 01-.005-.021l-.004-.014-.007-.026a4.411 4.411 0 01-.014-.057l-.005-.021a5.807 5.807 0 00-.004-.016l-.005-.02-.004-.015-.006-.022-.003-.013-.009-.034-.002-.008-.007-.027c0-.005-.002-.009-.003-.014l-.006-.022a4.27 4.27 0 01-.003-.013l-.006-.023-.003-.013-.006-.025-.003-.01-.008-.035-.003-.011-.006-.025-.003-.012-.006-.024-.004-.013a11.822 11.822 0 01-.008-.035l-.007-.028a1.381 1.381 0 00-.011-.043l-.002-.007-.007-.028-.003-.012-.006-.025-.002-.011-.007-.026a2.524 2.524 0 01-.02-.082l-.002-.007-.007-.03-.002-.008-.007-.028-.002-.01-.007-.03-.002-.005a56.618 56.618 0 01-.017-.073l-.002-.008-.007-.027-.003-.011-.006-.027-.002-.009-.008-.032v-.003a60.352 60.352 0 01-.02-.082l-.007-.029-.002-.008-.007-.03-.002-.006-.017-.074-.001-.003-.008-.034-.002-.006-.007-.03-.002-.008-.007-.031-.001-.005-.018-.075v-.001l-.008-.035-.002-.006-.007-.032-.002-.005-.008-.035v-.002a60.96 60.96 0 01-.018-.076v-.001l-.008-.036-.001-.004a27.303 27.303 0 01-.008-.034l-.001-.003-.035-.15v-.005a73.117 73.117 0 01-.035-.151v-.002l-.009-.036v-.002l-.035-.153c0-.002 0 .002 0 0a32.238 32.238 0 00-.008-.038v-.001a72.38 72.38 0 01-.035-.153v-.002a31.83 31.83 0 01-.009-.036v-.002a2 2 0 011.448-4.892zm1.884-38.644a2.002 2.002 0 011.92 2.566 79.967 79.967 0 00-3.159 18.738A2 2 0 01.1 79.89a83.818 83.818 0 013.318-19.685 2 2 0 011.916-1.429zm19.41-33.456a2 2 0 011.445 3.383 80.38 80.38 0 00-11.425 15.19 2 2 0 01-3.46-2.007 84.043 84.043 0 012.919-4.668v-.001l.018-.026.07-.104v-.001l.018-.025v-.002l.071-.104c.006-.008.01-.016.017-.024l.002-.004a92.9 92.9 0 01.07-.102l.017-.026.001-.002.088-.128v-.002l.09-.13.017-.025.001-.002.07-.1.002-.004.017-.024v-.001l.072-.104.017-.024.002-.004a90.144 90.144 0 01.071-.102l.017-.024.002-.003.017-.024.07-.101.004-.005.016-.023v-.002a74.044 74.044 0 01.074-.104l.016-.023.002-.003.07-.099.002-.004.017-.023.002-.003a78.47 78.47 0 01.072-.102l.016-.023c0-.002.002-.003.003-.005l.07-.098.002-.003.016-.023.003-.004.016-.023.003-.004.051-.072.002-.003.016-.021.004-.007.015-.021.004-.005.052-.074.017-.022c0-.002.002-.004.003-.005l.015-.021.006-.008a10.323 10.323 0 01.067-.094l.004-.006.016-.021c0-.002.002-.004.003-.005l.016-.022.003-.004.05-.07.004-.005.015-.021.005-.007.015-.02.004-.006a80.912 80.912 0 01.068-.095l.005-.007.015-.02.005-.007.05-.068c0-.002.001-.003.003-.004l.014-.02.006-.009.014-.02.006-.007.015-.02v-.001l.035-.047.002-.004.015-.02.005-.007.015-.02.006-.008.014-.02.003-.003a56.767 56.767 0 01.056-.077l.014-.019.006-.008.014-.02.005-.007.048-.065.006-.007.013-.019.007-.01.014-.018.007-.009.045-.061.008-.01.012-.018a4.821 4.821 0 01.021-.028l.007-.01.047-.063.006-.008.013-.017.008-.011a12.407 12.407 0 01.02-.028l.013-.017.008-.01.024-.033.008-.01c.004-.007.007-.01.012-.016l.009-.012.012-.016.01-.013.01-.016.01-.011.022-.03.009-.012.01-.015.011-.014.012-.015.009-.013.012-.016a5.812 5.812 0 00.03-.04l.01-.013.012-.016.009-.012.012-.016.009-.012.012-.016.008-.011.013-.017.003-.004.029-.038.008-.011.013-.017.008-.012.012-.015.01-.013.012-.016.009-.012.02-.027.011-.014.01-.014.012-.015.01-.014.01-.013.012-.016.009-.011.021-.028.01-.014.012-.015.01-.013.012-.015.01-.013.011-.016.01-.012.017-.023.014-.018.01-.014.012-.014.01-.015.01-.013.012-.015.01-.013.015-.02.016-.02.01-.014.012-.015.01-.013.012-.016.01-.013.012-.015.01-.013.02-.026.01-.013.012-.016.01-.014.01-.013.012-.015.011-.014.01-.014.017-.021.011-.015.015-.018.009-.012.012-.016.01-.014.012-.015.01-.013.014-.017.014-.02.014-.017.01-.013.012-.015.01-.013.013-.016.01-.013.013-.017.008-.01.02-.027.01-.011.013-.017.01-.013.012-.016a7.724 7.724 0 01.024-.031l.007-.009.022-.028.006-.007.015-.02.01-.012.013-.017.009-.011.014-.019.008-.01.021-.027.005-.006.017-.022.008-.01.015-.02.007-.008.017-.022.006-.007.022-.028.002-.002.02-.026.008-.01.015-.019.008-.01.014-.019.008-.01.02-.024.002-.004.023-.028.006-.008.016-.02.008-.01.015-.019.007-.01.019-.023.004-.004.022-.028.006-.009.017-.02.007-.009.016-.02.006-.009.018-.022.005-.006.023-.028.004-.006.018-.022.007-.01.016-.019.007-.01.017-.02.006-.008.022-.027.005-.006.018-.023.006-.008.017-.02.007-.01.017-.021.005-.006.046-.058.005-.006.018-.022.006-.008.019-.023.004-.005.047-.058.003-.004.02-.025.005-.006.019-.023.004-.006.047-.058.002-.002.021-.026.005-.006.019-.023.005-.007.02-.024.003-.004.047-.058.004-.005.02-.024.004-.005.022-.027.001-.002.048-.058.004-.005.02-.024.004-.006.02-.025.004-.003.047-.059.003-.003.021-.026.003-.004.022-.025.003-.004.048-.059.023-.028.004-.005.02-.024.004-.005.073-.088.001-.002.022-.027.003-.003.073-.088.002-.002.022-.026.003-.005.024-.028.05-.06.023-.028.003-.004.023-.028.05-.06.024-.027.004-.005.022-.026.001-.002.073-.087.003-.004.023-.027.001-.002.074-.087.003-.003.022-.027.002-.002.074-.088.002-.002.023-.027.002-.002.024-.029.05-.058.003-.004.022-.026.002-.002.024-.029.05-.06h.001l.024-.028.002-.002.024-.028.076-.09.026-.029.203-.236.205-.236a84.486 84.486 0 012.68-2.936c.393-.411.918-.618 1.445-.618zM57.303 4.442a2.001 2.001 0 01.651 3.892 79.751 79.751 0 00-17.098 8.284 1.998 1.998 0 01-2.763-.603 2 2 0 01.6-2.762 83.73 83.73 0 0112.255-6.501l.003-.001a92.09 92.09 0 01.174-.075h.003a73.532 73.532 0 01.143-.061l.005-.003.026-.01.003-.002.084-.035.003-.002a17.907 17.907 0 01.031-.013l.026-.01.003-.002.085-.036h.001a18.075 18.075 0 00.032-.013l.025-.01.006-.004a76.043 76.043 0 01.116-.048l.024-.01.008-.003.023-.01.008-.003.082-.034h.001l.025-.011.008-.003.024-.01.006-.003a137.211 137.211 0 01.117-.048l.023-.01.009-.003.023-.01.008-.003a64.449 64.449 0 01.085-.035l.02-.008.012-.005.02-.008.013-.005.02-.008.011-.005a39.421 39.421 0 01.051-.02l.019-.008.014-.006.02-.008.012-.005.02-.008.014-.006.031-.013.018-.007.017-.007a5.008 5.008 0 01.066-.026l.016-.007.017-.007.024-.01.021-.008.019-.007.016-.007.018-.007.015-.006.019-.008.015-.006.022-.008.013-.006.029-.011.015-.007.02-.007a4.726 4.726 0 00.033-.013l.015-.006.02-.009.013-.005.032-.012.01-.005.024-.009.013-.005.02-.008.014-.006.022-.008.012-.005.025-.01.015-.006a18.9 18.9 0 01.026-.01l.011-.005.023-.009.012-.004.024-.01.01-.004.028-.01.006-.003.034-.014.006-.002.029-.011.009-.004.025-.01.01-.003.027-.011.007-.003.07-.027.006-.003.028-.01.008-.004.027-.01.008-.003c.023-.01.047-.018.07-.027l.004-.002.03-.012c.003 0 .005-.002.008-.003l.028-.01.007-.003.032-.013h.002l.072-.028.004-.002.03-.012.007-.002.032-.012.002-.001.073-.028.034-.013.006-.002.032-.013h.002l.109-.042h.001l.036-.014.147-.056h.001c.772-.292 1.55-.573 2.333-.842.216-.074.436-.11.651-.11zM84 0H84.351a4.92 4.92 0 00.039 0h.013l.03.001h.134l.024.001H84.642l.074.001h.09l.024.001h.087l.012.001h.079l.02.001h.054l.028.001h.046l.013.001h.061l.016.001H85.304l.017.001H85.365l.029.001h.036l.017.001H85.484l.022.001h.039l.014.001h.035l.013.001a14.141 14.141 0 01.04 0l.022.001h.016l.021.001h.039l.014.001h.038l.035.002h.053l.021.001h.017l.02.001H85.981l.016.001.035.001a3.862 3.862 0 01.037.001H86.106l.017.001h.021l.017.001h.02l.017.001h.02l.017.001.035.001h.016l.02.001h.019l.019.001h.018l.019.001h.018a7.389 7.389 0 00.037.002h.018l.038.001h.015l.02.001a5.04 5.04 0 00.037.001h.016l.02.001.017.001h.02l.017.001a8.483 8.483 0 00.042.001l.029.001.02.001h.018l.018.001h.02l.016.001.02.001h.017l.02.001h.015l.046.002h.01l.018.001h.018l.02.002H87.037l.017.002H87.091l.02.002h.016l.04.002h.034l.017.002h.037l.02.002h.016l.02.001h.016l.02.001.013.001.041.002h.017l.02.001h.016l.02.002h.017l.02.001h.016l.02.002h.017l.045.002h.008l.022.001.015.001h.021l.015.002h.021l.015.001.022.001h.014l.022.002h.01l.053.003h.03l.012.001.023.001.014.001.023.001h.012l.024.002h.01l.083.004h.011l.023.002h.014l.022.002h.014l.022.001.014.001.022.001h.012l.08.005h.014l.022.002h.014l.022.001a3.923 3.923 0 01.037.002h.01l.091.006h.002l.026.001a2.178 2.178 0 00.046.003h.025l.01.001.026.002h.007l.093.005h.002l.028.002h.008l.026.002h.01l.025.002h.01l.125.008h.003l.03.002h.005l.029.002h.005l.03.002h.001l.131.008h.003l.029.002h.007l.028.002a.837.837 0 01.036.002l.1.007.029.001h.007l.028.003h.006l.029.002h.004l.13.009h.001l.032.002h.003l.03.002h.004l.165.012a20.554 20.554 0 00.036.002l.03.002h.002l.164.012h.002l.032.003h.002l.032.002.167.012.033.003h.001l.199.015A83.832 83.832 0 01103.35 2.24h.002l.03.007h.001l.157.038h.002l.03.007h.002l.03.008h.002l.155.038h.003l.029.007.003.001.021.005a2 2 0 01-.942 3.888A80.39 80.39 0 0084 4c-2.491 0-5.005.116-7.47.344a2 2 0 01-.375-3.982c.812-.076 1.63-.14 2.45-.192h.001l.033-.002.033-.002a86.32 86.32 0 01.202-.012l.032-.002h.002l.03-.002h.004l.03-.002h.003l.03-.002h.003l.032-.002.134-.008h.002a21.123 21.123 0 01.036-.002l.027-.001h.008L79.27.13h.01l.023-.002h.008l.025-.002h.008l.025-.002h.008l.025-.001h.008l.03-.002h.002l.066-.004h.004a17.076 17.076 0 01.07-.004l.023-.001h.011l.02-.002h.013l.02-.001.013-.001.019-.001h.013l.02-.002h.012l.022-.001h.01l.033-.002.032-.002h.01l.022-.002h.013l.02-.001h.013l.019-.002h.013l.02-.001h.012l.02-.002h.012l.022-.001h.01l.023-.002h.01l.024-.001h.008l.027-.002h.006l.032-.002h.008l.024-.001h.014l.019-.002h.013l.019-.001h.014l.018-.001.015-.001h.017l.015-.001.018-.001h.014l.018-.001.015-.001h.018l.014-.001.02-.001h.012l.032-.002h.007l.025-.001h.012l.02-.002h.014l.018-.001h.016l.017-.001h.015l.017-.002h.032l.016-.001.016-.001h.016l.016-.001h.016l.018-.001.014-.001h.025l.007-.001.032-.001h.013l.02-.002h.032l.014-.001h.018l.015-.001.017-.001h.015l.018-.001h.014L81.08.05h.015l.018-.001h.014l.018-.001h.015l.022-.002h.01l.031-.001h.012l.02-.001h.015l.018-.001h.016l.016-.001h.016l.016-.001h.016l.017-.001h.015l.017-.001h.016l.017-.001h.015l.018-.001h.014l.023-.001h.009l.027-.001h.02l.017-.001h.016l.017-.001h.015l.017-.001h.032l.017-.001h.015L81.74.03h.016l.016-.001h.032l.016-.001h.017l.015-.001h.017l.02-.001h.018l.026-.001h.032l.014-.001h.032l.02-.001h.013l.018-.001h.032L82.11.02h.032l.018-.001h.034l.013-.001h.032l.032-.002h.065l.015-.001h.033L82.4.014h.048l.018-.001h.034l.013-.001h.032l.024-.001H82.619l.023-.001h.045l.02-.001h.045l.02-.001a4.126 4.126 0 01.033 0h.013l.019-.001h.034a3.827 3.827 0 01.031-.001h.079l.007-.001a14.833 14.833 0 01.036 0H83.06l.02-.001h.079l.018-.001h.079l.023-.001h.122l.017-.001H83.562A9.63 9.63 0 0183.595 0H83.903L83.92 0H84z" class="cls-23" transform="translate(907 695)"/></g><g id="Path_609" class="cls-10"><path d="M114.821 0A114.821 114.821 0 110 114.821 114.821 114.821 0 01114.821 0z" class="cls-22" transform="translate(876.179 664.179)"/><path d="M153.341 6.746c.227 0 .457.038.683.12 1.873.68 3.724 1.409 5.55 2.182l.002.001.284.12.005.003.032.014.004.002.032.013.006.002.031.014.004.002.033.014.003.001.175.075.003.002.03.012.008.004.028.012.01.004.027.012.01.004.028.012.008.004.028.012.01.004.129.056.008.004.026.01.012.006.024.01.014.006.025.011.011.005.025.011.014.006.024.01.012.006.025.01.012.006.089.039a2.853 2.853 0 01.048.021l.02.009.018.008.02.008.018.009.02.008.02.009.016.007.023.01.016.007.022.01.016.007.021.01.026.01.028.013.014.006.024.01.016.008a14.246 14.246 0 00.06.026l.016.007.024.011.014.006.024.01.014.007.025.011.014.006.024.011.014.006.076.034.01.004.028.013.01.005.029.012.012.006.026.012.012.005.027.012.012.005c.007.003.02.01.027.012l.011.005.027.013.012.005.037.016.08.036.001.001.036.016.009.004.03.013a6.155 6.155 0 00.038.018l.01.004.029.013.01.005.028.013.01.004.036.017h.001l.118.053.005.003.034.015.006.003.033.015a2.387 2.387 0 01.045.02l.033.015.006.003.037.017h.001l.158.073c.014.006.025.01.038.017l.005.002.034.016.005.002.034.016.005.002.036.017h.003l.236.11.038.018.003.001.038.018a107.465 107.465 0 01.279.13l.037.016v.001l.276.129h.002l.038.019.039.018.236.112h.002l.038.019.039.018a114.372 114.372 0 013.042 1.501l.001.002a114.364 114.364 0 011.578.824h.002l.036.02h.003l.035.02.002.001.037.02h.001l.19.102h.002l.035.02.006.002.032.018c.002 0 .004.002.005.003l.033.017.005.003.035.019h.002a111.388 111.388 0 01.194.105l.032.018.006.003.03.016.008.004.031.017.006.003.033.018.004.002.15.082.003.002.034.019.006.002.031.018.007.003.03.017.008.004.03.016.007.004.034.019h.002c.05.029.101.056.152.084l.035.02c.003 0 .005.002.007.003l.03.017.007.004a18.695 18.695 0 01.038.02l.03.017.007.004.031.017.006.003a159.171 159.171 0 01.148.082l.009.005.028.015.008.005.03.016.008.005.028.015.01.005.028.016.008.005a98.66 98.66 0 01.155.086l.03.016.007.005.029.016.01.005.026.015.01.006a22.466 22.466 0 00.037.02l.03.017a87.688 87.688 0 01.118.066h.002l.034.02.006.004.03.017.01.005.027.016c.003 0 .006.002.008.004l.029.016.01.005.027.016a3.662 3.662 0 01.038.021l.007.004.074.042.002.001.035.02c.002 0 .004.002.005.003l.03.017.01.006.027.015.01.006.025.014.013.007.025.014.01.006.028.016.009.005c.012.007.02.01.032.018l.004.002.074.042.004.002.033.02.006.003.03.017.01.005.025.015.013.007.023.014.012.006.025.015.012.006.028.016.007.005.03.017a4.23 4.23 0 01.079.045l.012.007.024.014.014.008.02.012.017.009.021.012.014.008.022.013.013.008.025.014.011.006.028.016.008.005.004.002a2 2 0 01-2 3.464 110.585 110.585 0 00-17.472-8.14 2 2 0 01.683-3.88zm33.874 19.538c.451 0 .906.153 1.28.465a115.545 115.545 0 0111.723 11.316l.029.032.027.03.003.003.028.031.143.16v.001l.028.03.003.004.025.028.005.005c.01.01.014.016.023.027l.004.004.025.028.003.004.027.03.028.03.002.003a110.077 110.077 0 01.146.165l.022.024.006.008.022.024.007.007.02.023.008.01.02.023.007.007.025.029.002.002a100.82 100.82 0 01.113.128l.004.004.023.026.007.008a26.284 26.284 0 01.056.064l.02.022.008.01.02.022.007.009.02.022.008.01.054.062.007.007.02.024a3.28 3.28 0 00.039.043l.016.02.01.011.017.019.011.013.016.018.012.013.015.018.012.014.017.019.01.012.016.018.011.013.02.023.016.018.017.02.017.02.01.01a18.023 18.023 0 00.026.031l.017.02.01.01.017.02.01.011.017.02.009.01.017.02.01.012.017.02.008.01.018.02.007.009a112.342 112.342 0 01.117.134l.007.008.019.022.008.01.018.02.008.01.018.021.008.01.02.022.004.006.022.025.003.003.148.173.003.004.022.026.004.004.021.025.005.006.022.025.003.005.022.025.004.005.2.235.202.238a2 2 0 11-3.058 2.579c-4.14-4.91-8.735-9.49-13.659-13.613a2 2 0 011.286-3.534zm25.204 29.904a2 2 0 011.73.994l.042.073.003.004.017.03.007.011.014.026.007.012.013.022.009.015a29.01 29.01 0 00.02.036l.014.023.007.012.015.026.006.01.017.03.004.007.02.035.007.012.014.024a4.582 4.582 0 00.02.035l.01.017.01.018.011.019.01.017.01.017.011.02.01.016.01.02.01.016.011.02.01.016.02.035.002.004a57.521 57.521 0 00.027.047l.011.02.01.018.01.017c.004.006.008.012.01.018l.011.018.01.018.01.017.01.02c.005.006.007.01.01.016.004.006.008.012.011.02l.01.014.01.02.01.017.043.077.007.011.012.021.008.015.013.022.007.013.012.021.008.015.013.022.007.013a15.845 15.845 0 01.02.034l.014.025.003.006.016.029c.002.003-.001-.003 0 0l.057.1v.001l.016.028.005.008.015.026.004.01.015.025.006.01.014.025.005.009.015.027.004.007.015.028.002.003.091.163.004.006.016.03.003.004.016.03.003.004.017.03.002.005.017.03.002.004.11.2.002.002.018.031.001.003.017.031.002.004a114.25 114.25 0 016.828 14.733v.002l.082.216.002.004.012.031.003.007.01.03.004.01.011.028.003.009.011.029.004.009.01.029.003.007.037.099.002.006.01.026.005.013.009.023.006.016.008.023.006.015.008.023.007.016.008.023.006.017.008.021.007.018.008.022.006.017.008.02.014.038.005.013.01.027.005.015.009.024.006.017.009.023.005.015.01.025.005.014.01.028.004.011.011.03.004.01.014.038.015.043a2 2 0 01-3.755 1.377 110.595 110.595 0 00-8.199-17.444 2 2 0 011.728-3.006zm13.472 36.705a2 2 0 011.967 1.65c.053.302.106.603.157.906l.001.006.006.033v.006c.003.01.005.022.006.033l.001.005.025.144v.006l.006.03.001.01.005.028.002.014.005.027.002.012.005.028.001.009.016.096.002.013.004.025.003.017.004.023.003.02.003.02.004.021.003.02.004.025.003.016.006.04.003.017.004.025.003.018.004.023.003.019.004.024.003.017c0 .007.003.02.004.027l.002.014.006.035.001.007.007.042.001.01.006.032c0 .004 0 .008.002.012 0 .008.003.023.004.03l.002.014.005.029.002.013.005.031a1396464410.38 1396464410.38 0 00.023.147l.006.035.001.008.006.037.001.005a38.144 38.144 0 01.034.22v.002l.007.043v.001l.034.22v.004l.007.042a115.337 115.337 0 011.22 12.681v.002l.001.043v.004l.002.043v.001a134.512 134.512 0 01.006.14l.001.04v.009l.002.035v.01l.002.036v.008l.004.09.001.043a1.956 1.956 0 00.002.044v.011l.001.033v.013l.002.031v.013l.001.033v.01l.002.044v.01l.002.032v.018l.001.025v.02l.002.023a9.046 9.046 0 01.001.043v.02l.001.022.001.021.001.025.001.04v.017l.002.026v.017l.001.025a6.197 6.197 0 00.001.044v.014l.002.027v.013l.003.104v.005l.001.032v.01l.001.033v.006l.002.036v.003l.005.195.001.038v.004c.024.896.037 1.794.04 2.694a2 2 0 01-4 .013 111.87 111.87 0 00-1.722-19.206 2 2 0 011.97-2.352zm.124 39.116a2 2 0 011.974 2.338 114.235 114.235 0 01-1.243 6.215c0 .004 0-.003 0 0l-.008.037-.001.003-.008.036v.002l-.053.228-.009.036v.004l-.009.035v.004l-.009.034-.001.006-.043.184v.003l-.009.033-.001.008-.008.03-.002.01-.007.03-.002.01-.007.03-.002.007-.033.14-.002.008-.007.028-.003.013-.006.027-.004.014-.006.025-.003.016-.006.025-.004.014-.006.025-.004.018-.01.038c0 .007-.003.016-.005.023l-.005.022-.004.018-.006.023-.004.018-.006.022-.004.018-.005.022-.005.02-.005.021-.004.018-.006.023-.005.018-.005.022-.01.039c0 .006-.002.012-.004.018l-.005.022-.005.021-.005.02-.005.022-.005.018-.005.02-.005.022-.005.02-.005.022-.005.017-.006.025-.004.017-.02.081-.002.01-.008.031-.003.014-.007.026-.004.016a13.141 13.141 0 01-.01.041l-.007.028-.003.013-.007.03-.003.011-.02.083-.002.003-.01.039-.001.008-.009.033-.002.01-.008.032-.003.01-.008.033-.002.009a21.16 21.16 0 01-.01.036v.005l-.043.169-.001.005-.01.037-.001.006-.01.035-.001.008-.01.036v.005l-.044.17v.001l-.01.041-.002.005-.01.037a.674.674 0 000 .005l-.01.037-.002.006c-.887 3.45-1.93 6.833-3.123 10.15a2 2 0 01-3.762-1.358 110.341 110.341 0 004.905-18.64 2 2 0 011.968-1.662zm-13.218 36.795a2 2 0 011.734 2.994c-.182.318-.365.634-.55.95l-.02.033v.002l-.019.032-.001.002-.02.032c0 .003.002-.002 0 .001l-.02.033-.138.236v.001l-.02.032v.003l-.158.264-.003.005-.018.03-.002.004-.017.03-.004.005-.017.029-.003.005-.017.028-.004.008-.017.027-.002.004-.117.196-.003.004-.016.027-.005.01-.016.025-.005.008-.015.025-.006.01-.015.026-.006.009-.015.025-.005.01-.075.124-.002.002-.017.03-.004.005a61.793 61.793 0 00-.021.035l-.016.026-.005.008a22.609 22.609 0 00-.021.035l-.015.026-.005.007-.016.027-.004.006-.095.157-.005.008-.014.023-.008.012-.014.023a7.66 7.66 0 01-.02.034l-.008.013a18.167 18.167 0 01-.02.034l-.015.023-.007.011-.015.025-.004.006c-.005.01-.011.018-.017.027l-.003.006-.033.054-.005.008-.014.023-.007.011a17.187 17.187 0 01-.022.036l-.013.02-.008.014-.012.02-.01.017-.012.019-.01.015-.012.02c-.003.006-.005.01-.01.015l-.01.02c-.005.005-.008.012-.012.018a8.77 8.77 0 00-.01.015l-.015.024-.007.012-.016.025-.016.028-.01.016-.01.017-.012.018a16.38 16.38 0 00-.01.017l-.012.018-.011.018-.01.017-.012.019a9.813 9.813 0 01-.032.052l-.011.017-.01.017-.012.018-.01.017-.012.018-.012.02a84.6 84.6 0 00-.019.03l-.011.018-.013.02-.009.015-.012.02-.01.015-.012.019-.01.017-.011.017-.01.017-.012.019-.01.016-.012.018-.01.017-.012.018-.01.018-.012.017-.01.018-.011.017-.021.034-.01.014-.012.02-.011.018-.011.017-.01.017-.012.018-.011.018-.011.017-.01.017c-.004.006-.01.013-.013.02l-.01.015-.012.02-.01.014-.013.021-.009.015-.016.025a2.853 2.853 0 01-.005.009l-.02.032a1.765 1.765 0 00-.004.005l-.021.033-.006.01a13.56 13.56 0 00-.025.038l-.013.022-.01.015-.012.02a14.346 14.346 0 00-.032.05l-.013.02-.01.015-.013.022-.009.013-.012.02-.01.016-.015.022-.007.012-.022.034a2.783 2.783 0 00-.006.01l-.016.025-.009.013-.014.022a4.888 4.888 0 01-.031.05l-.013.02-.01.015a35.4 35.4 0 01-.012.019l-.01.017-.012.017-.011.018-.012.018-.01.016-.014.021-.008.014-.044.068a19.905 19.905 0 01-.023.036l-.009.013-.014.021-.009.015-.013.02-.01.014-.012.02-.01.016-.013.02-.01.015-.013.02-.009.014-.016.025-.006.01-.02.03-.003.004-.023.036-.003.005-.02.03-.006.01-.016.024-.008.012-.014.022-.01.015-.013.02-.009.014a16.84 16.84 0 01-.022.035l-.015.023-.008.011c-.005.01-.009.015-.015.024l-.008.012-.017.026-.005.008-.046.07-.007.01-.015.024-.01.015a9.466 9.466 0 00-.022.034l-.014.021-.008.013-.015.023-.008.012-.014.021-.01.015-.013.02-.01.014c-.005.01-.008.013-.014.022l-.008.013-.017.025-.006.01-.022.033-.01.016-.013.019-.01.015-.013.02-.01.015-.012.019-.01.016-.013.018-.01.017-.013.018-.01.016-.013.019-.01.015-.014.02-.009.014-.014.022a4.17 4.17 0 01-.009.013l-.045.069-.007.01a34.473 34.473 0 01-.025.038l-.013.02-.01.015-.014.02-.01.015a13.474 13.474 0 01-.023.035l-.012.018-.01.016-.013.018-.011.017-.011.016-.012.018-.01.016-.023.033-.012.018-.01.015-.013.02-.01.015-.013.02a8.69 8.69 0 00-.023.033l-.01.016-.013.019-.01.015-.013.02-.01.015-.012.018-.012.017a10.07 10.07 0 01-.01.016c-.005.006-.01.012-.013.018l-.01.016-.013.018-.01.014-.028.042-.006.01-.014.021-.01.013-.012.02-.01.015a14 14 0 01-.013.019l-.01.014a14.623 14.623 0 01-.024.035l-.012.018-.011.017-.012.016a7.311 7.311 0 01-.023.035l-.011.016-.012.018-.014.021-.009.013-.023.034-.007.01-.016.023-.01.016-.012.018-.012.017-.012.017-.01.016-.013.019-.011.016-.012.017a10.63 10.63 0 00-.011.017l-.012.017-.012.017-.013.019-.01.014-.014.021-.01.014-.016.025a16.45 16.45 0 01-.018.026l-.01.015-.013.019-.011.016-.012.018-.01.015c-.005.006-.01.012-.013.018l-.012.017-.011.016-.012.018a10.5 10.5 0 00-.011.016l-.013.018-.011.017-.011.016a7.194 7.194 0 01-.012.018l-.011.015-.013.019-.008.012-.03.044-.007.01-.013.019-.01.014-.013.02-.01.014a7.08 7.08 0 01-.013.018l-.011.016-.013.018-.01.016a17.24 17.24 0 01-.013.017l-.011.017-.013.018-.01.015-.013.018-.01.016-.014.019-.009.013-.014.02-.01.016-.022.03-.014.02-.01.016-.013.017-.012.018-.012.017-.011.016-.012.017-.012.017-.012.017a17.57 17.57 0 00-.012.018l-.01.014-.014.02-.01.014-.013.02-.01.013-.013.02-.01.014-.052.074-.007.01a23.517 23.517 0 01-.039.055l-.008.012-.015.021a5.663 5.663 0 01-.008.012l-.015.021-.009.013-.014.02-.01.014-.014.02a6.794 6.794 0 01-.008.011l-.015.022-.005.007-.062.088-.002.002-.016.024-.008.01-.016.023-.007.01-.016.022-.008.012-.015.022-.007.01-.017.023-.007.01-.016.023-.006.008-.018.025-.004.006-.085.12-.002.003-.019.026a2.163 2.163 0 00-.005.007l-.017.024a3.695 3.695 0 00-.007.01l-.016.023-.007.01-.016.022-.007.01-.017.024-.006.008a88.93 88.93 0 00-.018.025l-.004.006-.13.182-.004.006a16.99 16.99 0 00-.02.027l-.003.005-.02.027-.004.005-.019.027-.004.005-.019.027-.004.006-.133.184-.001.002-.02.028-.004.005-.019.026-.005.008-.02.025-.003.005-.02.028-.002.004c-.045.06-.089.122-.133.183l-.004.005-.02.027-.003.004-.02.028-.004.005-.02.028-.002.002-.022.03-.001.002-.183.25c-.002.003.001-.002 0 .001l-.023.03v.001l-.023.03-.001.003-.023.03-.208.282v.001a115.351 115.351 0 01-4.044 5.151 1.996 1.996 0 01-2.816.259 2 2 0 01-.259-2.817 111.397 111.397 0 0010.999-15.835 2 2 0 011.737-1.007zm-25.01 30.07a2 2 0 011.298 3.523 115.775 115.775 0 01-1.36 1.136l-.033.027a114.783 114.783 0 01-.301.247l-.03.025-.004.002c-.01.01-.017.014-.029.024l-.005.004-.03.025h-.001l-.167.136-.032.026-.004.004-.028.022a1.672 1.672 0 00-.006.005l-.028.022-.005.005-.028.022-.005.004c-.01.01-.02.016-.03.025l-.002.001-.132.107-.007.005-.025.02-.01.008-.023.02-.009.006-.024.02-.009.007-.025.02-.007.005-.025.021-.008.006-.027.022-.005.004-.032.025-.001.001-.066.053-.007.006-.026.02a2.438 2.438 0 00-.065.053l-.009.006-.023.019-.01.009-.022.017-.011.009-.023.017-.01.008-.024.02-.008.006-.03.024-.003.002-.032.026-.007.005-.026.021-.01.007-.022.019-.012.009-.02.016a8.43 8.43 0 01-.046.036c-.005.005-.013.011-.02.015l-.013.012-.018.014-.014.011-.018.014-.015.012-.02.016-.012.009-.028.022-.016.013-.02.016-.016.012a10.817 10.817 0 00-.033.026l-.015.012-.017.014-.015.011-.017.014-.015.012-.018.014-.013.01-.019.015-.015.012-.017.013-.014.011-.018.014-.012.01a54.173 54.173 0 01-.073.057l-.01.007-.02.016-.012.01-.019.014-.014.011a7.63 7.63 0 00-.017.014l-.015.011-.018.015a8.937 8.937 0 00-.014.01l-.018.015-.014.01-.019.015-.013.01-.019.015a7.7 7.7 0 01-.089.07l-.005.004-.02.015a7.54 7.54 0 01-.013.01l-.02.016-.011.008-.021.017-.012.009-.02.016-.012.008-.02.016c-.003.002-.01.007-.012.01l-.021.016a4.96 4.96 0 01-.01.007l-.022.018-.007.005-.146.113-.004.003-.025.019-.007.005-.025.02-.007.005-.025.019a1.113 1.113 0 00-.006.005l-.026.02-.005.004-.026.02-.006.004-.18.138-.002.002-.028.021-.004.003-.026.02-.006.005-.027.02-.003.003-.03.022-.216.165h-.001l-.03.023-.002.002a115.026 115.026 0 01-11.365 7.603 2 2 0 11-2.022-3.451 111.44 111.44 0 0015.725-11.157c.376-.319.836-.475 1.293-.475zm-33.742 19.763a2 2 0 01.703 3.873 114.02 114.02 0 01-19.28 5.281 2 2 0 01-.707-3.937 110.321 110.321 0 0018.589-5.091c.23-.085.464-.126.695-.126zm-58.044 5.443c.11 0 .221.01.333.028a111.985 111.985 0 0019.227 1.532h.013a2 2 0 01.013 4h-.045-.091l-.013.001h-.033a4.925 4.925 0 01-.046 0h-.139l-.021.001H114.273a5.707 5.707 0 00-.058-.001H114.07l-.028-.001H113.984a41.542 41.542 0 00-.048 0l-.039-.001H113.796l-.038-.001h-.06l-.03-.001H113.61l-.035-.001h-.008l-.087-.001H113.422l-.029-.001h-.059l-.042-.001h-.007l-.036-.001H113.191l-.029-.001h-.051l-.006-.001H113.051l-.032-.001h-.044l-.014-.001h-.043l-.043-.002h-.054l-.033-.001h-.044l-.013-.001h-.036a.95.95 0 01-.007 0l-.044-.002h-.057l-.029-.001h-.014l-.032-.001h-.01l-.088-.002h-.008l-.036-.001h-.01l-.034-.001h-.011l-.036-.001h-.007l-.088-.002h-.01l-.034-.001h-.012a23.805 23.805 0 00-.043-.001l-.037-.001h-.007l-.044-.001h-.007l-.035-.001h-.014l-.03-.002h-.044l-.013-.001-.087-.002h-.008l-.035-.001h-.012l-.03-.002a4.404 4.404 0 00-.049 0l-.008-.001a42.338 42.338 0 00-.047-.001l-.04-.001h-.01l-.033-.002h-.013l-.033-.001h-.01a35.494 35.494 0 01-.088-.003h-.005l-.038-.001h-.011l-.033-.001h-.01l-.037-.002h-.007l-.089-.003h-.007l-.036-.001h-.01a24.908 24.908 0 01-.045-.002l-.037-.001h-.006l-.088-.003h-.008l-.036-.002h-.01l-.035-.001h-.009l-.04-.002h-.004l-.044-.002h-.003l-.04-.001h-.01l-.035-.002h-.009l-.037-.002h-.007l-.089-.003h-.006l-.037-.002h-.01l-.033-.001h-.012l-.036-.002h-.007l-.088-.004h-.008l-.034-.002h-.012l-.034-.001h-.01a85.08 85.08 0 01-.088-.004h-.002l-.04-.002h-.01l-.036-.002h-.007l-.04-.002h-.004l-.089-.004h-.008l-.036-.002h-.01l-.033-.002h-.011l-.038-.002h-.005l-.045-.002h-.001l-.041-.002h-.01l-.034-.002h-.012l-.033-.002h-.01l-.04-.002h-.003l-.045-.002h-.003l-.04-.002h-.01l-.034-.002h-.01l-.034-.002h-.01l-.087-.005h-.008l-.035-.002h-.012l-.03-.002h-.014l-.037-.003h-.005l-.044-.002h-.004l-.038-.002h-.013l-.03-.002-.014-.001-.032-.002h-.01l-.043-.002-.045-.003h-.005l-.038-.002h-.01l-.033-.002h-.012l-.035-.003h-.007a80.51 80.51 0 01-.087-.005h-.01l-.034-.002h-.011l-.034-.003h-.01l-.038-.002h-.005l-.044-.003h-.004l-.039-.002h-.01l-.033-.003h-.012l-.032-.002h-.011l-.042-.003-.045-.003h-.005l-.038-.002h-.01l-.034-.003h-.01l-.036-.003h-.008l-.087-.005h-.007l-.036-.003h-.01l-.034-.002-.01-.001-.04-.002h-.003l-.045-.003h-.002l-.04-.003h-.01a23.965 23.965 0 00-.046-.003l-.033-.002h-.01l-.087-.006h-.006l-.036-.003h-.013l-.03-.003h-.012l-.035-.003h-.008l-.087-.006h-.009l-.034-.003h-.011l-.033-.003h-.01l-.038-.003h-.006l-.043-.003h-.005l-.039-.003h-.009l-.035-.003h-.01a27.6 27.6 0 01-.035-.003h-.007l-.089-.006h-.004a31.402 31.402 0 01-.038-.003l-.01-.001-.033-.002-.012-.001-.032-.002-.011-.001-.043-.003h-.002l-.04-.003-.012-.001-.031-.002-.014-.001-.029-.002-.014-.001-.035-.003h-.007l-.043-.003-.009-.001-.033-.002-.013-.001-.03-.003h-.014l-.032-.003h-.01l-.042-.004a39.474 39.474 0 01-.043-.003h-.013l-.03-.003-.015-.001-.027-.002-.016-.001-.029-.003h-.013l-.042-.004h-.005a28.163 28.163 0 01-.052-.004l-.027-.002-.016-.001-.027-.002-.015-.002a22.578 22.578 0 01-.043-.003l-.041-.003-.012-.001a18.7 18.7 0 00-.03-.002l-.015-.001-.029-.003h-.014l-.03-.003-.013-.001-.034-.003h-.01l-.04-.004h-.011l-.03-.003-.016-.001-.029-.003h-.013c-.012-.002-.02-.003-.032-.003l-.01-.001-.043-.004h-.008l-.033-.003a5.415 5.415 0 01-.043-.004h-.016l-.027-.003-.016-.001-.032-.003h-.01a39.16 39.16 0 00-.041-.004l-.01-.001a24.843 24.843 0 01-.075-.006l-.015-.002-.03-.002-.012-.001-.084-.007-.015-.002-.027-.002-.017-.001-.026-.003h-.015l-.03-.004h-.013l-.04-.004-.013-.001-.029-.003a6.704 6.704 0 01-.043-.003l-.017-.002-.025-.002-.017-.002-.027-.002-.015-.001-.04-.004-.019-.002c-.007 0-.014 0-.022-.002a9.16 9.16 0 00-.042-.003l-.02-.002-.023-.002-.018-.002-.026-.002-.032-.003-.023-.002-.02-.002-.022-.002a8.63 8.63 0 00-.02-.002l-.022-.002-.02-.002-.02-.001-.022-.002-.025-.003-.033-.003-.021-.002-.022-.002c-.008 0-.011 0-.02-.002-.007 0-.014 0-.022-.002l-.019-.001-.022-.003-.02-.001-.022-.002-.036-.004-.024-.002-.018-.002-.023-.002-.017-.002-.024-.002-.018-.002-.024-.002-.013-.001-.048-.005-.017-.001-.022-.003-.019-.001-.024-.003-.016-.001-.025-.003-.014-.001a90.364 90.364 0 01-.093-.01h-.01l-.027-.003-.015-.001-.026-.003a4.26 4.26 0 00-.014-.001l-.026-.003-.013-.001-.092-.01h-.012l-.027-.003-.014-.002-.028-.002-.009-.001a77.38 77.38 0 01-.104-.01l-.001-.001-.032-.003-.008-.001-.03-.003-.01-.001-.03-.003-.008-.001a213.99 213.99 0 01-.1-.01l-.007-.001-.03-.003-.01-.001a17.18 17.18 0 01-.028-.003l-.012-.001-.03-.004h-.002l-.102-.01-.01-.002-.03-.003h-.01l-.03-.004h-.007l-.14-.016h-.006l-.033-.004h-.004a24.88 24.88 0 01-.034-.004h-.005l-.14-.016h-.008l-.032-.004h-.005l-.145-.017-.035-.004h-.005l-.034-.004h-.001l-.146-.017h-.003l-.034-.004h-.004l-.183-.021h-.001l-.036-.005h-.001c-1.953-.226-3.89-.5-5.812-.823A2 2 0 0196 224.08zm-36.835-13.099c.335 0 .674.084.986.262a110.559 110.559 0 0017.527 8.023 2 2 0 01-1.336 3.77 114.077 114.077 0 01-11.183-4.66h-.002l-.036-.017-.004-.002-.036-.017-.002-.002a25.924 25.924 0 01-.234-.112l-.002-.002-.036-.017a.607.607 0 01-.004-.002l-.035-.017-.004-.002-.033-.016-.007-.003-.033-.016-.004-.002-.115-.056-.007-.004-.031-.015-.01-.004a48.8 48.8 0 00-.027-.014l-.013-.006a17.24 17.24 0 00-.039-.02 8.521 8.521 0 01-.038-.019c-.007-.002-.015-.006-.022-.01l-.014-.007a36.186 36.186 0 01-.038-.018l-.027-.013-.01-.005a40.726 40.726 0 01-.037-.018l-.01-.006a22.6 22.6 0 01-.04-.02l-.024-.01-.018-.01-.02-.009-.017-.009-.019-.009-.018-.01c-.007-.002-.013-.005-.02-.009l-.017-.008a10.485 10.485 0 00-.037-.019l-.02-.01-.017-.008-.023-.011-.027-.013a15.705 15.705 0 01-.059-.03l-.023-.011a5.846 5.846 0 01-.014-.007l-.022-.011-.014-.007-.023-.012-.014-.006-.022-.011-.015-.008-.021-.01-.017-.009-.02-.01-.015-.007-.12-.06-.009-.004-.027-.014-.008-.004a46.76 46.76 0 01-.027-.014l-.01-.004a3.293 3.293 0 01-.036-.018c-.009-.005-.017-.01-.025-.013a3.41 3.41 0 00-.01-.006l-.028-.013-.005-.003-.17-.085-.032-.017-.004-.002-.03-.015-.006-.003-.03-.015-.005-.002-.031-.016-.002-.001a114.543 114.543 0 01-4.863-2.61 2 2 0 01.99-3.74zM29.01 186.073c.564 0 1.126.238 1.521.701a111.819 111.819 0 0013.748 13.522 2 2 0 11-2.548 3.084c-1.517-1.253-3-2.544-4.45-3.872l-.027-.026-.004-.003-.026-.024-.002-.001-.027-.026a114.204 114.204 0 01-.175-.16l-.023-.022-.005-.005-.024-.021-.006-.006-.023-.021-.007-.007a29.123 29.123 0 01-.022-.02l-.008-.007-.022-.02-.005-.005-.135-.126-.006-.004-.021-.02-.009-.008-.019-.018a7.622 7.622 0 01-.011-.01l-.019-.018-.01-.01-.02-.018-.01-.01-.02-.018-.011-.01-.017-.016-.015-.014-.015-.014-.014-.013-.016-.015-.011-.01-.032-.03-.016-.016-.013-.012-.017-.015-.015-.014a6.696 6.696 0 01-.015-.014l-.014-.014-.016-.015-.014-.012-.018-.017-.012-.011a9.553 9.553 0 01-.018-.017l-.012-.011-.02-.02-.01-.009-.021-.02-.009-.008-.026-.025-.004-.003-.062-.058-.003-.004a20.39 20.39 0 01-.027-.025l-.006-.006-.025-.023a2.379 2.379 0 00-.006-.006l-.024-.022a2.844 2.844 0 00-.007-.007l-.024-.023-.006-.005-.025-.024-.006-.006-.028-.026-.002-.002-.155-.146-.002-.003-.029-.027-.002-.002-.027-.026a.683.683 0 01-.005-.005l-.027-.025-.003-.003-.03-.028v-.001a115.512 115.512 0 01-8.086-8.522l-.028-.033-.06-.07a2 2 0 011.52-3.298zM9.135 152.396a2 2 0 011.874 1.3 110.632 110.632 0 008.315 17.39 2 2 0 11-3.445 2.033 116.697 116.697 0 01-2.363-4.201v-.002l-.017-.031-.003-.005-.016-.03-.003-.006-.016-.03-.002-.004-.016-.03-.002-.004-.088-.164-.003-.007-.014-.025-.006-.011-.013-.025-.006-.011-.013-.024-.006-.012-.013-.025-.005-.01a40.7 40.7 0 01-.084-.158l-.004-.008a17.606 17.606 0 01-.012-.024l-.007-.013a6.634 6.634 0 00-.011-.02l-.01-.018-.01-.02-.008-.015-.011-.022a4.876 4.876 0 01-.007-.013l-.012-.023-.007-.012-.012-.024-.007-.012-.042-.081-.007-.014a19.624 19.624 0 01-.01-.018l-.01-.019-.009-.017a22.79 22.79 0 00-.019-.037l-.01-.019-.01-.018-.01-.02-.008-.016-.01-.02-.01-.017a26.157 26.157 0 00-.01-.021l-.008-.015-.013-.026a4.854 4.854 0 00-.007-.012l-.018-.036a.703.703 0 01-.004-.006l-.015-.03-.007-.012-.013-.026a4.871 4.871 0 01-.006-.012l-.013-.024-.007-.014-.012-.024a3.555 3.555 0 01-.007-.013l-.012-.024-.007-.013-.014-.027-.005-.01-.016-.031-.003-.006-.04-.075c0-.002 0-.003-.002-.005l-.016-.033a3.283 3.283 0 01-.004-.007l-.015-.03-.006-.01-.014-.027-.005-.01-.014-.027a3.88 3.88 0 01-.005-.012l-.015-.028-.004-.008-.016-.03-.003-.008a128.603 128.603 0 01-.08-.156l-.018-.034-.002-.004-.017-.034-.002-.004a75.197 75.197 0 01-.02-.038l-.019-.038a114.185 114.185 0 01-5.143-11.692 2 2 0 011.875-2.696zm-7.13-38.447a2 2 0 012 1.98c.064 6.448.686 12.906 1.85 19.195a2 2 0 11-3.933.728 115.387 115.387 0 01-1.916-19.883 2 2 0 012-2.02zm6.362-38.587a2 2 0 011.887 2.664 110.36 110.36 0 00-4.78 18.671 2 2 0 01-3.948-.642c.166-1.01.345-2.013.537-3.013l.008-.043v-.003a101.766 101.766 0 01.043-.22l.008-.039.002-.01.006-.032.002-.01.007-.034.001-.009.007-.035.002-.007.007-.038.001-.005.017-.085.002-.01.006-.031c0-.005.002-.01.003-.014l.005-.027.003-.017.006-.026.002-.014.006-.029.003-.014.006-.03.002-.012.006-.032.004-.019.007-.032.003-.016.005-.024.004-.02.004-.021.004-.022.004-.018.005-.023.003-.018.005-.024.003-.015.005-.026.003-.011.02-.1.001-.007.006-.03.003-.01.006-.03.002-.01.006-.03.002-.01.006-.032.001-.004.007-.036.031-.15.002-.005.006-.033.002-.007.006-.032.002-.007.007-.034v-.002l.048-.23c.001-.003 0 .004 0 0l.008-.036v-.004c.666-3.164 1.461-6.28 2.38-9.343l.011-.035.002-.004.01-.034v-.004c.004-.012.008-.022.01-.034l.002-.004.055-.182v-.001l.01-.031.003-.01.009-.029.002-.008.01-.03c0-.004 0-.005.002-.008l.01-.031.001-.006a99.596 99.596 0 01.045-.146l.007-.025.005-.015.007-.024.005-.015.007-.024.005-.015.008-.025c0-.004.003-.01.004-.013l.008-.026.004-.013.027-.088.004-.014.007-.021a7.04 7.04 0 00.006-.02l.006-.02.006-.019.006-.021.006-.018.007-.022.005-.016.007-.023.006-.018.006-.021.01-.03.006-.021.009-.028.004-.013.008-.026.005-.017.008-.023.005-.017.007-.024.005-.015.009-.028a3.19 3.19 0 01.003-.011l.01-.03.003-.011.026-.081v-.004l.013-.037.002-.006.01-.034.003-.01.01-.031.003-.01.01-.033.003-.007.012-.037v-.003l.054-.166v-.003l.012-.037.002-.006.012-.037.001-.004c.333-1.039.68-2.074 1.042-3.1a2 2 0 011.884-1.33zm19.2-34.066a2 2 0 011.545 3.269 111.371 111.371 0 00-10.894 15.908 2 2 0 11-3.484-1.965 114.803 114.803 0 013.603-5.96l.003-.003.018-.029.003-.005.019-.028.003-.005.018-.029.004-.005.018-.028.004-.006.018-.028.002-.002.078-.121.006-.01.014-.021.009-.013.013-.02.01-.015.012-.019.01-.016.012-.018.011-.017.011-.017.012-.017.011-.018.01-.016a11.912 11.912 0 01.025-.037l.012-.018.02-.031.01-.015.012-.019.012-.018a11.31 11.31 0 01.022-.033l.012-.019.01-.015.013-.02.01-.015.012-.018.011-.018.012-.017.01-.016.014-.02.009-.014.019-.029.003-.005.047-.07.004-.006.02-.03.004-.007.018-.027.006-.01.017-.025.007-.01.017-.026.006-.009.018-.027.005-.008.019-.029.004-.005.02-.032.003-.003.071-.107.002-.002.021-.032.004-.007.02-.03.003-.004.021-.032.003-.003.022-.034c2.097-3.137 4.341-6.16 6.729-9.07a1.996 1.996 0 011.542-.724zm29.649-25.503a2 2 0 011.024 3.719 111.467 111.467 0 00-15.651 11.26 1.996 1.996 0 01-2.82-.212 2 2 0 01.207-2.817 115.182 115.182 0 014.636-3.783l.068-.053.033-.026.002-.001.033-.025.17-.132.002-.001.032-.024a.856.856 0 00.033-.026l.005-.004.028-.02.007-.006.029-.023.003-.002.032-.025h.002l.136-.105.002-.001.031-.024.004-.003.03-.023.005-.004.029-.022a.883.883 0 00.004-.003l.029-.022.006-.004.029-.023.004-.003.033-.025.103-.078.033-.025.006-.005.027-.02.007-.006.026-.02.009-.006.025-.019.008-.006.026-.02.008-.005.03-.022.002-.003c.035-.026.068-.05.102-.077.002 0 .003-.002.005-.003l.029-.022.007-.005.026-.02a4.738 4.738 0 01.034-.025l.009-.007.023-.017.011-.009.023-.017.01-.007.024-.018.01-.007.026-.02.007-.005.027-.021.006-.005.034-.025h.001l.033-.025.007-.005.026-.02.01-.007.023-.017.01-.008.024-.018.01-.007.024-.018a2.412 2.412 0 01.034-.025l.009-.007.023-.017.012-.009.027-.02.005-.003.068-.051.004-.003.029-.021.01-.007.024-.018.01-.008.022-.017.012-.009c.006-.004.016-.01.021-.015l.014-.01.018-.014.015-.01.02-.016.013-.009.024-.017.009-.007.033-.024.068-.05.006-.005.027-.02.01-.008c.006-.004.018-.012.023-.017l.012-.008.022-.016.013-.01.02-.014.013-.01.02-.015.014-.01.022-.016.01-.008.023-.016.012-.009.065-.048.014-.01.02-.014.016-.012.016-.012.017-.012.018-.013.014-.01.02-.015.013-.01.022-.015.012-.009.02-.014.014-.01.02-.016.013-.009.026-.019.007-.005.034-.024.009-.007.024-.017.015-.01.018-.014.014-.01.02-.015.014-.01.02-.014.013-.01.02-.014.015-.011.019-.014.014-.01.019-.014.015-.01.018-.014.015-.01.019-.014.026-.019.022-.016.011-.008.022-.015.016-.012.017-.012.017-.012.016-.012.017-.012.017-.013.016-.01.017-.013.017-.012.017-.012a16.079 16.079 0 00.032-.023l.018-.013.016-.011.018-.013.008-.006.044-.031.013-.01.018-.013.015-.01.02-.014.013-.01.02-.014.013-.01.02-.014.014-.01.019-.013.014-.01a17.77 17.77 0 00.03-.022l.024-.016.006-.005.117-.083.006-.004.025-.018.008-.006.022-.015.013-.009.021-.015.011-.008.022-.015.012-.009.02-.014.014-.01.02-.014a10.967 10.967 0 00.034-.024l.008-.006a70.7 70.7 0 01.078-.054l.012-.009.02-.015a5.606 5.606 0 00.035-.023l.01-.008.024-.016.01-.007.022-.016.011-.008.022-.015.011-.008.023-.015c.002-.003.007-.005.01-.008l.023-.016.008-.005.025-.018.006-.004.116-.081.009-.006.024-.017.009-.006.023-.016.011-.008.022-.016.01-.007.023-.016.01-.007.025-.017.005-.003.156-.108.03-.02.004-.004.026-.018.008-.005.026-.018.006-.005.026-.018.007-.004.027-.02.003-.001.03-.021.161-.11.03-.02.004-.004.03-.02.002-.002.03-.02.003-.002a114.93 114.93 0 016.196-3.96 1.99 1.99 0 011.02-.282zM93.788 1.957a2 2 0 01.369 3.965 110.303 110.303 0 00-18.554 5.216 1.995 1.995 0 01-2.579-1.162 2 2 0 011.163-2.579c1.06-.401 2.129-.787 3.203-1.158h.004l.034-.013h.002l.035-.012.002-.001.145-.05.033-.011.006-.002.028-.01a3.402 3.402 0 00.038-.013l.011-.004.027-.009c.004 0 .009-.003.012-.004l.027-.01c.004 0 .005 0 .008-.002l.1-.033.005-.002.026-.01.012-.003.025-.009c.004 0 .011-.003.015-.005l.024-.008.014-.005a22.033 22.033 0 00.04-.013l.023-.008.019-.006.019-.007.022-.007.02-.007.036-.012.013-.004.026-.01a5.04 5.04 0 00.014-.004l.027-.009.014-.004.025-.009.016-.005.025-.008.014-.005.027-.01.012-.003.033-.011.007-.003.081-.027a.572.572 0 00.005-.001l.035-.012.01-.003.03-.01.012-.004.027-.01c.005 0 .009-.002.014-.004l.03-.01.008-.003.035-.011.005-.002.165-.054.004-.001.037-.013.005-.001.037-.012.004-.002.208-.068.04-.013h.003l.038-.013.004-.001.039-.013h.002a113.87 113.87 0 015.591-1.659l.043-.011.042-.012h.002l.213-.057.041-.011.005-.001.039-.01.002-.001.04-.011h.003l.17-.045.003-.001.038-.01.007-.002.034-.009.01-.003.031-.008.01-.002.034-.01.007-.001.125-.033.008-.002.033-.008.012-.004.03-.007.013-.004.026-.007.015-.003a13.7 13.7 0 00.027-.007l.015-.004.028-.007.012-.004a25.56 25.56 0 01.042-.01l.04-.01.019-.006.02-.005.02-.005a10.596 10.596 0 01.042-.01c.007-.003.012-.004.019-.005l.022-.006.018-.005.023-.006.018-.004.021-.006.02-.005.094-.024h.004l.027-.007.014-.004.025-.006a5.255 5.255 0 01.04-.01l.016-.004.024-.007.015-.003.025-.007.016-.004.025-.006.007-.002.104-.026.004-.001.033-.008.007-.002.03-.008c.004 0 .006 0 .01-.002l.03-.008.008-.001.031-.008.007-.002.221-.055h.004l.035-.01h.004l.034-.009.005-.001c2.03-.5 4.08-.946 6.15-1.336.126-.024.25-.035.373-.035zM114.821 0H114.878a19.95 19.95 0 00.09 0h.19a17.034 17.034 0 00.046 0h.087l.03.001H115.481l.028.001h.146l.01.001h.094l.029.001a4.99 4.99 0 01.06 0h.043l.043.001H115.992l.03.001h.059l.03.001H116.167l.044.001H116.255l.017.001h.07l.018.001h.043l.03.001H116.49l.008.001h.05l.028.001h.044l.017.001h.044l.032.001h.01l.044.001h.043l.017.001h.044l.027.001h.017l.026.001h.018l.027.001h.016l.042.001a3.306 3.306 0 00.043 0l.017.001h.027l.018.001h.026a6.652 6.652 0 00.044.002h.06l.043.002H117.38l.029.002h.062l.025.002h.061l.042.002h.016l.028.001h.017l.025.001h.02l.023.001h.02l.023.001h.022l.024.001h.017l.042.002h.015l.028.001h.019l.024.001h.02l.024.001h.02l.021.001.022.001h.023l.02.001.04.001.023.001h.02l.022.001a9.665 9.665 0 01.043.001l.021.001h.021l.023.001.02.001h.024l.019.001.04.002h.044l.021.002h.043l.022.002a8.882 8.882 0 00.045.001h.018l.028.002h.015l.042.001.018.001h.024l.02.002h.023l.021.001h.022l.02.001.024.001.02.001h.026l.016.001.042.002h.018l.025.001.02.001.022.001h.022l.021.002h.022l.021.001h.021l.024.002h.024a26.543 26.543 0 00.058.003h.02l.023.002h.02l.022.001.02.001h.023l.02.002h.023l.02.001.035.002h.027l.02.002h.023l.021.001.021.001.023.001.021.001.02.001h.023l.021.002h.023l.043.003h.016l.024.001.02.001.021.001.022.001.021.001h.02l.024.002h.017l.026.002h.011l.06.003h.01a13.907 13.907 0 01.042.002l.025.001.017.001.025.001.02.001.022.001.019.001.024.001a3 3 0 00.012 0l.097.005.014.001.026.001.016.001.027.001.015.001.027.001.013.001.03.002.112.005h.007l.033.002h.008l.032.002h.01l.031.002h.01l.032.002.11.006h.01l.029.002h.013l.028.002a4.413 4.413 0 00.054.003l.139.008h.012l.029.002h.013l.028.002.014.001.028.002h.012l.143.008h.006l.033.003h.01l.03.002h.01l.031.002h.009l.142.01h.011l.03.002h.01l.033.002h.007l.034.003h.003l.151.01h.005c.01 0 .021 0 .032.002h.01l.032.002h.007l.034.003h.004l.148.01h.008l.032.002h.009l.03.003h.01l.033.002h.004l.15.01h.004c.011.002.023.002.034.003h.008l.033.003h.006l.035.003h.002l.155.01.038.003h.002l.037.003h.002l.232.016h.003l.037.003h.002l.233.017.039.003.233.018h.002l.544.043h.001a114.9 114.9 0 0110.413 1.329h.002l.036.006h.001a2 2 0 01-.688 3.94A111.924 111.924 0 00114.82 4a113.476 113.476 0 00-1.504.01 2 2 0 01-.033-4c.25-.003.496-.006.747-.007h.091l.007-.001h.192l.031-.001H114.68l.021-.001h.12z" class="cls-23" transform="translate(876.179 664.179)"/></g></g></g><rect id="Rectangle_294" width="258.467" height="174.207" class="cls-11" rx="11.558" transform="translate(993.356 463.158)"/><path id="Rectangle_295" d="M0 0h239.858v153.53H0z" class="cls-2" transform="translate(1002.661 473.496)"/><path id="Rectangle_296" d="M0 0h239.858v14.388H0z" class="cls-12" transform="translate(1002.661 473.496)"/><path id="Rectangle_297" d="M0 0h239.858v16.887H0z" class="cls-13" transform="translate(1002.661 487.885)"/><g id="Group_579" transform="translate(1219.917 478.437)"><g id="Group_574"><g id="Group_571"><circle id="Ellipse_43" cx="1.982" cy="1.982" r="1.982" class="cls-14"/></g><g id="Group_572" transform="translate(6.376)"><path id="Path_595" d="M557.379 194.11a1.981 1.981 0 11-1.982-1.981 1.982 1.982 0 011.982 1.981z" class="cls-14" transform="translate(-553.416 -192.129)"/></g><g id="Group_573" transform="translate(12.751)"><path id="Path_596" d="M567.043 194.11a1.981 1.981 0 11-1.982-1.981 1.982 1.982 0 011.982 1.981z" class="cls-14" transform="translate(-563.08 -192.129)"/></g></g></g><path id="Rectangle_300" d="M0 0h124.064v7.409H0z" class="cls-2" transform="translate(1010.932 492.709)"/><path id="Rectangle_298" d="M0 0h19.471v7.409H0z" class="cls-11" transform="translate(1134.996 492.709)"/><path id="Rectangle_299" d="M0 0h73.701v5.779H0z" class="cls-11" transform="translate(1098.274 656.509)"/><path id="Rectangle_301" d="M0 0h15.404v26.33H0z" class="cls-11" transform="translate(1127.423 633.068)"/><g id="Group_563" transform="translate(1273.448 610.875)"><g id="Group_557" transform="translate(7.808 2.597)"><path id="Path_581" d="M716.8 359.42h-97.07v.051c3.946.507 7.036 5.071 7.036 10.629v.52c0 5.559-3.089 10.121-7.036 10.629v.051h97.07c4.289 0 7.768-4.782 7.768-10.68v-.52c.004-5.9-3.474-10.68-7.768-10.68z" class="cls-2" transform="translate(-619.73 -359.42)"/></g><g id="Group_558" transform="translate(7.808 2.597)"><path id="Path_582" d="M626.726 369.034h97.806c-.389-5.4-3.7-9.614-7.728-9.614H619.73v.051c3.691.475 6.631 4.497 6.996 9.563z" class="cls-15" transform="translate(-619.73 -359.42)"/></g><path id="Path_583" d="M709.714 355.484h-101.82v4.42h101.82a8.84 8.84 0 110 17.68h-101.82v4.421h101.82a13.261 13.261 0 100-26.521z" class="cls-16" transform="translate(-607.894 -355.484)"/><g id="Group_560" transform="translate(10.24 29.118)"><g id="Group_559"><path id="Path_584" d="M631.183 399.621h97.074v.051c-3.946.507-7.036 5.071-7.036 10.629v.52c0 5.559 3.089 10.121 7.036 10.629v.051h-97.074c-4.29 0-7.767-4.782-7.767-10.68v-.52c0-5.901 3.477-10.68 7.767-10.68z" class="cls-2" transform="translate(-623.416 -399.621)"/></g></g><g id="Group_562" transform="translate(10.279 29.118)"><g id="Group_561"><path id="Path_585" d="M721.281 409.235h-97.806c.389-5.4 3.7-9.614 7.728-9.614h97.074v.051c-3.69.475-6.631 4.497-6.996 9.563z" class="cls-15" transform="translate(-623.475 -399.621)"/></g></g><path id="Path_586" d="M632.991 395.685h101.821v4.42H632.991a8.84 8.84 0 000 17.68h101.821v4.421H632.991a13.261 13.261 0 110-26.521z" class="cls-11" transform="translate(-611.922 -369.164)"/><path id="Path_587" d="M649.432 374.3l-4.089-2.652-4.089 2.652v-12.159h8.177z" class="cls-17" transform="translate(-619.246 -357.749)"/></g><path id="Rectangle_277" fill="#28343c" d="M0 0h17.128v1.879H0z" transform="translate(707.523 595.772)"/><g id="Group_570" transform="translate(550 609.118)"><g id="Group_564" transform="translate(7.808 2.597)"><path id="Path_588" d="M90.2 352.151H-6.872v.051c3.946.507 7.036 5.071 7.036 10.629v.52c0 5.559-3.089 10.121-7.036 10.629v.051H90.2c4.289 0 7.768-4.782 7.768-10.68v-.52c.002-5.898-3.476-10.68-7.768-10.68z" class="cls-2" transform="translate(6.872 -352.151)"/></g><g id="Group_565" transform="translate(7.808 2.597)"><path id="Path_589" d="M.124 361.765H97.93c-.389-5.4-3.7-9.614-7.728-9.614H-6.872v.051c3.691.475 6.631 4.498 6.996 9.563z" class="cls-15" transform="translate(6.872 -352.151)"/></g><path id="Path_590" d="M83.112 348.215h-101.82v4.42h101.82a8.84 8.84 0 110 17.68h-101.82v4.421h101.82a13.261 13.261 0 100-26.521z" class="cls-11" transform="translate(18.708 -348.215)"/><g id="Group_567" transform="translate(10.24 29.118)"><g id="Group_566"><path id="Path_591" d="M4.581 392.352h97.074v.051c-3.946.507-7.036 5.071-7.036 10.629v.52c0 5.559 3.089 10.121 7.036 10.629v.051H4.581c-4.289 0-7.767-4.782-7.767-10.68v-.52c0-5.898 3.477-10.68 7.767-10.68z" class="cls-15" transform="translate(3.186 -392.352)"/></g></g><g id="Group_569" transform="translate(10.279 29.118)"><g id="Group_568"><path id="Path_592" d="M94.679 401.966H-3.127c.389-5.4 3.7-9.614 7.728-9.614h97.074v.051c-3.691.475-6.631 4.497-6.996 9.563z" class="cls-2" transform="translate(3.127 -392.352)"/></g></g><path id="Path_593" d="M6.389 388.416H108.21v4.42H6.389a8.84 8.84 0 100 17.68H108.21v4.421H6.389a13.261 13.261 0 110-26.521z" class="cls-16" transform="translate(14.68 -361.895)"/><path id="Path_594" d="M22.83 367.028l-4.089-2.652-4.089 2.652v-12.156h8.178z" class="cls-17" transform="translate(7.356 -350.48)"/></g><rect id="Rectangle_278" width="258.467" height="174.207" class="cls-11" rx="11.558" transform="translate(697.803 463.158)"/><path id="Rectangle_279" d="M0 0h239.858v153.53H0z" class="cls-2" transform="translate(707.108 473.496)"/><path id="Rectangle_280" d="M0 0h239.858v14.388H0z" class="cls-12" transform="translate(707.108 473.496)"/><path id="Rectangle_281" d="M0 0h239.858v16.887H0z" class="cls-17" transform="translate(707.108 487.885)"/><g id="Group_575" transform="translate(885.44 479.097)"><g id="Group_574-2"><g id="Group_571-2"><circle id="Ellipse_43-2" cx="1.982" cy="1.982" r="1.982" class="cls-14"/></g><g id="Group_572-2" transform="translate(6.376)"><path id="Path_595-2" d="M557.379 194.11a1.981 1.981 0 11-1.982-1.981 1.982 1.982 0 011.982 1.981z" class="cls-14" transform="translate(-553.416 -192.129)"/></g><g id="Group_573-2" transform="translate(12.751)"><path id="Path_596-2" d="M567.043 194.11a1.981 1.981 0 11-1.982-1.981 1.982 1.982 0 011.982 1.981z" class="cls-14" transform="translate(-563.08 -192.129)"/></g></g></g><path id="Rectangle_282" d="M0 0h124.064v7.409H0z" class="cls-2" transform="translate(715.379 492.709)"/><path id="Rectangle_283" d="M0 0h19.471v7.409H0z" class="cls-11" transform="translate(839.443 492.709)"/><path id="Path_597" d="M265.47 280.409l7.216 5.064-7.216 4.5z" class="cls-19" transform="translate(474.646 256.928)"/><path id="Path_598" d="M265.47 363.141l7.216 5.064-7.216 4.5z" class="cls-19" transform="translate(474.646 228.776)"/><g id="Group_578" transform="translate(1328.697 548.241)"><path id="Rectangle_284" d="M0 0h5.622v6.806H0z" class="cls-2" transform="translate(12.204 8.403)"/><path id="Rectangle_285" d="M0 0h5.622v26.632H0z" class="cls-13" transform="translate(12.204 15.209)"/><path id="Rectangle_286" d="M0 0h5.622v6.806H0z" class="cls-2" transform="rotate(11.766 -14.027 122.3)"/><path id="Rectangle_287" d="M0 0h5.622v26.632H0z" class="cls-17" transform="rotate(11.766 -47.053 118.896)"/><path id="Rectangle_288" d="M0 0h5.622v6.806H0z" class="cls-2" transform="rotate(-12.791 5.554 .623)"/><path id="Rectangle_289" d="M0 0h5.622v26.632H0z" class="cls-17" transform="rotate(-12.791 35.913 -2.781)"/><path id="Rectangle_290" d="M0 0h5.622v6.806H0z" class="cls-2" transform="rotate(25.326 13.666 87.086)"/><path id="Rectangle_291" d="M0 0h5.622v26.632H0z" class="cls-13" transform="rotate(25.326 -1.48 83.682)"/><g id="Group_576" transform="translate(2.444 28.373)"><path id="Path_599" d="M723.983 337.817h-23.01l-5.627-34.265h34.265z" class="cls-12" transform="translate(-695.346 -303.552)"/></g><g id="Group_577" transform="translate(2.444 28.373)"><path id="Path_600" d="M703.887 303.552h-8.542l5.627 34.265h7.7z" class="cls-12" transform="translate(-695.346 -303.552)"/></g></g><path id="Rectangle_292" d="M0 0h73.701v5.779H0z" class="cls-11" transform="translate(790.186 656.509)"/><path id="Rectangle_293" d="M0 0h15.404v26.33H0z" class="cls-11" transform="translate(819.335 633.068)"/><path id="Path_607" fill="#53c2e0" d="M1683.665 1037.446l-14.683-16.01s-11.279-11.912 1.038-22.507c.435-.189.86-.355 1.376-.535 11.062-3.871 15.835 7.122 15.835 7.122s3.553-12.816 16.979-8.978 13.27 13.179 8.178 19.629-28.723 21.279-28.723 21.279z" opacity=".455" transform="translate(-862.97 -453.821)"/><path id="Path_610" fill="#fe9f04" d="M1683.665 1037.446l-14.683-16.01s-11.279-11.912 1.038-22.507c.435-.189.86-.355 1.376-.535 11.062-3.871 15.835 7.122 15.835 7.122s3.553-12.816 16.979-8.978 13.27 13.179 8.178 19.629-28.723 21.279-28.723 21.279z" opacity=".455" transform="translate(-570.97 -453.821)"/></g></svg>
