<svg xmlns="http://www.w3.org/2000/svg" width="1157.932" height="406.001"><defs><style>.cls-1{fill:#fff}.cls-3{fill:#50bad7}.cls-5{fill:#e6e7e7}.cls-6{fill:#003d64}.cls-7{fill:#37474f}.cls-8{fill:#f59904}.cls-11{fill:#eee}.cls-12{fill:#a8dbe9}.cls-13{fill:#b2ebf2}.cls-14{fill:#80deea}.cls-15{fill:#4fb9d5}.cls-16{fill:#455a64}.cls-17{fill:#fbc02d}</style></defs><g id="Group_1735" transform="translate(-306.291 -242.273)"><g id="Group_514" transform="translate(306.291 242.273)"><path id="Path_471" d="M1403.706 597.422s47.674 33.938 42.062 82.413 13.865 74.746 13.865 74.746L301.7 757.111c20.594-6.692 43.068-11.9 56.311-23.27 30.327-26.058-8.527-63.215 8.125-93.425 20.111-36.46 108.87-44.988 130.872-81.047 10.412-17.085-.46-33.435 3.852-50.761 3.9-15.681 16.24-30.662 35.308-41.645 15.452-8.9 35.413-15.7 44.656-27.318 8.776-11.029 5.927-24.031 10.069-36.005 5.2-15.028 22.593-28.134 45.029-35.214 21.387-6.749 57.354-9.337 80.313-4.833 28.79 5.648 55.009 21.916 76.824 34.1 19.1 10.668 38.031 13.472 64.011 10.05 55.68-7.334 96.758-36.757 148.828-49.557a235.173 235.173 0 0134.094-5.882c27.069-2.546 56.823 1.037 76.512 12.523 17.859 10.426 25.249 25.7 39.991 37.769 30.377 24.882 93.767 31.477 119 58.25 24.686 26.185 9.824 60.584 32.922 87 19.541 22.349 64.851 32.811 95.289 49.576z" class="cls-1" transform="translate(-301.7 -351.11)"/><path id="Path_472" d="M1211.671 431.286c3.854.678 8.217.818 11.251-1.653 2.737-2.229 3.648-6.008 3.844-9.532 1-17.989-32.993-67.941-50.786-41.766-16.08 23.647 15.535 49.408 35.691 52.951z" class="cls-1" transform="translate(-203.784 -370.902)"/></g><path id="Rectangle_249" fill="#53c1df" d="M0 0h191.364v207.991H0z" transform="translate(780.926 423.599)"/><path id="Rectangle_250" d="M0 0h24.68v42.64H0z" class="cls-3" transform="translate(864.268 423.599)"/><g id="Group_522" transform="translate(997.431 469.149)"><path id="Rectangle_251" fill="#212121" d="M0 0h43.699v27.651H0z" transform="rotate(180 33.349 65.75)"/><path id="Path_477" d="M1009.78 923.21h-252.5a4.388 4.388 0 01-4.037-6.109l12.64-29.663h241.614z" class="cls-5" transform="translate(-690.035 -778.235)"/><path id="Path_478" d="M1026.784 893.091v20.329a4 4 0 01-4 4h-42.869a27.44 27.44 0 10-54.266 0H789.833a27.44 27.44 0 10-54.266 0h-4.645a4 4 0 01-4-4v-20.386H677.5v-24.39h320.252l4.452 3.139 11.258 17.3h9.318a4 4 0 014.004 4.008z" class="cls-6" transform="translate(-666.827 -772.448)"/><path id="Path_479" d="M698.351 868.644H687.53v44.776a4 4 0 004 4h2.813a4 4 0 004-4z" class="cls-7" transform="translate(-669.914 -772.448)"/><path id="Path_480" d="M678.919 868.644h-8.947a1.875 1.875 0 00-1.874 1.875v23.616a3.5 3.5 0 003.5 3.5h3.818a3.5 3.5 0 003.5-3.5z" class="cls-7" transform="translate(-663.931 -772.448)"/><path id="Path_481" d="M665.008 875.345a2.929 2.929 0 00-2.93 2.929v9.839a2.93 2.93 0 002.93 2.93 2.93 2.93 0 002.93-2.93v-9.839a2.93 2.93 0 00-2.93-2.929z" class="cls-8" transform="translate(-662.078 -774.511)"/><path id="Path_482" d="M978.517 909.311a27.24 27.24 0 00-5.134 11.859H837.391a27.256 27.256 0 00-5.134-11.859z" class="cls-1" transform="translate(-714.473 -784.969)"/><path id="Path_483" fill="#e4e5e5" d="M982.691 893.112l-.183-11.395h-305v11.394z" transform="translate(-666.827 -776.473)"/><path id="Path_484" fill="#dedfdf" d="M1091.892 846.3h33a3.146 3.146 0 003.146-3.146v-39.176a3.141 3.141 0 00-.4-1.542l-3.22-5.727-36.494-64.809a4.052 4.052 0 00-3.519-2.069l-48.24-.175a3.146 3.146 0 00-3.146 3.146v93.043h43.871a3.146 3.146 0 012.755 1.627l9.491 17.2a3.147 3.147 0 002.756 1.628z" transform="translate(-776.283 -729.657)"/><path id="Path_485" d="M1083.948 736.358h-34a3.146 3.146 0 00-3.146 3.146v48.6a3.745 3.745 0 003.749 3.745l35.624-.029a3.13 3.13 0 01.8.1l24.191 6.345a3.145 3.145 0 003.627-4.42c-6.43-13.18-21.5-43.9-28.093-55.866a3.141 3.141 0 00-2.752-1.621z" class="cls-6" transform="translate(-780.527 -731.72)"/><path id="Path_486" d="M1158.479 851.741v20.611a1.611 1.611 0 00.472 1.137l4.738 4.738a1.609 1.609 0 001.136.471h2.719a1.605 1.605 0 001.606-1.606v-14.614c0-7.221-3.969-11.434-8.751-12.316a1.615 1.615 0 00-1.92 1.579z" class="cls-11" transform="translate(-814.91 -766.75)"/><path id="Path_487" d="M1158.477 851.736v11.284h10.671v-.548a16.693 16.693 0 00-.193-2.633 11.361 11.361 0 00-5.2-8.414 10.039 10.039 0 00-3.373-1.271 1.61 1.61 0 00-1.905 1.582z" class="cls-8" transform="translate(-814.909 -766.747)"/><circle id="Ellipse_42" cx="23.374" cy="23.374" r="23.374" class="cls-7" transform="rotate(-67.5 242.578 -114.374)"/><path id="Path_488" d="M790.2 946.15a23.374 23.374 0 10-23.374-23.374A23.4 23.4 0 00790.2 946.15z" class="cls-7" transform="translate(-694.329 -781.918)"/><path id="Path_489" d="M1067.889 942.343a16.514 16.514 0 10-16.514-16.515 16.533 16.533 0 0016.514 16.515z" class="cls-11" transform="translate(-781.935 -784.97)"/><path id="Path_490" d="M1070.689 938.848a10.219 10.219 0 10-10.219-10.219 10.23 10.23 0 0010.219 10.219z" class="cls-1" transform="translate(-784.735 -787.77)"/><path id="Path_491" d="M793.255 942.343a16.514 16.514 0 10-16.515-16.515 16.533 16.533 0 0016.515 16.515z" class="cls-11" transform="translate(-697.38 -784.97)"/><g id="Group_518" transform="translate(153.226 126.972)"><g id="Group_516" transform="translate(62.3)"><path id="Path_492" d="M973.477 916.736c0 2 2.958 3.625 6.606 3.625s6.606-1.623 6.606-3.625-2.957-3.625-6.606-3.625-6.606 1.623-6.606 3.625z" class="cls-8" transform="translate(-973.477 -913.111)"/></g><g id="Group_517"><path id="Path_493" d="M883.464 916.736c0 2 2.957 3.625 6.606 3.625s6.606-1.623 6.606-3.625-2.957-3.625-6.606-3.625-6.606 1.623-6.606 3.625z" class="cls-8" transform="translate(-883.464 -913.111)"/></g></g><g id="Group_519" transform="translate(85.768 130.455)"><path id="Path_494" d="M791.412 937.38a10.219 10.219 0 10-4.216-13.823 10.229 10.229 0 004.216 13.823z" class="cls-1" transform="translate(-785.998 -918.143)"/></g><path id="Path_495" d="M1113.222 736.358a2.412 2.412 0 00-2.141 3.529c7.6 14.544 25.626 46.251 31.588 56.7a4.818 4.818 0 005.692 2.189z" class="cls-6" transform="translate(-800.231 -731.72)"/><path id="Path_496" d="M1167.307 877.383c0 2.673.765 4.839 1.708 4.839s1.707-2.166 1.707-4.839-.764-4.839-1.707-4.839-1.708 2.167-1.708 4.839z" class="cls-1" transform="translate(-817.628 -773.649)"/><path id="Path_497" d="M1160.134 875.6c0 1.687.765 3.055 1.707 3.055s1.708-1.368 1.708-3.055-.765-3.055-1.708-3.055-1.707 1.367-1.707 3.055z" class="cls-1" transform="translate(-815.419 -773.649)"/><path id="Path_498" d="M1162.6 858.67c0 2.069.938 3.746 2.094 3.746s2.094-1.677 2.094-3.746-.937-3.746-2.094-3.746-2.094 1.676-2.094 3.746z" class="cls-8" transform="translate(-816.179 -768.224)"/><path id="Path_499" d="M1109.936 767.992c-1.188-2.168-3.7-3.265-6.135-3.814a2.155 2.155 0 00-2.611 2.114v23.274a2.16 2.16 0 002.161 2.16H1110a2.16 2.16 0 002.159-2.092c.161-4.907.275-17.08-2.223-21.642z" class="cls-5" transform="translate(-797.271 -740.269)"/><g id="Group_520" transform="translate(307.005 47.281)"><path id="Path_500" d="M1107.348 808.154l23.637.957-1.962-3.508h-19.111a.956.956 0 01-.956-.956v-6.677h-3.305l.784 9.308a.955.955 0 00.913.876z" class="cls-5" transform="translate(-1105.65 -797.97)"/></g><g id="Group_521" transform="translate(332.419 126.972)"><path id="Path_501" d="M1142.368 916.736c0 2 2.957 3.625 6.606 3.625s6.605-1.623 6.605-3.625-2.957-3.625-6.605-3.625-6.606 1.623-6.606 3.625z" class="cls-8" transform="translate(-1142.368 -913.111)"/></g><path id="Path_502" d="M1047.085 839.141a2.628 2.628 0 01-2.629-2.628v-8.966a2.629 2.629 0 012.629-2.629 2.629 2.629 0 012.628 2.629v8.966a2.628 2.628 0 01-2.628 2.628z" class="cls-7" transform="translate(-779.804 -758.986)"/></g><g id="Group_523" transform="translate(563.617 496.223)"><path id="Path_503" d="M691.389 590.578s14.876-28.07 3.924-62.809-29.234-19.077-16.664 8.959a149.324 149.324 0 0112.74 53.85z" class="cls-12" transform="translate(-628.323 -490.839)"/><path id="Path_504" d="M671.133 596.278s5.3-36.235-20.2-54.263-55.186-22.664-36.4-2.313 24.591 29.056 16.466 29.8-17.013 12.98 7.383 12.684c24.418-.291 32.751 14.092 32.751 14.092z" class="cls-12" transform="translate(-608.067 -496.539)"/><path id="Path_505" d="M670.892 583.018s8.777-50.415-32.731-87.592c-36.922-33.07-42.574 9.172-3.391 34.245 29.891 19.129 36.122 53.347 36.122 53.347z" class="cls-6" transform="translate(-607.825 -483.278)"/><path id="Path_506" d="M710.946 613.195l-8.16 44.5h-47.079l-8.16-44.5z" class="cls-13" transform="translate(-620.055 -523.277)"/><path id="Path_507" d="M724.61 613.195l-8.16 44.5h-16.362l-8.16-44.5z" class="cls-14" transform="translate(-633.719 -523.277)"/></g><path id="Rectangle_252" d="M0 0h164.931v132.168H0z" class="cls-12" transform="translate(663.409 499.422)"/><path id="Rectangle_253" d="M0 0h21.27v37.31H0z" class="cls-3" transform="translate(735.239 594.28)"/><path id="Rectangle_254" d="M0 0h21.27v42.916H0z" class="cls-3" transform="translate(735.239 499.422)"/><path id="Rectangle_255" d="M0 0h161.848v91.262H0z" class="cls-15" transform="translate(765.28 540.328)"/><g id="Group_526" transform="translate(522.072 545.226)"><path id="Rectangle_257" d="M0 0h3.509v66.666H0z" class="cls-16" transform="translate(14.395 18.925)"/><path id="Rectangle_258" d="M0 0h1.863v18.501H0z" class="cls-16" transform="rotate(90 -29.164 54.563)"/><path id="Path_516" d="M777.629 471.988h-32.3l1.062-3.724.575-2.008 6.215-21.746h16.594l6.215 21.746.575 2.008z" class="cls-6" transform="translate(-745.331 -444.509)"/><path id="Path_517" d="M777.039 477.937h-30.173l.575-2.008h29.023z" class="cls-12" transform="translate(-745.804 -454.183)"/></g><g id="Group_527" transform="translate(421.02 592.689)"><path id="Path_518" d="M808.144 551.944s-4.551 10.729-3.82 11.216 8.046-9.509 8.046-9.509z" class="cls-16" transform="translate(-798.066 -523.982)"/><path id="Path_519" d="M912.4 551.944s4.551 10.729 3.82 11.216-8.046-9.509-8.046-9.509z" class="cls-16" transform="translate(-830.062 -523.982)"/><path id="Path_520" d="M885.067 543.731h-83.55s-1.908-29.106 0-30.884 81.713-1.7 83.55 0 0 30.884 0 30.884z" class="cls-14" transform="translate(-796.965 -511.543)"/><path id="Rectangle_259" d="M1.47 0h6.163A1.47 1.47 0 019.1 1.47v18.686H0V1.47A1.47 1.47 0 011.47 0z" class="cls-13" transform="translate(0 12.033)"/><path id="Rectangle_260" d="M1.47 0h6.163A1.47 1.47 0 019.1 1.47v18.686H0V1.47A1.47 1.47 0 011.47 0z" class="cls-13" transform="translate(83.55 12.033)"/><path id="Rectangle_261" d="M0 0h83.55v12.679H0z" class="cls-13" transform="translate(4.551 19.51)"/></g><g id="Group_528" transform="translate(461.566 571.455)"><path id="Path_521" d="M924.062 711.429a39.764 39.764 0 006.243 7.424c4.53 3.964 2.477 6.846 2.251 7.526s-2.378 1.359-2.378 1.925 4.19.68 4.756-.226 1.26-7.525.694-8.884-2.492-3.85-1.925-7.7c.368-2.507-9.641-.065-9.641-.065z" class="cls-1" transform="translate(-908.612 -688.238)"/><path id="Path_522" d="M909.4 712s-6.115 5.21-6.115 6.229 3.963 5.436 4.643 5.889 2.492-.793 2.605-1.359-2.378-1.472-2.718-2.038a6.035 6.035 0 01-.88-1.854c-.156-.724 5.41-4.148 5.41-4.148z" class="cls-1" transform="translate(-902.214 -688.742)"/><path id="Path_523" d="M904.334 701.188c.253.783 2.832 6.906 4.872 8.379 1.341.968 10.409.267 16.824-.649a80.408 80.408 0 002.786-.44 12.456 12.456 0 003.6-.948 2.51 2.51 0 00.695-1.371c.474-2.025.015-5.448-1.373-7.011-1.811-2.04-11.664.678-14.156.112l-.1-.024a12.245 12.245 0 01-3.08-1.556l-.542-.355c-2.159-1.451-4.208-3.16-4.208-3.16l-5.55-1.471s-.23 7.047.232 8.494z" class="cls-1" transform="translate(-902.45 -682.798)"/><path id="Path_524" d="M940.568 700.067s2.486-8.683-2.04-10.113c-4.173-1.318-9.852 5.809-6 8.867s5.889.453 5.889.453-3.284-2.038-2.378-3.4 3.284 2.6 3.284 2.6z" class="cls-8" transform="translate(-910.825 -681.905)"/><path id="Path_525" d="M912.952 710.692s4.3 13.136 4.3 14.836-2.144 1.771-2.219 2.446c-.125 1.119 3.474 1.426 4.04.746s-.235-15.338-.235-15.338z" class="cls-1" transform="translate(-905.192 -688.339)"/><path id="Path_526" d="M943.894 728.151c-.567.905-4.028.612-4.028.044s2.153-1.246 2.38-1.925 1.132-3.171-3.4-7.134a17.865 17.865 0 01-3.671-4.726 25.38 25.38 0 01-.763-1.5c-.443-.953-.662-1.586-.662-1.586s8.564-1.985 8.508.328a1.127 1.127 0 01-.012.124c-.517 3.514 1.546 6.2 2.342 7.678.076.143.141.271.19.39.566 1.356-.318 7.401-.884 8.307z" class="cls-1" transform="translate(-911.595 -688.289)"/><path id="Path_527" d="M913.837 704.592a20.776 20.776 0 00-.272 4.091c.2 1.357 1.361 2.737 2.71 2.5 1.454-.258 2.044-2.089 3.35-2.774a4.044 4.044 0 013.274.117 11.945 11.945 0 003.2 1.045 9.439 9.439 0 001.689-.09 5.488 5.488 0 011.762.019 3.662 3.662 0 011.784 1.04 13.481 13.481 0 011.872 2.681c.916 1.541 2.333 3.182 4.113 2.969a2.513 2.513 0 00.642-.165c-.8-1.476-2.859-4.164-2.341-7.679a.969.969 0 00.012-.124c.474-2.025.015-5.448-1.373-7.011-1.811-2.04-11.664.678-14.156.112l-.1-.024a12.244 12.244 0 01-3.08-1.556l-.542-.355a11.672 11.672 0 01-2.292.486l-1.867 1.209c1.25.558 1.678 2.14 1.615 3.509z" class="cls-8" transform="translate(-904.967 -684.858)"/><path id="Path_528" d="M903.832 684.675s3.527-6.532 4.7-6.271 1.437 6.141 1.437 6.141z" class="cls-8" transform="translate(-902.384 -678.396)"/><path id="Path_529" d="M906.774 683.277l3.176.238s0-2.858-.635-3.256-2.541 3.018-2.541 3.018z" class="cls-17" transform="translate(-903.29 -678.96)"/><path id="Path_530" d="M915.535 690.35s6.14-2.09 6.793-.653-4.965 5.486-4.965 5.486z" class="cls-8" transform="translate(-905.987 -681.72)"/><path id="Path_531" d="M914.595 692.822a7.859 7.859 0 01-1.836 2.12c-1.394 1.074-3.488 1.687-6.565.228-4.965-2.351-4.92-7.17-3.919-8.752a6.167 6.167 0 011.935-1.97 5.15 5.15 0 015.119-.251c4.049 2.091 6.071 7.32 5.266 8.625z" class="cls-1" transform="translate(-901.74 -680.009)"/><path id="Path_532" d="M919.28 690.633l.556 2.7s3.176-2.144 3.018-2.858-3.574.158-3.574.158z" class="cls-17" transform="translate(-907.14 -682.028)"/><path id="Path_533" d="M911.011 694.1a1.382 1.382 0 11-.385-1.654 1.219 1.219 0 01.385 1.654z" class="cls-7" transform="translate(-903.895 -682.611)"/><path id="Path_534" d="M916.1 693.01a.692.692 0 11-.824-.2.611.611 0 01.824.2z" class="cls-7" transform="translate(-905.774 -682.81)"/><path id="Path_535" d="M911.077 687.748a.691.691 0 11-.778.338.61.61 0 01.778-.338z" class="cls-7" transform="translate(-904.344 -681.26)"/><path id="Path_536" d="M915.693 692.822a7.86 7.86 0 01-1.836 2.12 1.91 1.91 0 01-1.168-1.867 4.468 4.468 0 01.851-1.668 1.728 1.728 0 00.219-1.777c-.469-.729-1.708-.651-2.118-1.415-.312-.588.06-1.324-.107-1.97a1.61 1.61 0 00-1.663-1.049 16.007 16.007 0 01-2.758.4 2.248 2.248 0 01-1.806-1.146 5.15 5.15 0 015.119-.251c4.05 2.089 6.074 7.318 5.267 8.623z" class="cls-8" transform="translate(-902.838 -680.009)"/></g><path id="Path_540" d="M746.71 800.964h-26.869a3.25 3.25 0 01-3.241-3.241 3.25 3.25 0 013.241-3.241h26.869a3.25 3.25 0 013.241 3.241 3.25 3.25 0 01-3.241 3.241z" class="cls-15" transform="translate(9.887 -214.244)"/><path id="Path_541" d="M774.882 763.766h-26.869a3.251 3.251 0 01-3.241-3.24 3.251 3.251 0 013.241-3.241h26.869a3.25 3.25 0 013.241 3.241 3.25 3.25 0 01-3.241 3.24z" class="cls-15" transform="translate(1.213 -202.792)"/><g id="Group_529" transform="translate(767.822 383.717)"><path id="Path_546" d="M776.551 622.872c-7.566-1.015-12.28 5.847-16.093 7.257-4.408 1.631-6.373-2.639-9.986-4.122-4.205-1.725-6.5.039-9.673 2.516a3.69 3.69 0 01-3.53.968 6.965 6.965 0 01-3.255-2.182c-.379-.442-.312-.908-1.015-.9-.817.014-1.16 1.033-1.115 1.7a6.708 6.708 0 002.334 4.506c2.066 1.8 4.807 2.568 7.458 3.256s5.4 1.384 7.548 3.077c3.069 2.415 5.257 6.454 9.142 7.7 4.706 1.513 8.007-3.2 12.659-2.681 2.186.243 4.436.875 6.536.222a4.274 4.274 0 003.062-2.621c.493-1.806.136-2.931 1.705-4.466 2.522-2.467 5.474-5.59 4.041-9.549-1.26-3.481-6.697-4.263-9.818-4.681z" class="cls-8" transform="translate(-685.737 -621.998)"/><path id="Path_547" d="M711.918 661.548s1.906-4.331 2.647-6.3c1.366-3.622 3.488-19.214 3.488-19.214l-3.552-1.129c-2.548 10.726-6.056 19.842-8.88 24.217z" class="cls-7" transform="translate(-677.652 -625.735)"/><path id="Path_548" d="M720.193 631.958s1.776-2.1 1.615-3.552-12.406-10.362-8.449-5.112c3.378 4.483 3.283 7.534 3.283 7.534z" class="cls-7" transform="translate(-679.792 -621.654)"/><path id="Path_549" d="M816.545 669.149a8.308 8.308 0 013.391-.376c1.13.323 1.991 4.682.754 4.682a19.909 19.909 0 01-4.221-1.073z" class="cls-1" transform="translate(-711.78 -636.135)"/><path id="Path_550" d="M786.9 649.138s6.673 12.862 7.965 13.669 11.032.323 11.032.323a4.672 4.672 0 01-.077 3.233s-12.408 1.288-14.723.642-9.2-9.956-9.2-9.956z" class="cls-14" transform="translate(-701.137 -630.116)"/><path id="Path_551" d="M791.084 631.818c-1.206.19-2.31 1.608-3.065 1.96a1.537 1.537 0 00-1.456-1.128 1.682 1.682 0 00-1.294 2.056c.651 3.513.327 4.4-2.369 5.535-2.028.853 2.333 4.339 3.8 4.027.75-.159.52-2.016 1.28-2.136s1.81 1.334 2.94 1.415 6.437-7.314 6.668-8.755c.234-1.426-3.909-3.384-6.504-2.974z" class="cls-1" transform="translate(-701.283 -624.766)"/><path id="Path_552" d="M731.007 658.649a31.141 31.141 0 00-8.231-1.839c-3.692-.123-16.826 6.122-18.4 3.978-5.462-7.421-22.976-14.843-22.976-14.843l-2.134 2.532c6.646 4.176 20.787 19.15 22.141 19.494 2.24.568 31.622.527 31.622.527z" class="cls-16" transform="translate(-669.537 -629.133)"/><path id="Path_553" d="M677.07 644.686s-1.864-3.195-3.1-2.795c-6.456 2.083-10.764 11.194-7.8 8.933s8.772-3.606 8.772-3.606z" class="cls-16" transform="translate(-665.211 -627.874)"/><path id="Path_554" d="M808.57 669.106a6.686 6.686 0 013.175-.484c1.13.322 3.013 4.682 1.776 4.682a29.828 29.828 0 01-4.628-.914z" class="cls-1" transform="translate(-709.348 -636.091)"/><path id="Path_555" fill="#e0f7fa" d="M804.527 670.056h14.853l10.82-16.468-.969-.484-10.171 15.338-14.531-.161z" transform="translate(-708.104 -631.337)"/><path id="Path_556" d="M776.814 647.606c.437 1.66-1.856 12.19-2.5 13.319s-4.591 0-5.651 1.05c-3.537 3.488-9.283 6.458-14.127 5.974s-6.862-10.656-4.278-10.575 7.669.807 9.526-.4 10.09-13.723 13.481-12.754a4.712 4.712 0 013.549 3.386z" class="cls-13" transform="translate(-691.047 -628.584)"/><path id="Path_557" d="M786.178 650.654l-6.377 6.539s3.146 12.145 5.649 12.145 14.586-2.458 14.586-2.458a3.422 3.422 0 00-.323-3.283s-9.175.941-10.628.377-2.907-13.32-2.907-13.32z" class="cls-13" transform="translate(-700.491 -630.583)"/><path id="Path_558" d="M821.876 669.053s2.47 1.931 2.631 2.577-2.368-.457-2.368-.457z" class="cls-1" transform="translate(-713.445 -636.247)"/></g><g id="Group_555" transform="translate(908.559 469.116)"><path id="Path_576" d="M907.438 612c23.219-6.581 25.087 23.871-12.165 22.727-21.373-30.45 4.964-44.335 12.165-22.727z" class="cls-8" transform="translate(-887.072 -601.521)"/></g><g id="Bluehost_icon_-_logo" transform="translate(831.192 569.885)"><path id="Icon" d="M31.772-.923V8H22.9V-.923zm-11.45 0V8h-8.876V-.923zm-11.45 0V8H0V-.923zm22.9-11.539v8.922H22.9v-8.922zm-11.45 0v8.922h-8.876v-8.922zm-11.45 0v8.922H0v-8.922zM31.772-24v8.921H22.9V-24zm-11.45 0v8.921h-8.876V-24zm-11.45 0v8.921H0V-24z" class="cls-1" transform="translate(0 24)"/></g></g></svg>
