<svg xmlns="http://www.w3.org/2000/svg" width="621.938" height="380.116"><g fill="#fff"><path d="M621.938 230.608v149.508H0c11.622-6.265 24.306-11.14 31.78-21.786 17.116-24.4-4.812-59.184 4.585-87.468 11.35-34.135 61.443-42.12 73.86-75.88 5.876-16-.26-31.3 2.174-47.524a68.22 68.22 0 0119.927-38.99c8.721-8.332 19.986-14.7 25.2-25.576 4.953-10.326 3.345-22.5 5.682-33.71 2.933-14.069 12.751-26.34 25.413-32.969 12.07-6.319 32.369-8.742 45.326-4.525 16.248 5.288 31.046 20.519 43.357 31.926 10.78 9.987 21.463 12.613 36.126 9.409 31.424-6.867 54.607-34.413 83.994-46.4a86.339 86.339 0 0119.242-5.507c15.277-2.383 32.069.97 43.181 11.724 10.079 9.761 14.25 24.062 22.569 35.361 17.144 23.3 52.919 29.47 67.158 54.536 13.932 24.516 5.544 56.721 18.58 81.453 11.034 20.926 36.606 30.721 53.784 46.418zM533.819 56.535c3.609.634 7.693.766 10.534-1.548 2.562-2.087 3.415-5.625 3.6-8.924.94-16.842-30.889-63.609-47.548-39.1-15.052 22.135 14.543 46.255 33.414 49.572z"/></g><g transform="translate(286.247 42.927)"><path fill="#a8dbe9" d="M65.166 42.399h13.4V62.68h-13.4z"/><path fill="#a8dbe9" d="M65.781 23.069h12.262a8.509 8.509 0 018.509 8.509v3.136a8.509 8.509 0 01-8.509 8.509H65.781a8.509 8.509 0 01-8.509-8.509v-3.136a8.509 8.509 0 018.509-8.509zM115.925 65.374l8.002 5.312-8.04 12.11-8.002-5.312z"/><rect width="20.989" height="14.447" fill="#a8dbe9" rx="6.965" transform="rotate(33.603 -24.517 222.207)"/><path fill="#4fb9d5" d="M71.867 60.047A71.867 71.867 0 110 131.914a71.867 71.867 0 0171.867-71.867z"/><path fill="#fff" d="M131.423 131.912a59.543 59.543 0 11-7.571-29.083 59.556 59.556 0 017.571 29.083z"/><path fill="#a8dbe9" d="M123.852 102.83l-51.986 29.083 17.146-57.051a59.715 59.715 0 0134.84 27.968z"/><path fill="#4fb9d5" d="M71.867 0a28.647 28.647 0 1028.647 28.647A28.648 28.648 0 0071.867 0zm0 50.515a21.869 21.869 0 1121.868-21.869 21.868 21.868 0 01-21.868 21.871z"/></g><path fill="#80deea" d="M541.717 215.763l-63.434-51a4.323 4.323 0 00-7.031 3.368v22.367H271.204v57.267h200.048v22.367a4.323 4.323 0 007.031 3.369l63.434-51a4.323 4.323 0 000-6.738z"/><path fill="#53c1df" d="M191.638 123.331h156.907v170.541H191.638z"/><path fill="#50bad7" d="M259.974 123.331h20.236v34.962h-20.236z"/><g transform="translate(170.358 214.978)"><path fill="#212121" d="M54.688 107.823H18.857V85.151h35.831z"/><path fill="#e6e7e7" d="M262.172 118.871H55.134a3.6 3.6 0 01-3.31-5.009L62.188 89.54h198.11z"/><path fill="#003d64" d="M295.144 98.92v16.669a3.283 3.283 0 01-3.283 3.283h-35.147a22.5 22.5 0 10-44.495 0H100.858a22.5 22.5 0 10-44.495 0h-3.812a3.283 3.283 0 01-3.283-3.283V98.873H8.751v-20h262.588l3.651 2.574 9.231 14.188h7.64a3.283 3.283 0 013.283 3.285z"/><path fill="#37474f" d="M23.314 78.875h-8.87v36.714a3.283 3.283 0 003.283 3.283h2.307a3.283 3.283 0 003.283-3.283zM12.289 78.875H4.953a1.537 1.537 0 00-1.537 1.537v19.364a2.871 2.871 0 002.871 2.871h3.131a2.871 2.871 0 002.871-2.871z"/><path fill="#f59904" d="M2.402 82.678a2.4 2.4 0 00-2.4 2.4v8.067a2.4 2.4 0 002.4 2.4 2.4 2.4 0 002.4-2.4v-8.067a2.4 2.4 0 00-2.4-2.4z"/><path fill="#fff" d="M216.501 101.953a22.336 22.336 0 00-4.21 9.724H100.786a22.35 22.35 0 00-4.21-9.724z"/><path fill="#e4e5e5" d="M258.989 95.637l-.15-9.343H8.75v9.342z"/><path fill="#dedfdf" d="M258.78 95.637h27.055a2.58 2.58 0 002.58-2.58V60.943a2.576 2.576 0 00-.332-1.264l-2.641-4.7-29.915-53.136a3.322 3.322 0 00-2.885-1.7l-39.554-.144a2.58 2.58 0 00-2.579 2.58v76.29h35.972a2.58 2.58 0 012.259 1.334l7.782 14.1a2.581 2.581 0 002.258 1.334z"/><path fill="#003d64" d="M248.788 3.803H220.91a2.58 2.58 0 00-2.579 2.58v39.85a3.071 3.071 0 003.073 3.071l29.21-.024a2.567 2.567 0 01.656.084l19.835 5.2a2.579 2.579 0 002.974-3.624c-5.272-10.807-17.628-35.994-23.034-45.807a2.576 2.576 0 00-2.257-1.33z"/><path fill="#eee" d="M281.706 69.688v16.9a1.32 1.32 0 00.387.932l3.885 3.885a1.32 1.32 0 00.932.386h2.229a1.316 1.316 0 001.317-1.317V78.492c0-5.921-3.255-9.376-7.175-10.1a1.324 1.324 0 00-1.575 1.296z"/><path fill="#f59904" d="M281.705 69.686v9.253h8.749v-.449a13.686 13.686 0 00-.158-2.159 9.315 9.315 0 00-4.266-6.9 8.232 8.232 0 00-2.766-1.042 1.32 1.32 0 00-1.559 1.297z"/><circle cx="19.165" cy="19.165" r="19.165" fill="#37474f" transform="rotate(-67.5 198.9 -93.78)"/><path fill="#37474f" d="M78.612 134.66a19.165 19.165 0 10-19.166-19.165 19.186 19.186 0 0019.166 19.165z"/><path fill="#eee" d="M234.466 129.041a13.541 13.541 0 10-13.541-13.541 13.556 13.556 0 0013.541 13.541z"/><path fill="#fff" d="M234.465 123.875a8.379 8.379 0 10-8.379-8.379 8.388 8.388 0 008.379 8.379z"/><path fill="#eee" d="M78.611 129.041A13.541 13.541 0 1065.07 115.5a13.556 13.556 0 0013.541 13.541z"/><path fill="#f59904" d="M176.718 107.083c0 1.642 2.425 2.972 5.416 2.972s5.416-1.331 5.416-2.972-2.424-2.973-5.416-2.973-5.416 1.331-5.416 2.973zM125.636 107.083c0 1.642 2.425 2.972 5.416 2.972s5.416-1.331 5.416-2.972-2.425-2.973-5.416-2.973-5.416 1.331-5.416 2.973z"/><path fill="#fff" d="M74.764 122.738a8.379 8.379 0 10-3.457-11.334 8.388 8.388 0 003.457 11.334z"/><path fill="#003d64" d="M256.634 3.803a1.978 1.978 0 00-1.756 2.893c6.234 11.925 21.012 37.923 25.9 46.495a3.95 3.95 0 004.667 1.795z"/><path fill="#fff" d="M286.716 85.056c0 2.192.627 3.968 1.4 3.968s1.4-1.776 1.4-3.968-.626-3.968-1.4-3.968-1.4 1.777-1.4 3.968zM282.646 83.593c0 1.384.627 2.5 1.4 2.5s1.4-1.121 1.4-2.5-.627-2.5-1.4-2.5-1.4 1.116-1.4 2.5z"/><path fill="#f59904" d="M284.044 74.165c0 1.7.769 3.071 1.717 3.071s1.717-1.375 1.717-3.071-.769-3.071-1.717-3.071-1.717 1.371-1.717 3.071z"/><path fill="#e6e7e7" d="M256.367 22.736c-.974-1.777-3.032-2.677-5.03-3.128a1.767 1.767 0 00-2.141 1.733v19.083a1.771 1.771 0 001.772 1.771h5.455a1.771 1.771 0 001.77-1.716c.129-4.026.222-14.006-1.826-17.743z"/><path fill="#e6e7e7" d="M253.119 47.117l19.381.785-1.609-2.876h-15.67a.784.784 0 01-.784-.784v-5.475h-2.71l.643 7.632a.783.783 0 00.749.718z"/><path fill="#f59904" d="M272.564 107.083c0 1.642 2.425 2.972 5.417 2.972s5.416-1.331 5.416-2.972-2.424-2.973-5.416-2.973-5.417 1.331-5.417 2.973z"/><path fill="#37474f" d="M219.154 65.723a2.155 2.155 0 01-2.155-2.155v-7.352a2.155 2.155 0 012.155-2.155 2.155 2.155 0 012.155 2.155v7.352a2.155 2.155 0 01-2.155 2.155z"/></g><path fill="#a8dbe9" d="M191.281 156.94s12.2-23.016 3.217-51.5-23.97-15.642-13.664 7.346a122.436 122.436 0 0110.447 44.154z"/><path fill="#a8dbe9" d="M191.281 156.939s4.344-29.711-16.565-44.492-45.249-18.583-29.846-1.9 20.163 23.824 13.5 24.438-13.95 10.643 6.053 10.4c20.022-.24 26.858 11.554 26.858 11.554z"/><path fill="#003d64" d="M191.281 156.94s7.2-41.337-26.838-71.82c-30.274-27.116-34.908 7.52-2.781 28.079 24.51 15.682 29.619 43.741 29.619 43.741z"/><path fill="#b2ebf2" d="M214.096 148.887l-6.69 36.484h-38.6l-6.69-36.484z"/><path fill="#80deea" d="M214.095 148.887l-6.69 36.484h-13.416l-6.69-36.484z"/><path fill="#a8dbe9" d="M149.58 185.502h135.233v108.37H149.58z"/><path fill="#50bad7" d="M208.476 263.28h17.441v30.592h-17.441zM208.476 185.502h17.441v35.188h-17.441z"/><path fill="#4fb9d5" d="M233.108 219.042h132.706v74.83H233.108z"/><path fill="#455a64" d="M229.408 68.674h2.877v54.662h-2.877z"/><path fill="#455a64" d="M238.431 121.809v1.528h-15.169v-1.528z"/><path fill="#003d64" d="M244.087 75.688h-26.482l.871-3.053.472-1.647 5.1-17.831h13.606l5.1 17.831.472 1.647z"/><path fill="#a8dbe9" d="M243.216 72.634h-24.74l.471-1.647h23.8z"/><path fill="#455a64" d="M254.235 114.126s-3.732 8.8-3.132 9.2 6.6-7.8 6.6-7.8zM313.48 114.126s3.732 8.8 3.132 9.2-6.6-7.8-6.6-7.8z"/><path fill="#80deea" d="M318.21 117.592h-68.506s-1.565-23.866 0-25.323 67-1.394 68.506 0 0 25.323 0 25.323z"/><path fill="#b2ebf2" d="M247.442 101.065h4.524a1.47 1.47 0 011.47 1.47v15.057h-7.464v-15.057a1.47 1.47 0 011.47-1.47zM315.948 101.065h4.524a1.47 1.47 0 011.47 1.47v15.057h-7.464v-15.057a1.47 1.47 0 011.47-1.47z"/><path fill="#b2ebf2" d="M249.704 107.196h68.506v10.396h-68.506z"/><path fill="#fff" d="M319.034 204.904a32.6 32.6 0 005.119 6.087c3.714 3.25 2.031 5.613 1.846 6.17s-1.95 1.114-1.95 1.578 3.436.557 3.9-.186 1.033-6.17.569-7.284-2.043-3.157-1.579-6.314c.302-2.054-7.905-.051-7.905-.051zM312.255 204.958s-5.014 4.272-5.014 5.107 3.249 4.457 3.807 4.829 2.043-.65 2.136-1.115-1.95-1.207-2.229-1.671a4.948 4.948 0 01-.721-1.52c-.128-.594 4.436-3.4 4.436-3.4z"/><path fill="#fff" d="M307.91 200.966c.207.642 2.322 5.662 3.995 6.871 1.1.793 8.535.219 13.795-.532.827-.117 1.6-.239 2.284-.361a10.216 10.216 0 002.954-.777 2.057 2.057 0 00.57-1.124c.389-1.661.012-4.467-1.126-5.749-1.485-1.672-9.564.556-11.607.092l-.079-.02a10.037 10.037 0 01-2.525-1.276l-.444-.291c-1.77-1.19-3.45-2.591-3.45-2.591l-4.551-1.206s-.198 5.778.184 6.964z"/><path fill="#f59904" d="M330.754 200.779s2.039-7.12-1.672-8.292c-3.421-1.081-8.078 4.763-4.92 7.27s4.828.372 4.828.372-2.693-1.671-1.95-2.786 2.693 2.136 2.693 2.136z"/><path fill="#fff" d="M312.729 204.216s3.528 10.771 3.528 12.164-1.758 1.452-1.819 2.005c-.1.918 2.848 1.169 3.313.612s-.193-12.576-.193-12.576zM332.849 218.572c-.465.742-3.3.5-3.3.036s1.766-1.021 1.951-1.578.928-2.6-2.787-5.85a14.647 14.647 0 01-3.01-3.875 19.539 19.539 0 01-.625-1.23c-.363-.781-.543-1.3-.543-1.3s7.022-1.628 6.976.269a.923.923 0 01-.01.1c-.424 2.881 1.268 5.086 1.92 6.3.062.117.115.222.156.32.462 1.11-.263 6.066-.728 6.808z"/><path fill="#f59904" d="M313.638 202.068a17.034 17.034 0 00-.223 3.354c.167 1.112 1.116 2.244 2.222 2.047 1.192-.212 1.676-1.713 2.747-2.275a3.316 3.316 0 012.685.1 9.792 9.792 0 002.621.857 7.729 7.729 0 001.385-.074 4.5 4.5 0 011.445.016 3 3 0 011.463.853 11.052 11.052 0 011.535 2.2c.751 1.264 1.913 2.609 3.373 2.434a2.063 2.063 0 00.526-.136c-.652-1.21-2.344-3.414-1.92-6.3a.794.794 0 00.01-.1c.389-1.661.012-4.467-1.126-5.749-1.485-1.672-9.563.556-11.607.092l-.079-.02a10.039 10.039 0 01-2.525-1.276l-.444-.291a9.569 9.569 0 01-1.88.4l-1.531.991a2.9 2.9 0 011.323 2.877zM307.553 191.036s2.892-5.356 3.856-5.142 1.178 5.035 1.178 5.035z"/><path fill="#fbc02d" d="M309.223 189.428l2.6.2s0-2.344-.521-2.669-2.079 2.469-2.079 2.469z"/><path fill="#f59904" d="M314.195 192.964s5.034-1.714 5.57-.535-4.071 4.5-4.071 4.5z"/><path fill="#fff" d="M316.906 196.394a6.441 6.441 0 01-1.506 1.738c-1.143.881-2.86 1.383-5.383.187-4.071-1.928-4.034-5.879-3.213-7.176a5.057 5.057 0 011.586-1.615 4.222 4.222 0 014.2-.206c3.318 1.714 4.977 6.004 4.316 7.072z"/><path fill="#fbc02d" d="M316.32 192.943l.456 2.214s2.6-1.758 2.474-2.344-2.93.13-2.93.13z"/><path fill="#37474f" d="M312.199 195.308a1.134 1.134 0 11-.316-1.356 1 1 0 01.316 1.356zM314.837 194.251a.567.567 0 11-.676-.168.5.5 0 01.676.168zM311.887 191.208a.567.567 0 11-.638.278.5.5 0 01.638-.278z"/><path fill="#f59904" d="M316.906 196.394a6.443 6.443 0 01-1.506 1.738 1.566 1.566 0 01-.957-1.531 3.663 3.663 0 01.7-1.368 1.417 1.417 0 00.18-1.457c-.385-.6-1.4-.533-1.737-1.161-.256-.482.049-1.086-.088-1.615a1.32 1.32 0 00-1.364-.86 13.122 13.122 0 01-2.261.326 1.843 1.843 0 01-1.481-.939 4.222 4.222 0 014.2-.206c3.316 1.715 4.975 6.005 4.314 7.073z"/><path fill="#a8dbe9" d="M153.336 266.777h-22.03a2.665 2.665 0 01-2.658-2.657 2.665 2.665 0 012.658-2.658h22.031a2.665 2.665 0 012.657 2.658 2.665 2.665 0 01-2.658 2.657zM162.206 129.501h-22.027a2.665 2.665 0 01-2.658-2.657 2.665 2.665 0 012.658-2.658h22.027a2.665 2.665 0 012.657 2.658 2.665 2.665 0 01-2.657 2.657zM132.802 111.248H88.889a2.665 2.665 0 01-2.658-2.658 2.665 2.665 0 012.658-2.658h43.914a2.665 2.665 0 012.657 2.658 2.665 2.665 0 01-2.658 2.658zM89.013 96.36H45.1a2.665 2.665 0 01-2.658-2.658 2.665 2.665 0 012.658-2.658h43.914a2.665 2.665 0 012.657 2.658 2.665 2.665 0 01-2.658 2.658z"/><path fill="#4fb9d5" d="M225.988 257.084h-22.03a2.665 2.665 0 01-2.658-2.657 2.665 2.665 0 012.658-2.658h22.031a2.665 2.665 0 012.657 2.658 2.665 2.665 0 01-2.658 2.657zM241.976 235.972h-22.031a2.665 2.665 0 01-2.658-2.657 2.665 2.665 0 012.658-2.658h22.031a2.665 2.665 0 012.658 2.658 2.665 2.665 0 01-2.658 2.657z"/><path fill="#a8dbe9" d="M131.662 247.764H69.513a2.666 2.666 0 01-2.658-2.658 2.665 2.665 0 012.658-2.658h62.149a2.665 2.665 0 012.657 2.658 2.665 2.665 0 01-2.657 2.658zM138.887 228.751h-37.241a2.665 2.665 0 01-2.658-2.658 2.665 2.665 0 012.658-2.657h37.241a2.665 2.665 0 012.658 2.657 2.666 2.666 0 01-2.658 2.658zM64.446 264.658H27.205A2.665 2.665 0 0124.547 262a2.665 2.665 0 012.658-2.657h37.241A2.665 2.665 0 0167.104 262a2.666 2.666 0 01-2.658 2.658z"/><path fill="#80deea" d="M485.689 179.316h-37.241a2.666 2.666 0 01-2.657-2.658 2.665 2.665 0 012.657-2.657h37.242a2.665 2.665 0 012.658 2.657 2.666 2.666 0 01-2.659 2.658zM422.221 179.316H384.98a2.665 2.665 0 01-2.657-2.658 2.665 2.665 0 012.657-2.657h37.241a2.665 2.665 0 012.658 2.657 2.665 2.665 0 01-2.658 2.658z"/><g><path fill="#f59904" d="M246.598 154.403c-6.2-.833-10.069 4.794-13.2 5.95-3.614 1.337-5.225-2.164-8.188-3.379-3.448-1.414-5.331.032-7.931 2.063a3.025 3.025 0 01-2.895.793 5.711 5.711 0 01-2.669-1.789c-.31-.362-.256-.745-.832-.735-.67.012-.951.847-.914 1.391a5.5 5.5 0 001.914 3.694 14.661 14.661 0 006.115 2.669 16.387 16.387 0 016.189 2.523c2.516 1.981 4.31 5.292 7.5 6.316 3.859 1.241 6.565-2.622 10.38-2.2 1.792.2 3.637.717 5.359.182a3.5 3.5 0 002.511-2.149c.4-1.481.112-2.4 1.4-3.662 2.068-2.023 4.488-4.583 3.314-7.83-1.036-2.853-5.493-3.49-8.053-3.837z"/><path fill="#37474f" d="M200.232 183.051s1.563-3.551 2.17-5.162c1.12-2.97 2.86-15.754 2.86-15.754l-2.912-.926c-2.09 8.795-4.966 16.269-7.281 19.857zM205.261 162.133s1.456-1.721 1.324-2.912-10.172-8.5-6.928-4.192c2.77 3.676 2.692 6.178 2.692 6.178z"/><path fill="#fff" d="M258.037 180.757a6.811 6.811 0 012.78-.309c.927.265 1.633 3.839.618 3.839a16.324 16.324 0 01-3.461-.88z"/><path fill="#80deea" d="M242.457 169.284s5.472 10.546 6.531 11.208 9.046.264 9.046.264a3.831 3.831 0 01-.063 2.651s-10.174 1.056-12.072.527-7.545-8.164-7.545-8.164z"/><path fill="#fff" d="M245.767 159.469c-.989.156-1.894 1.318-2.513 1.607a1.26 1.26 0 00-1.193-.925 1.379 1.379 0 00-1.061 1.685c.533 2.88.268 3.608-1.943 4.538-1.663.7 1.913 3.558 3.119 3.3.615-.131.426-1.653 1.05-1.751s1.484 1.094 2.411 1.16 5.278-6 5.467-7.179-3.208-2.771-5.337-2.435z"/><path fill="#455a64" d="M222.538 177.888a25.535 25.535 0 00-6.749-1.508c-3.027-.1-13.8 5.019-15.09 3.261-4.479-6.085-18.839-12.17-18.839-12.17l-1.75 2.076c5.449 3.424 17.044 15.7 18.154 15.984 1.837.466 25.928.432 25.928.432z"/><path fill="#455a64" d="M181.86 167.472s-1.528-2.62-2.543-2.292c-5.294 1.708-8.826 9.178-6.4 7.325s7.193-2.957 7.193-2.957z"/><path fill="#fff" d="M253.492 180.753a5.482 5.482 0 012.6-.4c.927.264 2.471 3.839 1.456 3.839a24.458 24.458 0 01-3.795-.75z"/><path fill="#e0f7fa" d="M251.197 185.431h12.179l8.869-13.5-.794-.4-8.34 12.576-11.914-.132z"/><path fill="#b2ebf2" d="M242.46 169.284c.359 1.361-1.522 9.995-2.051 10.921s-3.764 0-4.634.861c-2.9 2.86-7.612 5.3-11.583 4.9s-5.626-8.737-3.508-8.671 6.288.662 7.81-.331 8.274-11.252 11.053-10.458a3.864 3.864 0 012.913 2.778z"/><path fill="#b2ebf2" d="M242.395 170.144l-5.229 5.362s2.58 9.958 4.632 9.958 11.959-2.015 11.959-2.015a2.806 2.806 0 00-.265-2.692s-7.523.772-8.714.309-2.383-10.922-2.383-10.922z"/><path fill="#fff" d="M261.043 180.586s2.025 1.583 2.157 2.113-1.941-.375-1.941-.375z"/></g><g><path fill="#fff" d="M464.482 140.75a1.2 1.2 0 01-.831-.331l-7.409-7.006-7.409 7.006a1.21 1.21 0 01-1.662-1.757l9.07-8.578 9.071 8.578a1.209 1.209 0 01-.831 2.088z"/><path fill="#fff" d="M464.482 149.699a1.2 1.2 0 01-.831-.331l-7.409-7.006-7.409 7.006a1.21 1.21 0 01-1.662-1.758l9.07-8.578 9.071 8.578a1.209 1.209 0 01-.831 2.088z"/><path fill="#fff" d="M464.482 158.651a1.2 1.2 0 01-.831-.331l-7.409-7.006-7.409 7.006a1.21 1.21 0 01-1.662-1.757l9.07-8.578 9.071 8.578a1.209 1.209 0 01-.831 2.088z"/></g><g fill="#fff" transform="translate(428.863 81.769)"><path d="M28.506 10.859H1.631A1.634 1.634 0 01.002 9.23a1.634 1.634 0 011.629-1.629h26.875a1.633 1.633 0 011.629 1.629 1.633 1.633 0 01-1.629 1.629z"/><rect width="17.735" height="3.257" rx="1.629"/></g><g><path fill="#fff" d="M303.156 68.024c-2.464 0-3.735-1.536-4.757-2.769-1.049-1.267-1.765-2.043-3.212-2.043s-2.163.776-3.212 2.043c-1.021 1.234-2.293 2.769-4.756 2.769s-3.735-1.536-4.756-2.769c-1.049-1.267-1.765-2.043-3.211-2.043s-2.163.776-3.211 2.043c-1.021 1.233-2.293 2.769-4.756 2.769s-3.734-1.536-4.756-2.769c-1.049-1.267-1.765-2.043-3.211-2.043a1.003 1.003 0 110-2.006c2.464 0 3.735 1.536 4.756 2.769 1.048 1.267 1.764 2.043 3.211 2.043s2.163-.776 3.211-2.043c1.021-1.234 2.292-2.769 4.756-2.769s3.735 1.536 4.756 2.769c1.048 1.267 1.764 2.043 3.211 2.043s2.163-.776 3.212-2.043c1.022-1.234 2.293-2.769 4.756-2.769s3.735 1.536 4.757 2.769c1.049 1.267 1.765 2.043 3.212 2.043a1.002 1.002 0 010 2.005zM303.156 77.115c-2.464 0-3.735-1.536-4.757-2.769-1.049-1.267-1.765-2.044-3.212-2.044s-2.163.777-3.211 2.043c-1.022 1.234-2.293 2.77-4.757 2.77s-3.735-1.536-4.756-2.77c-1.049-1.267-1.765-2.043-3.211-2.043s-2.163.776-3.211 2.043c-1.021 1.234-2.293 2.77-4.756 2.77s-3.735-1.536-4.756-2.77c-1.049-1.266-1.765-2.043-3.211-2.043a1 1 0 110-2c2.464 0 3.735 1.536 4.756 2.77 1.048 1.267 1.764 2.043 3.211 2.043s2.163-.777 3.211-2.043c1.021-1.234 2.292-2.77 4.756-2.77s3.735 1.536 4.756 2.77c1.048 1.266 1.764 2.043 3.211 2.043s2.163-.777 3.212-2.043c1.022-1.234 2.293-2.77 4.757-2.77s3.735 1.536 4.757 2.77c1.049 1.266 1.765 2.043 3.212 2.043a1 1 0 110 2z"/></g><path fill="#fff" d="M173.024 55.198l11.73 6.773a2.148 2.148 0 010 3.72l-11.73 6.772a2.148 2.148 0 01-3.222-1.86V57.058a2.148 2.148 0 013.222-1.86zM127.251 192.331l10.294-2.561a1.682 1.682 0 012.023 2.1l-2.929 10.2a1.682 1.682 0 01-2.827.7l-7.364-7.634a1.682 1.682 0 01.803-2.805z"/><g><path fill="#f59904" d="M314.741 150.851c19.038-5.4 20.57 19.572-9.975 18.635-17.528-24.965 4.07-36.346 9.975-18.635z"/></g><g style="mix-blend-mode:luminosity;isolation:isolate"><path fill="#fff" d="M315.467 263.804v8.923h-8.872v-8.923zm-11.45 0v8.923h-8.876v-8.923zm-11.45 0v8.923h-8.872v-8.923zm22.9-11.539v8.922h-8.872v-8.922zm-11.45 0v8.922h-8.876v-8.922zm-11.45 0v8.922h-8.872v-8.922zm22.9-11.538v8.921h-8.872v-8.921zm-11.45 0v8.921h-8.876v-8.921zm-11.45 0v8.921h-8.872v-8.921z"/></g></svg>
