<svg xmlns="http://www.w3.org/2000/svg" width="912.906" height="465.704" viewBox="0 0 912.906 465.704">
  <defs>
    <style>
      .cls-1 {
        fill: #fff;
      }

      .cls-2 {
        opacity: 0.4;
      }

      .cls-3 {
        fill: #53c1df;
      }

      .cls-3, .cls-4, .cls-5, .cls-6 {
        opacity: 0.571;
      }

      .cls-4 {
        fill: #50bad7;
      }

      .cls-5 {
        fill: #a8dbe9;
      }

      .cls-6 {
        fill: #4fb9d5;
      }

      .cls-7 {
        mix-blend-mode: luminosity;
        isolation: isolate;
      }

      .cls-8 {
        fill: #003d64;
      }

      .cls-9 {
        fill: #d2dcdf;
      }

      .cls-10, .cls-18 {
        fill: #fe9f04;
      }

      .cls-11 {
        fill: #feb031;
      }

      .cls-12 {
        fill: #c2cbcf;
      }

      .cls-13 {
        fill: #a4d8e7;
      }

      .cls-14, .cls-17 {
        fill: #53c2e0;
      }

      .cls-15 {
        fill: #28343c;
      }

      .cls-16 {
        fill: #fffffa;
      }

      .cls-17, .cls-18 {
        opacity: 0.455;
      }

      .cls-19 {
        fill: none;
        stroke: #fff;
        stroke-width: 3px;
      }
    </style>
  </defs>
  <g id="Group_1736" data-name="Group 1736" transform="translate(-527.336 -198.213)">
    <g id="Group_580" data-name="Group 580" transform="translate(833.844 198.658)">
      <path id="Path_471" data-name="Path 471" class="cls-1" d="M1214.606,614.4V785.115H301.7c17.06-7.154,35.677-12.72,46.648-24.877,25.123-27.857-7.064-67.579,6.731-99.875,16.66-38.977,90.188-48.094,108.414-86.643,8.626-18.265-.381-35.743,3.191-54.266,3.233-16.764,13.454-32.779,29.249-44.52,12.8-9.514,29.336-16.786,36.993-29.2,7.27-11.79,4.91-25.69,8.341-38.491,4.306-16.065,18.716-30.076,37.3-37.645,17.717-7.215,47.512-9.982,66.532-5.166,23.849,6.038,45.57,23.43,63.641,36.455,15.823,11.4,31.5,14.4,53.027,10.744,46.126-7.841,80.154-39.294,123.29-52.979a155.466,155.466,0,0,1,28.244-6.288c22.424-2.722,47.073,1.108,63.383,13.388,14.794,11.146,20.917,27.475,33.128,40.377,25.165,26.6,77.677,33.65,98.577,62.272,20.45,27.993,8.138,64.767,27.272,93.007C1151.857,585.293,1189.391,596.477,1214.606,614.4Z" transform="translate(-608.208 -351.527)"/>
      <path id="Path_472" data-name="Path 472" class="cls-1" d="M1214.439,435.456c4.121.724,8.784.875,12.028-1.767,2.926-2.383,3.9-6.423,4.11-10.19,1.074-19.231-35.271-72.632-54.293-44.649C1159.1,404.128,1192.892,431.668,1214.439,435.456Z" transform="translate(-708.659 -371.347)"/>
    </g>
    <g id="Group_582" data-name="Group 582" class="cls-2" transform="translate(-47.705 -16.241)">
      <rect id="Rectangle_249" data-name="Rectangle 249" class="cls-3" width="325.266" height="353.527" transform="translate(873.336 311.782)"/>
      <rect id="Rectangle_250" data-name="Rectangle 250" class="cls-4" width="41.948" height="72.476" transform="translate(1014.995 311.782)"/>
      <rect id="Rectangle_252" data-name="Rectangle 252" class="cls-5" width="280.336" height="224.649" transform="translate(786.151 440.66)"/>
      <rect id="Rectangle_253" data-name="Rectangle 253" class="cls-4" width="36.154" height="63.417" transform="translate(908.242 601.892)"/>
      <rect id="Rectangle_254" data-name="Rectangle 254" class="cls-4" width="36.154" height="72.945" transform="translate(908.242 440.66)"/>
      <rect id="Rectangle_255" data-name="Rectangle 255" class="cls-6" width="275.096" height="155.12" transform="translate(959.302 510.189)"/>
      <g id="Bluehost_icon_-_logo" data-name="Bluehost icon - logo" class="cls-7" transform="translate(1148.705 330.242)">
        <path id="Icon" class="cls-1" d="M31.772-.923V8H22.9V-.923Zm-11.45,0V8H11.446V-.923Zm-11.45,0V8H0V-.923Zm22.9-11.539v8.922H22.9v-8.922Zm-11.45,0v8.922H11.446v-8.922Zm-11.45,0v8.922H0v-8.922ZM31.772-24v8.921H22.9V-24Zm-11.45,0v8.921H11.446V-24ZM8.872-24v8.921H0V-24Z" transform="translate(0 24)"/>
      </g>
    </g>
    <rect id="Rectangle_294" data-name="Rectangle 294" class="cls-8" width="258.467" height="174.207" rx="11.558" transform="translate(993.356 463.158)"/>
    <rect id="Rectangle_295" data-name="Rectangle 295" class="cls-1" width="239.858" height="153.53" transform="translate(1002.661 473.496)"/>
    <rect id="Rectangle_296" data-name="Rectangle 296" class="cls-9" width="239.858" height="14.388" transform="translate(1002.661 473.496)"/>
    <rect id="Rectangle_297" data-name="Rectangle 297" class="cls-10" width="239.858" height="16.887" transform="translate(1002.661 487.885)"/>
    <g id="Group_579" data-name="Group 579" transform="translate(1219.917 478.437)">
      <g id="Group_574" data-name="Group 574" transform="translate(0 0)">
        <g id="Group_571" data-name="Group 571">
          <ellipse id="Ellipse_43" data-name="Ellipse 43" class="cls-11" cx="1.982" cy="1.982" rx="1.982" ry="1.982"/>
        </g>
        <g id="Group_572" data-name="Group 572" transform="translate(6.376 0)">
          <path id="Path_595" data-name="Path 595" class="cls-11" d="M557.379,194.11a1.981,1.981,0,1,1-1.982-1.981A1.982,1.982,0,0,1,557.379,194.11Z" transform="translate(-553.416 -192.129)"/>
        </g>
        <g id="Group_573" data-name="Group 573" transform="translate(12.751 0)">
          <path id="Path_596" data-name="Path 596" class="cls-11" d="M567.043,194.11a1.981,1.981,0,1,1-1.982-1.981A1.982,1.982,0,0,1,567.043,194.11Z" transform="translate(-563.08 -192.129)"/>
        </g>
      </g>
    </g>
    <rect id="Rectangle_300" data-name="Rectangle 300" class="cls-1" width="124.064" height="7.409" transform="translate(1010.932 492.709)"/>
    <rect id="Rectangle_298" data-name="Rectangle 298" class="cls-8" width="19.471" height="7.409" transform="translate(1134.996 492.709)"/>
    <rect id="Rectangle_299" data-name="Rectangle 299" class="cls-8" width="73.701" height="5.779" transform="translate(1098.274 656.509)"/>
    <rect id="Rectangle_301" data-name="Rectangle 301" class="cls-8" width="15.404" height="26.33" transform="translate(1127.423 633.068)"/>
    <g id="Group_563" data-name="Group 563" transform="translate(1273.448 610.875)">
      <g id="Group_557" data-name="Group 557" transform="translate(7.808 2.597)">
        <path id="Path_581" data-name="Path 581" class="cls-1" d="M716.8,359.42H619.73v.051c3.946.507,7.036,5.071,7.036,10.629v.52c0,5.559-3.089,10.121-7.036,10.629v.051H716.8c4.289,0,7.768-4.782,7.768-10.68v-.52C724.572,364.2,721.094,359.42,716.8,359.42Z" transform="translate(-619.73 -359.42)"/>
      </g>
      <g id="Group_558" data-name="Group 558" transform="translate(7.808 2.597)">
        <path id="Path_582" data-name="Path 582" class="cls-12" d="M626.726,369.034h97.806c-.389-5.4-3.7-9.614-7.728-9.614H619.73v.051C623.421,359.946,626.361,363.968,626.726,369.034Z" transform="translate(-619.73 -359.42)"/>
      </g>
      <path id="Path_583" data-name="Path 583" class="cls-13" d="M709.714,355.484H607.894v4.42h101.82a8.84,8.84,0,1,1,0,17.68H607.894v4.421h101.82a13.261,13.261,0,1,0,0-26.521Z" transform="translate(-607.894 -355.484)"/>
      <g id="Group_560" data-name="Group 560" transform="translate(10.24 29.118)">
        <g id="Group_559" data-name="Group 559">
          <path id="Path_584" data-name="Path 584" class="cls-1" d="M631.183,399.621h97.074v.051c-3.946.507-7.036,5.071-7.036,10.629v.52c0,5.559,3.089,10.121,7.036,10.629v.051H631.183c-4.29,0-7.767-4.782-7.767-10.68v-.52C623.416,404.4,626.893,399.621,631.183,399.621Z" transform="translate(-623.416 -399.621)"/>
        </g>
      </g>
      <g id="Group_562" data-name="Group 562" transform="translate(10.279 29.118)">
        <g id="Group_561" data-name="Group 561">
          <path id="Path_585" data-name="Path 585" class="cls-12" d="M721.281,409.235H623.475c.389-5.4,3.7-9.614,7.728-9.614h97.074v.051C724.587,400.147,721.646,404.169,721.281,409.235Z" transform="translate(-623.475 -399.621)"/>
        </g>
      </g>
      <path id="Path_586" data-name="Path 586" class="cls-8" d="M632.991,395.685H734.812v4.42H632.991a8.84,8.84,0,0,0,0,17.68H734.812v4.421H632.991a13.261,13.261,0,1,1,0-26.521Z" transform="translate(-611.922 -369.164)"/>
      <path id="Path_587" data-name="Path 587" class="cls-14" d="M649.432,374.3l-4.089-2.652-4.089,2.652V362.141h8.177Z" transform="translate(-619.246 -357.749)"/>
    </g>
    <rect id="Rectangle_277" data-name="Rectangle 277" class="cls-15" width="17.128" height="1.879" transform="translate(707.523 595.772)"/>
    <g id="Group_570" data-name="Group 570" transform="translate(550 609.118)">
      <g id="Group_564" data-name="Group 564" transform="translate(7.808 2.597)">
        <path id="Path_588" data-name="Path 588" class="cls-1" d="M90.2,352.151H-6.872v.051c3.946.507,7.036,5.071,7.036,10.629v.52c0,5.559-3.089,10.121-7.036,10.629v.051H90.2c4.289,0,7.768-4.782,7.768-10.68v-.52C97.97,356.933,94.492,352.151,90.2,352.151Z" transform="translate(6.872 -352.151)"/>
      </g>
      <g id="Group_565" data-name="Group 565" transform="translate(7.808 2.597)">
        <path id="Path_589" data-name="Path 589" class="cls-12" d="M.124,361.765H97.93c-.389-5.4-3.7-9.614-7.728-9.614H-6.872v.051C-3.181,352.677-.241,356.7.124,361.765Z" transform="translate(6.872 -352.151)"/>
      </g>
      <path id="Path_590" data-name="Path 590" class="cls-8" d="M83.112,348.215H-18.708v4.42H83.112a8.84,8.84,0,1,1,0,17.68H-18.708v4.421H83.112a13.261,13.261,0,1,0,0-26.521Z" transform="translate(18.708 -348.215)"/>
      <g id="Group_567" data-name="Group 567" transform="translate(10.24 29.118)">
        <g id="Group_566" data-name="Group 566" transform="translate(0)">
          <path id="Path_591" data-name="Path 591" class="cls-12" d="M4.581,392.352h97.074v.051c-3.946.507-7.036,5.071-7.036,10.629v.52c0,5.559,3.089,10.121,7.036,10.629v.051H4.581c-4.289,0-7.767-4.782-7.767-10.68v-.52C-3.186,397.134.291,392.352,4.581,392.352Z" transform="translate(3.186 -392.352)"/>
        </g>
      </g>
      <g id="Group_569" data-name="Group 569" transform="translate(10.279 29.118)">
        <g id="Group_568" data-name="Group 568" transform="translate(0)">
          <path id="Path_592" data-name="Path 592" class="cls-1" d="M94.679,401.966H-3.127c.389-5.4,3.7-9.614,7.728-9.614h97.074v.051C97.984,392.878,95.044,396.9,94.679,401.966Z" transform="translate(3.127 -392.352)"/>
        </g>
      </g>
      <path id="Path_593" data-name="Path 593" class="cls-13" d="M6.389,388.416H108.21v4.42H6.389a8.84,8.84,0,1,0,0,17.68H108.21v4.421H6.389a13.261,13.261,0,1,1,0-26.521Z" transform="translate(14.68 -361.895)"/>
      <path id="Path_594" data-name="Path 594" class="cls-14" d="M22.83,367.028l-4.089-2.652-4.089,2.652V354.872H22.83Z" transform="translate(7.356 -350.48)"/>
    </g>
    <rect id="Rectangle_278" data-name="Rectangle 278" class="cls-8" width="258.467" height="174.207" rx="11.558" transform="translate(697.803 463.158)"/>
    <rect id="Rectangle_279" data-name="Rectangle 279" class="cls-1" width="239.858" height="153.53" transform="translate(707.108 473.496)"/>
    <rect id="Rectangle_280" data-name="Rectangle 280" class="cls-9" width="239.858" height="14.388" transform="translate(707.108 473.496)"/>
    <rect id="Rectangle_281" data-name="Rectangle 281" class="cls-14" width="239.858" height="16.887" transform="translate(707.108 487.885)"/>
    <g id="Group_575" data-name="Group 575" transform="translate(885.44 479.097)">
      <g id="Group_574-2" data-name="Group 574" transform="translate(0 0)">
        <g id="Group_571-2" data-name="Group 571">
          <ellipse id="Ellipse_43-2" data-name="Ellipse 43" class="cls-11" cx="1.982" cy="1.982" rx="1.982" ry="1.982"/>
        </g>
        <g id="Group_572-2" data-name="Group 572" transform="translate(6.376 0)">
          <path id="Path_595-2" data-name="Path 595" class="cls-11" d="M557.379,194.11a1.981,1.981,0,1,1-1.982-1.981A1.982,1.982,0,0,1,557.379,194.11Z" transform="translate(-553.416 -192.129)"/>
        </g>
        <g id="Group_573-2" data-name="Group 573" transform="translate(12.751 0)">
          <path id="Path_596-2" data-name="Path 596" class="cls-11" d="M567.043,194.11a1.981,1.981,0,1,1-1.982-1.981A1.982,1.982,0,0,1,567.043,194.11Z" transform="translate(-563.08 -192.129)"/>
        </g>
      </g>
    </g>
    <rect id="Rectangle_282" data-name="Rectangle 282" class="cls-1" width="124.064" height="7.409" transform="translate(715.379 492.709)"/>
    <rect id="Rectangle_283" data-name="Rectangle 283" class="cls-8" width="19.471" height="7.409" transform="translate(839.443 492.709)"/>
    <path id="Path_597" data-name="Path 597" class="cls-16" d="M265.47,280.409l7.216,5.064-7.216,4.5Z" transform="translate(474.646 256.928)"/>
    <path id="Path_598" data-name="Path 598" class="cls-16" d="M265.47,363.141l7.216,5.064-7.216,4.5Z" transform="translate(474.646 228.776)"/>
    <g id="Group_578" data-name="Group 578" transform="translate(1328.697 548.241)">
      <rect id="Rectangle_284" data-name="Rectangle 284" class="cls-1" width="5.622" height="6.806" transform="translate(12.204 8.403)"/>
      <rect id="Rectangle_285" data-name="Rectangle 285" class="cls-10" width="5.622" height="26.632" transform="translate(12.204 15.209)"/>
      <rect id="Rectangle_286" data-name="Rectangle 286" class="cls-1" width="5.622" height="6.806" transform="translate(24.644 5.43) rotate(11.766)"/>
      <rect id="Rectangle_287" data-name="Rectangle 287" class="cls-14" width="5.622" height="26.632" transform="translate(23.256 12.093) rotate(11.766)"/>
      <rect id="Rectangle_288" data-name="Rectangle 288" class="cls-1" width="5.622" height="6.806" transform="translate(0 1.245) rotate(-12.791)"/>
      <rect id="Rectangle_289" data-name="Rectangle 289" class="cls-14" width="5.622" height="26.632" transform="translate(1.507 7.882) rotate(-12.791)"/>
      <rect id="Rectangle_290" data-name="Rectangle 290" class="cls-1" width="5.622" height="6.806" transform="translate(38.566 2.524) rotate(25.326)"/>
      <rect id="Rectangle_291" data-name="Rectangle 291" class="cls-10" width="5.622" height="26.632" transform="translate(35.654 8.676) rotate(25.326)"/>
      <g id="Group_576" data-name="Group 576" transform="translate(2.444 28.373)">
        <path id="Path_599" data-name="Path 599" class="cls-9" d="M723.983,337.817h-23.01l-5.627-34.265h34.265Z" transform="translate(-695.346 -303.552)"/>
      </g>
      <g id="Group_577" data-name="Group 577" transform="translate(2.444 28.373)">
        <path id="Path_600" data-name="Path 600" class="cls-9" d="M703.887,303.552h-8.542l5.627,34.265h7.7Z" transform="translate(-695.346 -303.552)"/>
      </g>
    </g>
    <rect id="Rectangle_292" data-name="Rectangle 292" class="cls-8" width="73.701" height="5.779" transform="translate(790.186 656.509)"/>
    <rect id="Rectangle_293" data-name="Rectangle 293" class="cls-8" width="15.404" height="26.33" transform="translate(819.335 633.068)"/>
    <path id="Path_607" data-name="Path 607" class="cls-17" d="M1695.547,1062.939l-23.676-25.815s-18.186-19.208,1.674-36.291c.7-.3,1.387-.573,2.218-.863,17.836-6.242,25.533,11.484,25.533,11.484s5.729-20.666,27.378-14.476,21.4,21.25,13.186,31.651S1695.547,1062.939,1695.547,1062.939Z" transform="translate(-878.97 -461.821)"/>
    <path id="Path_610" data-name="Path 610" class="cls-18" d="M1695.853,1063.594l-23.907-26.067s-18.364-19.4,1.69-36.646c.708-.307,1.4-.578,2.24-.872,18.011-6.3,25.782,11.6,25.782,11.6s5.785-20.867,27.646-14.617,21.607,21.457,13.315,31.96S1695.853,1063.594,1695.853,1063.594Z" transform="translate(-583.089 -461.896)"/>
    <path id="Path_2032" data-name="Path 2032" class="cls-19" d="M812.452,544.346l6.715,14.908,19.477,4.082L834.5,581.257l15.129,6.027-5.408,13.4" transform="translate(-10.492 -8.573)"/>
    <path id="Path_2033" data-name="Path 2033" class="cls-19" d="M812.452,544.346l6.78,15.054,19.667,4.122-4.185,18.1,15.277,6.086-5.461,13.53" transform="translate(287.181 -8.631)"/>
  </g>
</svg>
