<svg id="Group_556" data-name="Group 556" xmlns="http://www.w3.org/2000/svg" width="621.938" height="380.116" viewBox="0 0 621.938 380.116">
  <g id="Group_514" data-name="Group 514" transform="translate(0)">
    <path id="Path_471" data-name="Path 471" d="M923.638,581.745V731.253H301.7c11.622-6.265,24.306-11.14,31.78-21.786,17.116-24.4-4.812-59.184,4.585-87.468,11.35-34.135,61.443-42.12,73.86-75.88,5.876-16-.26-31.3,2.174-47.524a68.22,68.22,0,0,1,19.927-38.99c8.721-8.332,19.986-14.7,25.2-25.576,4.953-10.326,3.345-22.5,5.682-33.71,2.933-14.069,12.751-26.34,25.413-32.969,12.07-6.319,32.369-8.742,45.326-4.525,16.248,5.288,31.046,20.519,43.357,31.926,10.78,9.987,21.463,12.613,36.126,9.409,31.424-6.867,54.607-34.413,83.994-46.4a86.339,86.339,0,0,1,19.242-5.507c15.277-2.383,32.069.97,43.181,11.724,10.079,9.761,14.25,24.062,22.569,35.361,17.144,23.3,52.919,29.47,67.158,54.536,13.932,24.516,5.544,56.721,18.58,81.453C880.888,556.253,906.46,566.048,923.638,581.745Z" transform="translate(-301.7 -351.137)" fill="#fff"/>
    <path id="Path_472" data-name="Path 472" d="M1209.115,427.437c3.609.634,7.693.766,10.534-1.548,2.562-2.087,3.415-5.625,3.6-8.924.94-16.842-30.889-63.609-47.548-39.1C1160.649,400,1190.244,424.12,1209.115,427.437Z" transform="translate(-675.296 -370.902)" fill="#fff"/>
  </g>
  <g id="Group_515" data-name="Group 515" transform="translate(286.247 42.927)">
    <rect id="Rectangle_245" data-name="Rectangle 245" width="13.4" height="20.281" transform="translate(65.166 42.399)" fill="#a8dbe9"/>
    <path id="Path_578" data-name="Path 578" d="M8.509,0H20.771a8.509,8.509,0,0,1,8.509,8.509v3.136a8.509,8.509,0,0,1-8.509,8.509H8.509A8.509,8.509,0,0,1,0,11.645V8.509A8.509,8.509,0,0,1,8.509,0Z" transform="translate(57.272 23.069)" fill="#a8dbe9"/>
    <rect id="Rectangle_247" data-name="Rectangle 247" width="9.606" height="14.538" transform="matrix(0.833, 0.553, -0.553, 0.833, 115.925, 65.374)" fill="#a8dbe9"/>
    <rect id="Rectangle_248" data-name="Rectangle 248" width="20.989" height="14.447" rx="6.965" transform="translate(118.88 50.701) rotate(33.603)" fill="#a8dbe9"/>
    <path id="Path_577" data-name="Path 577" d="M71.867,0A71.867,71.867,0,1,1,0,71.867,71.867,71.867,0,0,1,71.867,0Z" transform="translate(0 60.047)" fill="#4fb9d5"/>
    <path id="Path_473" data-name="Path 473" d="M1007.092,613.539a59.543,59.543,0,1,1-7.571-29.083A59.556,59.556,0,0,1,1007.092,613.539Z" transform="translate(-875.669 -481.627)" fill="#fff"/>
    <path id="Path_474" data-name="Path 474" d="M1044.911,586.367l-51.986,29.083,17.146-57.051A59.715,59.715,0,0,1,1044.911,586.367Z" transform="translate(-921.059 -483.537)" fill="#a8dbe9"/>
    <path id="Path_475" data-name="Path 475" d="M971.093,426.483A28.647,28.647,0,1,0,999.74,455.13,28.648,28.648,0,0,0,971.093,426.483Zm0,50.515a21.869,21.869,0,1,1,21.868-21.869A21.868,21.868,0,0,1,971.093,477Z" transform="translate(-899.226 -426.483)" fill="#4fb9d5"/>
  </g>
  <path id="Path_476" data-name="Path 476" d="M1110.294,691.438l-63.434-51a4.323,4.323,0,0,0-7.031,3.368v22.367H839.781v57.267h200.048v22.367a4.323,4.323,0,0,0,7.031,3.369l63.434-51A4.323,4.323,0,0,0,1110.294,691.438Z" transform="translate(-568.577 -475.675)" fill="#80deea"/>
  <rect id="Rectangle_249" data-name="Rectangle 249" width="156.907" height="170.541" transform="translate(191.638 123.331)" fill="#53c1df"/>
  <rect id="Rectangle_250" data-name="Rectangle 250" width="20.236" height="34.962" transform="translate(259.974 123.331)" fill="#50bad7"/>
  <g id="Group_522" data-name="Group 522" transform="translate(170.358 214.978)">
    <rect id="Rectangle_251" data-name="Rectangle 251" width="35.831" height="22.672" transform="translate(54.688 107.823) rotate(180)" fill="#212121"/>
    <path id="Path_477" data-name="Path 477" d="M963.523,916.769H756.485a3.6,3.6,0,0,1-3.31-5.009l10.364-24.322h198.11Z" transform="translate(-701.351 -797.898)" fill="#e6e7e7"/>
    <path id="Path_478" data-name="Path 478" d="M963.893,888.689v16.669a3.283,3.283,0,0,1-3.283,3.283H925.463a22.5,22.5,0,1,0-44.495,0H769.607a22.5,22.5,0,1,0-44.495,0H721.3a3.283,3.283,0,0,1-3.283-3.283V888.642H677.5v-20H940.088l3.651,2.574,9.231,14.188h7.64A3.283,3.283,0,0,1,963.893,888.689Z" transform="translate(-668.749 -789.769)" fill="#003d64"/>
    <path id="Path_479" data-name="Path 479" d="M696.4,868.644H687.53v36.714a3.283,3.283,0,0,0,3.283,3.283h2.307a3.283,3.283,0,0,0,3.283-3.283Z" transform="translate(-673.086 -789.769)" fill="#37474f"/>
    <path id="Path_480" data-name="Path 480" d="M676.971,868.644h-7.336a1.537,1.537,0,0,0-1.537,1.537v19.364a2.871,2.871,0,0,0,2.871,2.871H674.1a2.871,2.871,0,0,0,2.871-2.871Z" transform="translate(-664.682 -789.769)" fill="#37474f"/>
    <path id="Path_481" data-name="Path 481" d="M664.48,875.345h0a2.4,2.4,0,0,0-2.4,2.4v8.067a2.4,2.4,0,0,0,2.4,2.4h0a2.4,2.4,0,0,0,2.4-2.4v-8.067A2.4,2.4,0,0,0,664.48,875.345Z" transform="translate(-662.078 -792.667)" fill="#f59904"/>
    <path id="Path_482" data-name="Path 482" d="M952.182,909.311a22.336,22.336,0,0,0-4.21,9.724H836.467a22.35,22.35,0,0,0-4.21-9.724Z" transform="translate(-735.681 -807.358)" fill="#fff"/>
    <path id="Path_483" data-name="Path 483" d="M927.739,891.06l-.15-9.343H677.5v9.342Z" transform="translate(-668.75 -795.423)" fill="#e4e5e5"/>
    <path id="Path_484" data-name="Path 484" d="M1081.291,825.294h27.055a2.58,2.58,0,0,0,2.58-2.58V790.6a2.576,2.576,0,0,0-.332-1.264l-2.641-4.7L1078.038,731.5h0a3.322,3.322,0,0,0-2.885-1.7l-39.554-.144a2.58,2.58,0,0,0-2.579,2.58v76.29h35.972a2.58,2.58,0,0,1,2.259,1.334l7.782,14.1A2.581,2.581,0,0,0,1081.291,825.294Z" transform="translate(-822.511 -729.657)" fill="#dedfdf"/>
    <path id="Path_485" data-name="Path 485" d="M1077.26,736.358h-27.878a2.58,2.58,0,0,0-2.579,2.58v39.85a3.071,3.071,0,0,0,3.073,3.071l29.21-.024a2.567,2.567,0,0,1,.656.084l19.835,5.2a2.579,2.579,0,0,0,2.974-3.624c-5.272-10.807-17.628-35.994-23.034-45.807A2.576,2.576,0,0,0,1077.26,736.358Z" transform="translate(-828.472 -732.555)" fill="#003d64"/>
    <path id="Path_486" data-name="Path 486" d="M1158.479,851.452v16.9a1.32,1.32,0,0,0,.387.932l3.885,3.885a1.32,1.32,0,0,0,.932.386h2.229a1.316,1.316,0,0,0,1.317-1.317V860.256c0-5.921-3.255-9.376-7.175-10.1A1.324,1.324,0,0,0,1158.479,851.452Z" transform="translate(-876.773 -781.764)" fill="#eee"/>
    <path id="Path_487" data-name="Path 487" d="M1158.477,851.447V860.7h8.749v-.449a13.686,13.686,0,0,0-.158-2.159,9.315,9.315,0,0,0-4.266-6.9,8.232,8.232,0,0,0-2.766-1.042A1.32,1.32,0,0,0,1158.477,851.447Z" transform="translate(-876.772 -781.761)" fill="#f59904"/>
    <circle id="Ellipse_42" data-name="Ellipse 42" cx="19.165" cy="19.165" r="19.165" transform="translate(209.425 125.868) rotate(-67.5)" fill="#37474f"/>
    <path id="Path_488" data-name="Path 488" d="M785.995,937.733a19.165,19.165,0,1,0-19.166-19.165A19.186,19.186,0,0,0,785.995,937.733Z" transform="translate(-707.383 -803.073)" fill="#37474f"/>
    <path id="Path_489" data-name="Path 489" d="M1064.916,936.4a13.541,13.541,0,1,0-13.541-13.541A13.556,13.556,0,0,0,1064.916,936.4Z" transform="translate(-830.45 -807.359)" fill="#eee"/>
    <path id="Path_490" data-name="Path 490" d="M1068.849,935.168a8.379,8.379,0,1,0-8.379-8.379A8.388,8.388,0,0,0,1068.849,935.168Z" transform="translate(-834.384 -811.293)" fill="#fff"/>
    <path id="Path_491" data-name="Path 491" d="M790.281,936.4a13.541,13.541,0,1,0-13.541-13.541A13.556,13.556,0,0,0,790.281,936.4Z" transform="translate(-711.67 -807.359)" fill="#eee"/>
    <g id="Group_518" data-name="Group 518" transform="translate(125.636 104.11)">
      <g id="Group_516" data-name="Group 516" transform="translate(51.082)">
        <path id="Path_492" data-name="Path 492" d="M973.477,916.084c0,1.642,2.425,2.972,5.416,2.972s5.416-1.331,5.416-2.972-2.424-2.973-5.416-2.973S973.477,914.442,973.477,916.084Z" transform="translate(-973.477 -913.111)" fill="#f59904"/>
      </g>
      <g id="Group_517" data-name="Group 517">
        <path id="Path_493" data-name="Path 493" d="M883.464,916.084c0,1.642,2.425,2.972,5.416,2.972s5.416-1.331,5.416-2.972-2.425-2.973-5.416-2.973S883.464,914.442,883.464,916.084Z" transform="translate(-883.464 -913.111)" fill="#f59904"/>
      </g>
    </g>
    <g id="Group_519" data-name="Group 519" transform="translate(70.324 106.965)">
      <path id="Path_494" data-name="Path 494" d="M790.438,933.916a8.379,8.379,0,1,0-3.457-11.334A8.388,8.388,0,0,0,790.438,933.916Z" transform="translate(-785.998 -918.143)" fill="#fff"/>
    </g>
    <path id="Path_495" data-name="Path 495" d="M1112.786,736.358h0a1.978,1.978,0,0,0-1.756,2.893c6.234,11.925,21.012,37.923,25.9,46.495a3.95,3.95,0,0,0,4.667,1.795h0Z" transform="translate(-856.152 -732.555)" fill="#003d64"/>
    <path id="Path_496" data-name="Path 496" d="M1167.307,876.512c0,2.192.627,3.968,1.4,3.968s1.4-1.776,1.4-3.968-.626-3.968-1.4-3.968S1167.307,874.321,1167.307,876.512Z" transform="translate(-880.591 -791.456)" fill="#fff"/>
    <path id="Path_497" data-name="Path 497" d="M1160.134,875.049c0,1.384.627,2.5,1.4,2.5s1.4-1.121,1.4-2.5-.627-2.5-1.4-2.5S1160.134,873.665,1160.134,875.049Z" transform="translate(-877.488 -791.456)" fill="#fff"/>
    <path id="Path_498" data-name="Path 498" d="M1162.6,858c0,1.7.769,3.071,1.717,3.071s1.717-1.375,1.717-3.071-.769-3.071-1.717-3.071S1162.6,856.3,1162.6,858Z" transform="translate(-878.556 -783.835)" fill="#f59904"/>
    <path id="Path_499" data-name="Path 499" d="M1108.361,767.3c-.974-1.777-3.032-2.677-5.03-3.128a1.767,1.767,0,0,0-2.141,1.733v19.083a1.771,1.771,0,0,0,1.772,1.771h5.455a1.771,1.771,0,0,0,1.77-1.716C1110.316,781.017,1110.409,771.037,1108.361,767.3Z" transform="translate(-851.994 -744.564)" fill="#e6e7e7"/>
    <g id="Group_520" data-name="Group 520" transform="translate(251.726 38.767)">
      <path id="Path_500" data-name="Path 500" d="M1107.043,806.32l19.381.785-1.609-2.876h-15.67a.784.784,0,0,1-.784-.784V797.97h-2.71l.643,7.632A.783.783,0,0,0,1107.043,806.32Z" transform="translate(-1105.65 -797.97)" fill="#e6e7e7"/>
    </g>
    <g id="Group_521" data-name="Group 521" transform="translate(272.564 104.11)">
      <path id="Path_501" data-name="Path 501" d="M1142.368,916.084c0,1.642,2.425,2.972,5.417,2.972s5.416-1.331,5.416-2.972-2.424-2.973-5.416-2.973S1142.368,914.442,1142.368,916.084Z" transform="translate(-1142.368 -913.111)" fill="#f59904"/>
    </g>
    <path id="Path_502" data-name="Path 502" d="M1046.611,836.581h0a2.155,2.155,0,0,1-2.155-2.155v-7.352a2.155,2.155,0,0,1,2.155-2.155h0a2.155,2.155,0,0,1,2.155,2.155v7.352A2.155,2.155,0,0,1,1046.611,836.581Z" transform="translate(-827.457 -770.858)" fill="#37474f"/>
  </g>
  <g id="Group_523" data-name="Group 523" transform="translate(139.57 75.159)">
    <path id="Path_503" data-name="Path 503" d="M688.331,575.68s12.2-23.016,3.217-51.5-23.97-15.642-13.664,7.346A122.436,122.436,0,0,1,688.331,575.68Z" transform="translate(-636.62 -493.899)" fill="#a8dbe9"/>
    <path id="Path_504" data-name="Path 504" d="M659.875,583.687s4.344-29.711-16.565-44.492-45.249-18.583-29.846-1.9,20.163,23.824,13.5,24.438-13.95,10.643,6.053,10.4C653.039,571.893,659.875,583.687,659.875,583.687Z" transform="translate(-608.164 -501.907)" fill="#a8dbe9"/>
    <path id="Path_505" data-name="Path 505" d="M659.536,565.059s7.2-41.337-26.838-71.82c-30.274-27.116-34.908,7.52-2.781,28.079C654.427,537,659.536,565.059,659.536,565.059Z" transform="translate(-607.825 -483.278)" fill="#003d64"/>
    <path id="Path_506" data-name="Path 506" d="M699.531,613.195l-6.69,36.484h-38.6l-6.69-36.484Z" transform="translate(-625.005 -539.467)" fill="#b2ebf2"/>
    <path id="Path_507" data-name="Path 507" d="M718.725,613.195l-6.69,36.484H698.619l-6.69-36.484Z" transform="translate(-644.2 -539.467)" fill="#80deea"/>
  </g>
  <rect id="Rectangle_252" data-name="Rectangle 252" width="135.233" height="108.37" transform="translate(149.58 185.502)" fill="#a8dbe9"/>
  <rect id="Rectangle_253" data-name="Rectangle 253" width="17.441" height="30.592" transform="translate(208.476 263.28)" fill="#50bad7"/>
  <rect id="Rectangle_254" data-name="Rectangle 254" width="17.441" height="35.188" transform="translate(208.476 185.502)" fill="#50bad7"/>
  <rect id="Rectangle_255" data-name="Rectangle 255" width="132.706" height="74.83" transform="translate(233.108 219.042)" fill="#4fb9d5"/>
  <g id="Group_526" data-name="Group 526" transform="translate(217.605 53.157)">
    <rect id="Rectangle_257" data-name="Rectangle 257" width="2.877" height="54.662" transform="translate(11.803 15.517)" fill="#455a64"/>
    <rect id="Rectangle_258" data-name="Rectangle 258" width="1.528" height="15.169" transform="translate(20.826 68.652) rotate(90)" fill="#455a64"/>
    <path id="Path_516" data-name="Path 516" d="M771.813,467.04H745.331l.871-3.053.472-1.647,5.1-17.831h13.606l5.1,17.831.472,1.647Z" transform="translate(-745.331 -444.509)" fill="#003d64"/>
    <path id="Path_517" data-name="Path 517" d="M771.606,477.576h-24.74l.471-1.647h23.8Z" transform="translate(-745.995 -458.099)" fill="#a8dbe9"/>
  </g>
  <g id="Group_527" data-name="Group 527" transform="translate(245.972 91.199)">
    <path id="Path_518" data-name="Path 518" d="M807.442,551.944s-3.732,8.8-3.132,9.2,6.6-7.8,6.6-7.8Z" transform="translate(-799.179 -529.017)" fill="#455a64"/>
    <path id="Path_519" data-name="Path 519" d="M911.634,551.944s3.732,8.8,3.132,9.2-6.6-7.8-6.6-7.8Z" transform="translate(-844.126 -529.017)" fill="#455a64"/>
    <path id="Path_520" data-name="Path 520" d="M869.87,537.936H801.364s-1.565-23.866,0-25.323,67-1.394,68.506,0S869.87,537.936,869.87,537.936Z" transform="translate(-797.632 -511.543)" fill="#80deea"/>
    <path id="Rectangle_259" data-name="Rectangle 259" d="M1.47,0H5.994a1.47,1.47,0,0,1,1.47,1.47V16.527a0,0,0,0,1,0,0H0a0,0,0,0,1,0,0V1.47A1.47,1.47,0,0,1,1.47,0Z" transform="translate(0 9.866)" fill="#b2ebf2"/>
    <path id="Rectangle_260" data-name="Rectangle 260" d="M1.47,0H5.994a1.47,1.47,0,0,1,1.47,1.47V16.527a0,0,0,0,1,0,0H0a0,0,0,0,1,0,0V1.47A1.47,1.47,0,0,1,1.47,0Z" transform="translate(68.506 9.866)" fill="#b2ebf2"/>
    <rect id="Rectangle_261" data-name="Rectangle 261" width="68.506" height="10.396" transform="translate(3.732 15.997)" fill="#b2ebf2"/>
  </g>
  <g id="Group_528" data-name="Group 528" transform="translate(306.366 185.888)">
    <path id="Path_521" data-name="Path 521" d="M924.062,711.237a32.6,32.6,0,0,0,5.119,6.087c3.714,3.25,2.031,5.613,1.846,6.17s-1.95,1.114-1.95,1.578,3.436.557,3.9-.186,1.033-6.17.569-7.284-2.043-3.157-1.579-6.314C932.269,709.234,924.062,711.237,924.062,711.237Z" transform="translate(-911.394 -692.221)" fill="#fff"/>
    <path id="Path_522" data-name="Path 522" d="M908.295,712s-5.014,4.272-5.014,5.107,3.249,4.457,3.807,4.829,2.043-.65,2.136-1.115-1.95-1.207-2.229-1.671a4.948,4.948,0,0,1-.721-1.52c-.128-.594,4.436-3.4,4.436-3.4Z" transform="translate(-902.406 -692.93)" fill="#fff"/>
    <path id="Path_523" data-name="Path 523" d="M904.282,699.658c.207.642,2.322,5.662,3.995,6.871,1.1.793,8.535.219,13.795-.532.827-.117,1.6-.239,2.284-.361a10.216,10.216,0,0,0,2.954-.777,2.057,2.057,0,0,0,.57-1.124c.389-1.661.012-4.467-1.126-5.749-1.485-1.672-9.564.556-11.607.092l-.079-.02a10.037,10.037,0,0,1-2.525-1.276l-.444-.291c-1.77-1.19-3.45-2.591-3.45-2.591l-4.551-1.206S903.9,698.472,904.282,699.658Z" transform="translate(-902.738 -684.58)" fill="#fff"/>
    <path id="Path_524" data-name="Path 524" d="M938.89,698.217s2.039-7.12-1.672-8.292c-3.421-1.081-8.078,4.763-4.92,7.27s4.828.372,4.828.372-2.693-1.671-1.95-2.786,2.693,2.136,2.693,2.136Z" transform="translate(-914.502 -683.326)" fill="#f59904"/>
    <path id="Path_525" data-name="Path 525" d="M912.952,710.692s3.528,10.771,3.528,12.164-1.758,1.452-1.819,2.005c-.1.918,2.848,1.169,3.313.612s-.193-12.576-.193-12.576Z" transform="translate(-906.589 -692.364)" fill="#fff"/>
    <path id="Path_526" data-name="Path 526" d="M942.067,724.978c-.465.742-3.3.5-3.3.036s1.766-1.021,1.951-1.578.928-2.6-2.787-5.85a14.647,14.647,0,0,1-3.01-3.875c-.248-.449-.457-.867-.625-1.23-.363-.781-.543-1.3-.543-1.3s7.022-1.628,6.976.269a.923.923,0,0,1-.01.1c-.424,2.881,1.268,5.086,1.92,6.3.062.117.115.222.156.32C943.257,719.28,942.532,724.236,942.067,724.978Z" transform="translate(-915.584 -692.294)" fill="#fff"/>
    <path id="Path_527" data-name="Path 527" d="M913.546,703.654a17.034,17.034,0,0,0-.223,3.354c.167,1.112,1.116,2.244,2.222,2.047,1.192-.212,1.676-1.713,2.747-2.275a3.316,3.316,0,0,1,2.685.1,9.792,9.792,0,0,0,2.621.857,7.729,7.729,0,0,0,1.385-.074,4.5,4.5,0,0,1,1.445.016,3,3,0,0,1,1.463.853,11.052,11.052,0,0,1,1.535,2.2c.751,1.264,1.913,2.609,3.373,2.434a2.063,2.063,0,0,0,.526-.136c-.652-1.21-2.344-3.414-1.92-6.3a.794.794,0,0,0,.01-.1c.389-1.661.012-4.467-1.126-5.749-1.485-1.672-9.563.556-11.607.092l-.079-.02a10.039,10.039,0,0,1-2.525-1.276l-.444-.291a9.569,9.569,0,0,1-1.88.4l-1.531.991A2.9,2.9,0,0,1,913.546,703.654Z" transform="translate(-906.274 -687.474)" fill="#f59904"/>
    <path id="Path_528" data-name="Path 528" d="M903.832,683.544s2.892-5.356,3.856-5.142,1.178,5.035,1.178,5.035Z" transform="translate(-902.645 -678.396)" fill="#f59904"/>
    <path id="Path_529" data-name="Path 529" d="M906.774,682.728l2.6.2s0-2.344-.521-2.669S906.774,682.728,906.774,682.728Z" transform="translate(-903.917 -679.188)" fill="#fbc02d"/>
    <path id="Path_530" data-name="Path 530" d="M915.535,690.142s5.034-1.714,5.57-.535-4.071,4.5-4.071,4.5Z" transform="translate(-907.706 -683.066)" fill="#f59904"/>
    <path id="Path_531" data-name="Path 531" d="M912.28,691.168a6.441,6.441,0,0,1-1.506,1.738c-1.143.881-2.86,1.383-5.383.187-4.071-1.928-4.034-5.879-3.213-7.176a5.057,5.057,0,0,1,1.586-1.615,4.222,4.222,0,0,1,4.2-.206C911.282,685.81,912.941,690.1,912.28,691.168Z" transform="translate(-901.74 -680.662)" fill="#fff"/>
    <path id="Path_532" data-name="Path 532" d="M919.28,690.554l.456,2.214s2.6-1.758,2.474-2.344S919.28,690.554,919.28,690.554Z" transform="translate(-909.326 -683.499)" fill="#fbc02d"/>
    <path id="Path_533" data-name="Path 533" d="M910.6,693.737a1.134,1.134,0,1,1-.316-1.356A1,1,0,0,1,910.6,693.737Z" transform="translate(-904.767 -684.317)" fill="#37474f"/>
    <path id="Path_534" data-name="Path 534" d="M915.878,692.96a.567.567,0,1,1-.676-.168A.5.5,0,0,1,915.878,692.96Z" transform="translate(-907.407 -684.597)" fill="#37474f"/>
    <path id="Path_535" data-name="Path 535" d="M910.919,687.739a.567.567,0,1,1-.638.278A.5.5,0,0,1,910.919,687.739Z" transform="translate(-905.398 -682.419)" fill="#37474f"/>
    <path id="Path_536" data-name="Path 536" d="M913.823,691.168a6.443,6.443,0,0,1-1.506,1.738,1.566,1.566,0,0,1-.957-1.531,3.663,3.663,0,0,1,.7-1.368,1.417,1.417,0,0,0,.18-1.457c-.385-.6-1.4-.533-1.737-1.161-.256-.482.049-1.086-.088-1.615a1.32,1.32,0,0,0-1.364-.86,13.122,13.122,0,0,1-2.261.326,1.843,1.843,0,0,1-1.481-.939,4.222,4.222,0,0,1,4.2-.206C912.825,685.81,914.484,690.1,913.823,691.168Z" transform="translate(-903.283 -680.662)" fill="#f59904"/>
  </g>
  <path id="Path_537" data-name="Path 537" d="M613.268,816.883H591.238a2.665,2.665,0,0,1-2.658-2.657h0a2.665,2.665,0,0,1,2.658-2.658h22.031a2.665,2.665,0,0,1,2.657,2.658h0A2.665,2.665,0,0,1,613.268,816.883Z" transform="translate(-459.932 -550.106)" fill="#a8dbe9"/>
  <path id="Path_538" data-name="Path 538" d="M628.9,574.986H606.873a2.665,2.665,0,0,1-2.658-2.657h0a2.665,2.665,0,0,1,2.658-2.658H628.9a2.665,2.665,0,0,1,2.657,2.658h0A2.665,2.665,0,0,1,628.9,574.986Z" transform="translate(-466.694 -445.485)" fill="#a8dbe9"/>
  <path id="Path_539" data-name="Path 539" d="M581.386,542.822H537.473a2.665,2.665,0,0,1-2.658-2.658h0a2.665,2.665,0,0,1,2.658-2.658h43.914a2.665,2.665,0,0,1,2.657,2.658h0A2.665,2.665,0,0,1,581.386,542.822Z" transform="translate(-448.584 -431.574)" fill="#a8dbe9"/>
  <path id="Path_579" data-name="Path 579" d="M581.386,542.822H537.473a2.665,2.665,0,0,1-2.658-2.658h0a2.665,2.665,0,0,1,2.658-2.658h43.914a2.665,2.665,0,0,1,2.657,2.658h0A2.665,2.665,0,0,1,581.386,542.822Z" transform="translate(-492.373 -446.462)" fill="#a8dbe9"/>
  <path id="Path_540" data-name="Path 540" d="M741.288,799.8H719.258a2.665,2.665,0,0,1-2.658-2.657h0a2.665,2.665,0,0,1,2.658-2.658h22.031a2.665,2.665,0,0,1,2.657,2.658h0A2.665,2.665,0,0,1,741.288,799.8Z" transform="translate(-515.3 -542.716)" fill="#4fb9d5"/>
  <path id="Path_541" data-name="Path 541" d="M769.461,762.6H747.43a2.665,2.665,0,0,1-2.658-2.657h0a2.665,2.665,0,0,1,2.658-2.658h22.031a2.665,2.665,0,0,1,2.658,2.658h0A2.665,2.665,0,0,1,769.461,762.6Z" transform="translate(-527.485 -526.628)" fill="#4fb9d5"/>
  <path id="Path_542" data-name="Path 542" d="M544.5,783.379H482.351a2.666,2.666,0,0,1-2.658-2.658h0a2.665,2.665,0,0,1,2.658-2.658H544.5a2.665,2.665,0,0,1,2.657,2.658h0A2.665,2.665,0,0,1,544.5,783.379Z" transform="translate(-412.838 -535.615)" fill="#a8dbe9"/>
  <path id="Path_543" data-name="Path 543" d="M576.213,749.876H538.972a2.665,2.665,0,0,1-2.658-2.658h0a2.665,2.665,0,0,1,2.658-2.657h37.241a2.665,2.665,0,0,1,2.658,2.657h0A2.666,2.666,0,0,1,576.213,749.876Z" transform="translate(-437.326 -521.125)" fill="#a8dbe9"/>
  <path id="Path_580" data-name="Path 580" d="M576.213,749.876H538.972a2.665,2.665,0,0,1-2.658-2.658h0a2.665,2.665,0,0,1,2.658-2.657h37.241a2.665,2.665,0,0,1,2.658,2.657h0A2.666,2.666,0,0,1,576.213,749.876Z" transform="translate(-511.767 -485.218)" fill="#a8dbe9"/>
  <path id="Path_544" data-name="Path 544" d="M1187.321,662.766H1150.08a2.666,2.666,0,0,1-2.657-2.658h0a2.665,2.665,0,0,1,2.657-2.657h37.242a2.665,2.665,0,0,1,2.658,2.657h0A2.666,2.666,0,0,1,1187.321,662.766Z" transform="translate(-701.632 -483.45)" fill="#80deea"/>
  <path id="Path_545" data-name="Path 545" d="M1075.483,662.766h-37.241a2.665,2.665,0,0,1-2.657-2.658h0a2.665,2.665,0,0,1,2.657-2.657h37.241a2.665,2.665,0,0,1,2.658,2.657h0A2.665,2.665,0,0,1,1075.483,662.766Z" transform="translate(-653.262 -483.45)" fill="#80deea"/>
  <g id="Group_529" data-name="Group 529" transform="translate(172.136 153.687)">
    <path id="Path_546" data-name="Path 546" d="M768.507,622.853c-6.2-.833-10.069,4.794-13.2,5.95-3.614,1.337-5.225-2.164-8.188-3.379-3.448-1.414-5.331.032-7.931,2.063a3.025,3.025,0,0,1-2.895.793,5.711,5.711,0,0,1-2.669-1.789c-.31-.362-.256-.745-.832-.735-.67.012-.951.847-.914,1.391a5.5,5.5,0,0,0,1.914,3.694,14.661,14.661,0,0,0,6.115,2.669,16.387,16.387,0,0,1,6.189,2.523c2.516,1.981,4.31,5.292,7.5,6.316,3.859,1.241,6.565-2.622,10.38-2.2,1.792.2,3.637.717,5.359.182a3.5,3.5,0,0,0,2.511-2.149c.4-1.481.112-2.4,1.4-3.662,2.068-2.023,4.488-4.583,3.314-7.83C775.524,623.837,771.067,623.2,768.507,622.853Z" transform="translate(-694.045 -622.137)" fill="#f59904"/>
    <path id="Path_547" data-name="Path 547" d="M710.784,656.751s1.563-3.551,2.17-5.162c1.12-2.97,2.86-15.754,2.86-15.754l-2.912-.926c-2.09,8.795-4.966,16.269-7.281,19.857Z" transform="translate(-682.688 -627.387)" fill="#37474f"/>
    <path id="Path_548" data-name="Path 548" d="M718.82,630.1s1.456-1.721,1.324-2.912-10.172-8.5-6.928-4.192c2.77,3.676,2.692,6.178,2.692,6.178Z" transform="translate(-685.695 -621.654)" fill="#37474f"/>
    <path id="Path_549" data-name="Path 549" d="M816.531,669.066a6.811,6.811,0,0,1,2.78-.309c.927.265,1.633,3.839.618,3.839a16.324,16.324,0,0,1-3.461-.88Z" transform="translate(-730.63 -641.996)" fill="#fff"/>
    <path id="Path_550" data-name="Path 550" d="M786,649.138s5.472,10.546,6.531,11.208,9.046.264,9.046.264a3.831,3.831,0,0,1-.063,2.651s-10.174,1.056-12.072.527-7.545-8.164-7.545-8.164Z" transform="translate(-715.679 -633.541)" fill="#80deea"/>
    <path id="Path_551" data-name="Path 551" d="M789.515,631.808c-.989.156-1.894,1.318-2.513,1.607a1.26,1.26,0,0,0-1.193-.925,1.379,1.379,0,0,0-1.061,1.685c.533,2.88.268,3.608-1.943,4.538-1.663.7,1.913,3.558,3.119,3.3.615-.131.426-1.653,1.05-1.751s1.484,1.094,2.411,1.16,5.278-6,5.467-7.179S791.644,631.472,789.515,631.808Z" transform="translate(-715.884 -626.026)" fill="#fff"/>
    <path id="Path_552" data-name="Path 552" d="M721.69,656.361a25.535,25.535,0,0,0-6.749-1.508c-3.027-.1-13.8,5.019-15.09,3.261-4.479-6.085-18.839-12.17-18.839-12.17l-1.75,2.076c5.449,3.424,17.044,15.7,18.154,15.984,1.837.466,25.928.432,25.928.432Z" transform="translate(-671.288 -632.16)" fill="#455a64"/>
    <path id="Path_553" data-name="Path 553" d="M674.935,644.177s-1.528-2.62-2.543-2.292c-5.294,1.708-8.826,9.178-6.4,7.325s7.193-2.957,7.193-2.957Z" transform="translate(-665.211 -630.392)" fill="#455a64"/>
    <path id="Path_554" data-name="Path 554" d="M808.57,669a5.482,5.482,0,0,1,2.6-.4c.927.264,2.471,3.839,1.456,3.839a24.458,24.458,0,0,1-3.795-.75Z" transform="translate(-727.214 -641.934)" fill="#fff"/>
    <path id="Path_555" data-name="Path 555" d="M804.527,667h12.179l8.869-13.5-.794-.4-8.34,12.576-11.914-.132Z" transform="translate(-725.466 -635.256)" fill="#e0f7fa"/>
    <path id="Path_556" data-name="Path 556" d="M771.828,646.986c.359,1.361-1.522,9.995-2.051,10.921s-3.764,0-4.634.861c-2.9,2.86-7.612,5.3-11.583,4.9s-5.626-8.737-3.508-8.671,6.288.662,7.81-.331,8.274-11.252,11.053-10.458A3.864,3.864,0,0,1,771.828,646.986Z" transform="translate(-701.504 -631.389)" fill="#b2ebf2"/>
    <path id="Path_557" data-name="Path 557" d="M785.03,650.654l-5.229,5.362s2.58,9.958,4.632,9.958,11.959-2.015,11.959-2.015a2.806,2.806,0,0,0-.265-2.692s-7.523.772-8.714.309S785.03,650.654,785.03,650.654Z" transform="translate(-714.771 -634.197)" fill="#b2ebf2"/>
    <path id="Path_558" data-name="Path 558" d="M821.876,669.053s2.025,1.583,2.157,2.113-1.941-.375-1.941-.375Z" transform="translate(-732.969 -642.154)" fill="#fff"/>
  </g>
  <g id="Group_550" data-name="Group 550" transform="translate(446.793 130.084)">
    <g id="Group_547" data-name="Group 547">
      <path id="Path_568" data-name="Path 568" d="M1166.878,590.73a1.2,1.2,0,0,1-.831-.331l-7.409-7.006-7.409,7.006a1.209,1.209,0,0,1-1.662-1.757l9.07-8.578,9.071,8.578a1.209,1.209,0,0,1-.831,2.088Z" transform="translate(-1149.189 -580.064)" fill="#fff"/>
    </g>
    <g id="Group_548" data-name="Group 548" transform="translate(0 8.95)">
      <path id="Path_569" data-name="Path 569" d="M1166.878,606.5a1.2,1.2,0,0,1-.831-.331l-7.409-7.006-7.409,7.006a1.209,1.209,0,0,1-1.662-1.758l9.07-8.578,9.071,8.578a1.209,1.209,0,0,1-.831,2.088Z" transform="translate(-1149.189 -595.835)" fill="#fff"/>
    </g>
    <g id="Group_549" data-name="Group 549" transform="translate(0 17.901)">
      <path id="Path_570" data-name="Path 570" d="M1166.878,622.273a1.2,1.2,0,0,1-.831-.331l-7.409-7.006-7.409,7.006a1.209,1.209,0,0,1-1.662-1.757l9.07-8.578,9.071,8.578a1.209,1.209,0,0,1-.831,2.088Z" transform="translate(-1149.189 -611.607)" fill="#fff"/>
    </g>
  </g>
  <g id="Group_551" data-name="Group 551" transform="translate(428.863 81.769)">
    <path id="Path_571" data-name="Path 571" d="M1146.1,511.578h-26.875a1.634,1.634,0,0,1-1.629-1.629h0a1.634,1.634,0,0,1,1.629-1.629H1146.1a1.633,1.633,0,0,1,1.629,1.629h0A1.633,1.633,0,0,1,1146.1,511.578Z" transform="translate(-1117.594 -500.719)" fill="#fff"/>
    <rect id="Rectangle_266" data-name="Rectangle 266" width="17.735" height="3.257" rx="1.629" transform="translate(0)" fill="#fff"/>
  </g>
  <g id="Group_554" data-name="Group 554" transform="translate(262.314 61.206)">
    <g id="Group_552" data-name="Group 552">
      <path id="Path_572" data-name="Path 572" d="M864.957,465.51c-2.464,0-3.735-1.536-4.757-2.769-1.049-1.267-1.765-2.043-3.212-2.043s-2.163.776-3.212,2.043c-1.021,1.234-2.293,2.769-4.756,2.769s-3.735-1.536-4.756-2.769c-1.049-1.267-1.765-2.043-3.211-2.043s-2.163.776-3.211,2.043c-1.021,1.233-2.293,2.769-4.756,2.769s-3.734-1.536-4.756-2.769c-1.049-1.267-1.765-2.043-3.211-2.043a1,1,0,1,1,0-2.006c2.464,0,3.735,1.536,4.756,2.769,1.048,1.267,1.764,2.043,3.211,2.043s2.163-.776,3.211-2.043c1.021-1.234,2.292-2.769,4.756-2.769s3.735,1.536,4.756,2.769c1.048,1.267,1.764,2.043,3.211,2.043s2.163-.776,3.212-2.043c1.022-1.234,2.293-2.769,4.756-2.769s3.735,1.536,4.757,2.769c1.049,1.267,1.765,2.043,3.212,2.043a1,1,0,0,1,0,2.005Z" transform="translate(-824.115 -458.692)" fill="#fff"/>
    </g>
    <g id="Group_553" data-name="Group 553" transform="translate(0 9.091)">
      <path id="Path_573" data-name="Path 573" d="M864.957,481.529c-2.464,0-3.735-1.536-4.757-2.769-1.049-1.267-1.765-2.044-3.212-2.044s-2.163.777-3.211,2.043c-1.022,1.234-2.293,2.77-4.757,2.77s-3.735-1.536-4.756-2.77c-1.049-1.267-1.765-2.043-3.211-2.043s-2.163.776-3.211,2.043c-1.021,1.234-2.293,2.77-4.756,2.77s-3.735-1.536-4.756-2.77c-1.049-1.266-1.765-2.043-3.211-2.043a1,1,0,1,1,0-2c2.464,0,3.735,1.536,4.756,2.77,1.048,1.267,1.764,2.043,3.211,2.043s2.163-.777,3.211-2.043c1.021-1.234,2.292-2.77,4.756-2.77s3.735,1.536,4.756,2.77c1.048,1.266,1.764,2.043,3.211,2.043s2.163-.777,3.212-2.043c1.022-1.234,2.293-2.77,4.757-2.77s3.735,1.536,4.757,2.77c1.049,1.266,1.765,2.043,3.212,2.043a1,1,0,1,1,0,2Z" transform="translate(-824.115 -474.711)" fill="#fff"/>
    </g>
  </g>
  <path id="Path_574" data-name="Path 574" d="M664.319,447.884l11.73,6.773a2.148,2.148,0,0,1,0,3.72l-11.73,6.772a2.148,2.148,0,0,1-3.222-1.86V449.744A2.148,2.148,0,0,1,664.319,447.884Z" transform="translate(-491.295 -392.686)" fill="#fff"/>
  <path id="Path_575" data-name="Path 575" d="M585.144,687.759l10.294-2.561a1.682,1.682,0,0,1,2.023,2.1l-2.929,10.2a1.682,1.682,0,0,1-2.827.7l-7.364-7.634A1.682,1.682,0,0,1,585.144,687.759Z" transform="translate(-457.893 -495.428)" fill="#fff"/>
  <g id="Group_555" data-name="Group 555" transform="translate(298.042 142.261)">
    <path id="Path_576" data-name="Path 576" d="M903.771,610.111c19.038-5.4,20.57,19.572-9.975,18.635C876.268,603.781,897.866,592.4,903.771,610.111Z" transform="translate(-887.072 -601.521)" fill="#f59904"/>
  </g>
  <g id="Bluehost_icon_-_logo" data-name="Bluehost icon - logo" transform="translate(283.695 240.727)" style="mix-blend-mode: luminosity;isolation: isolate">
    <path id="Icon" d="M31.772-.923V8H22.9V-.923Zm-11.45,0V8H11.446V-.923Zm-11.45,0V8H0V-.923Zm22.9-11.539v8.922H22.9v-8.922Zm-11.45,0v8.922H11.446v-8.922Zm-11.45,0v8.922H0v-8.922ZM31.772-24v8.921H22.9V-24Zm-11.45,0v8.921H11.446V-24ZM8.872-24v8.921H0V-24Z" transform="translate(0 24)" fill="#fff"/>
  </g>
</svg>
