<svg xmlns="http://www.w3.org/2000/svg" width="1111.636" height="437.83" viewBox="0 0 1111.636 437.83">
  <defs>
    <style>
      .cls-1 {
        fill: #fff;
      }

      .cls-2 {
        fill: #53c1df;
      }

      .cls-3 {
        fill: #50bad7;
      }

      .cls-4 {
        fill: #212121;
      }

      .cls-5 {
        fill: #e6e7e7;
      }

      .cls-6 {
        fill: #003d64;
      }

      .cls-7 {
        fill: #37474f;
      }

      .cls-8 {
        fill: #f59904;
      }

      .cls-9 {
        fill: #e4e5e5;
      }

      .cls-10 {
        fill: #dedfdf;
      }

      .cls-11 {
        fill: #eee;
      }

      .cls-12 {
        fill: #a8dbe9;
      }

      .cls-13 {
        fill: #b2ebf2;
      }

      .cls-14 {
        fill: #80deea;
      }

      .cls-15 {
        fill: #4fb9d5;
      }

      .cls-16 {
        fill: #455a64;
      }

      .cls-17 {
        fill: #fbc02d;
      }

      .cls-18 {
        mix-blend-mode: luminosity;
        isolation: isolate;
      }

      .cls-19 {
        fill: #ffd782;
      }

      .cls-20 {
        fill: #ff9811;
      }

      .cls-21 {
        fill: #414042;
      }
    </style>
  </defs>
  <g id="Group_556" data-name="Group 556" transform="translate(125.206 -12.531)">
    <g id="Group_514" data-name="Group 514" transform="translate(-125.206 12.531)">
      <path id="Path_471" data-name="Path 471" class="cls-1" d="M1342.022,614.507s-7.226,28.583,29.726,73.194,41.588,43.574,41.588,43.574L305.629,766.341l-3.928.009c19.469-6.844-4.829-22.009,10.292-36.292,57.861-22.884,41.813-38.974,57.555-69.872,19.013-37.29,96-59.2,116.8-96.083,9.844-17.475-.435-34.2,3.642-51.917,3.69-16.038,15.354-31.361,33.38-42.594,14.609-9.1,33.48-16.06,42.218-27.94,8.3-11.28,5.6-24.579,9.519-36.826,4.914-15.37,21.359-28.774,42.571-36.016,20.219-6.9,54.223-9.55,75.928-4.943,27.218,5.777,52.006,22.416,72.63,34.877,18.058,10.911,35.955,13.779,60.517,10.279,52.641-7.5,91.475-37.594,140.7-50.686a207.087,207.087,0,0,1,32.233-6.016c25.591-2.6,53.721,1.06,72.335,12.808,16.884,10.663,23.871,26.286,37.807,38.629,28.719,25.449,88.648,32.194,112.5,59.577,23.339,26.782,9.288,61.964,31.125,88.982C1271.934,575.176,1316.559,553.788,1342.022,614.507Z" transform="translate(-301.7 -351.133)"/>
      <path id="Path_472" data-name="Path 472" class="cls-1" d="M1209.482,427.99c3.644.641,7.768.774,10.637-1.563,2.587-2.107,3.449-5.68,3.635-9.011.949-17.007-31.192-64.232-48.014-39.486C1160.542,400.286,1190.427,424.64,1209.482,427.99Z" transform="translate(-256.617 -370.902)"/>
    </g>
    <rect id="Rectangle_249" data-name="Rectangle 249" class="cls-2" width="188.591" height="204.978" transform="translate(278.234 156.073)"/>
    <rect id="Rectangle_250" data-name="Rectangle 250" class="cls-3" width="24.322" height="42.022" transform="translate(360.369 156.073)"/>
    <g id="Group_522" data-name="Group 522" transform="translate(252.658 266.225)">
      <rect id="Rectangle_251" data-name="Rectangle 251" class="cls-4" width="43.066" height="27.251" transform="translate(65.731 129.595) rotate(180)"/>
      <path id="Path_477" data-name="Path 477" class="cls-5" d="M1006.057,922.691H757.212a4.324,4.324,0,0,1-3.979-6.02l12.457-29.233H1003.8Z" transform="translate(-690.945 -779.817)"/>
      <path id="Path_478" data-name="Path 478" class="cls-6" d="M1021.723,892.737v20.034a3.946,3.946,0,0,1-3.946,3.946H975.533a27.042,27.042,0,1,0-53.479,0H788.206a27.042,27.042,0,1,0-53.479,0h-4.578a3.946,3.946,0,0,1-3.946-3.946V892.68H677.5V868.644H993.112l4.388,3.094,11.095,17.053h9.183A3.946,3.946,0,0,1,1021.723,892.737Z" transform="translate(-666.982 -773.842)"/>
      <path id="Path_479" data-name="Path 479" class="cls-7" d="M698.195,868.644H687.53v44.127a3.946,3.946,0,0,0,3.946,3.946h2.773a3.946,3.946,0,0,0,3.946-3.946Z" transform="translate(-670.169 -773.842)"/>
      <path id="Path_480" data-name="Path 480" class="cls-7" d="M678.763,868.644h-8.818a1.848,1.848,0,0,0-1.847,1.848v23.274a3.451,3.451,0,0,0,3.451,3.451h3.763a3.451,3.451,0,0,0,3.451-3.451Z" transform="translate(-663.992 -773.842)"/>
      <path id="Path_481" data-name="Path 481" class="cls-8" d="M664.965,875.345h0a2.887,2.887,0,0,0-2.887,2.887v9.7a2.887,2.887,0,0,0,2.887,2.887h0a2.887,2.887,0,0,0,2.887-2.887v-9.7A2.887,2.887,0,0,0,664.965,875.345Z" transform="translate(-662.078 -775.972)"/>
      <path id="Path_482" data-name="Path 482" class="cls-1" d="M976.4,909.311A26.846,26.846,0,0,0,971.338,921H837.317a26.863,26.863,0,0,0-5.06-11.687Z" transform="translate(-716.179 -786.77)"/>
      <path id="Path_483" data-name="Path 483" class="cls-9" d="M978.268,892.947l-.181-11.23H677.5v11.229Z" transform="translate(-666.982 -777.998)"/>
      <path id="Path_484" data-name="Path 484" class="cls-10" d="M1091.039,844.606h32.519a3.1,3.1,0,0,0,3.1-3.1V802.9a3.1,3.1,0,0,0-.4-1.52l-3.174-5.644-35.957-63.869h0a3.993,3.993,0,0,0-3.468-2.039l-47.541-.173a3.1,3.1,0,0,0-3.1,3.1v91.695h43.236a3.1,3.1,0,0,1,2.715,1.6L1088.324,843A3.1,3.1,0,0,0,1091.039,844.606Z" transform="translate(-780.003 -729.657)"/>
      <path id="Path_485" data-name="Path 485" class="cls-6" d="M1083.41,736.358H1049.9a3.1,3.1,0,0,0-3.1,3.1v47.9a3.691,3.691,0,0,0,3.694,3.691l35.108-.029a3.08,3.08,0,0,1,.789.1l23.841,6.253a3.1,3.1,0,0,0,3.575-4.356c-6.337-12.989-21.188-43.262-27.685-55.056A3.1,3.1,0,0,0,1083.41,736.358Z" transform="translate(-784.385 -731.787)"/>
      <path id="Path_486" data-name="Path 486" class="cls-11" d="M1158.479,851.717V872.03a1.586,1.586,0,0,0,.465,1.12l4.669,4.669a1.586,1.586,0,0,0,1.12.465h2.679a1.582,1.582,0,0,0,1.582-1.582V862.3c0-7.117-3.912-11.269-8.624-12.137A1.591,1.591,0,0,0,1158.479,851.717Z" transform="translate(-819.888 -767.958)"/>
      <path id="Path_487" data-name="Path 487" class="cls-8" d="M1158.477,851.713v11.121h10.516v-.54a16.44,16.44,0,0,0-.191-2.595,11.2,11.2,0,0,0-5.127-8.292,9.9,9.9,0,0,0-3.325-1.253A1.587,1.587,0,0,0,1158.477,851.713Z" transform="translate(-819.887 -767.955)"/>
      <circle id="Ellipse_42" data-name="Ellipse 42" class="cls-7" cx="23.035" cy="23.035" r="23.035" transform="translate(251.714 151.284) rotate(-67.5)"/>
      <path id="Path_2034" data-name="Path 2034" class="cls-1" d="M5.836,1.022a6.589,6.589,0,0,0-3-1.013C1.685.128-.889,4.037.312,4.249a24.644,24.644,0,0,0,4.846-.4Z" transform="translate(85.996 123.421) rotate(162)"/>
      <path id="Path_488" data-name="Path 488" class="cls-7" d="M791.207,942.582a5.316,5.316,0,0,1,2.332-.264c1.125.063.826-.366,1.787-.333a4.454,4.454,0,0,0,1.759-.319c9.785-2.384,15.815-8.4,15.815-19.227a23.035,23.035,0,0,0-46.07,0c0,9.946,6.332,16.244,15.677,19.149.733.229,1.133.169,2.215.4a22.021,22.021,0,0,0,2.328,0c.9,0,.644.5,1.938.333S790.223,942.854,791.207,942.582Z" transform="translate(-695.379 -780.015)"/>
      <path id="Path_489" data-name="Path 489" class="cls-11" d="M1067.65,941.864a16.275,16.275,0,1,0-16.275-16.275A16.293,16.293,0,0,0,1067.65,941.864Z" transform="translate(-785.839 -786.771)"/>
      <path id="Path_490" data-name="Path 490" class="cls-1" d="M1070.541,938.552a10.071,10.071,0,1,0-10.07-10.071A10.082,10.082,0,0,0,1070.541,938.552Z" transform="translate(-788.731 -789.663)"/>
      <path id="Path_491" data-name="Path 491" class="cls-11" d="M793.015,941.864a16.275,16.275,0,1,0-16.275-16.275A16.294,16.294,0,0,0,793.015,941.864Z" transform="translate(-698.53 -783.166)"/>
      <g id="Group_518" data-name="Group 518" transform="translate(151.006 125.132)">
        <g id="Group_516" data-name="Group 516" transform="translate(61.397)">
          <path id="Path_492" data-name="Path 492" class="cls-8" d="M973.477,916.684c0,1.973,2.915,3.573,6.51,3.573s6.51-1.6,6.51-3.573-2.914-3.573-6.51-3.573S973.477,914.711,973.477,916.684Z" transform="translate(-973.477 -913.111)"/>
        </g>
        <g id="Group_517" data-name="Group 517">
          <path id="Path_493" data-name="Path 493" class="cls-8" d="M883.464,916.684c0,1.973,2.915,3.573,6.51,3.573s6.51-1.6,6.51-3.573-2.915-3.573-6.51-3.573S883.464,914.711,883.464,916.684Z" transform="translate(-883.464 -913.111)"/>
        </g>
      </g>
      <g id="Group_519" data-name="Group 519" transform="translate(84.525 132.171)">
        <path id="Path_494" data-name="Path 494" class="cls-1" d="M791.334,937.1a10.071,10.071,0,1,0-4.155-13.623A10.081,10.081,0,0,0,791.334,937.1Z" transform="translate(-785.998 -918.143)"/>
      </g>
      <path id="Path_495" data-name="Path 495" class="cls-6" d="M1113.187,736.358h0a2.377,2.377,0,0,0-2.11,3.477c7.493,14.333,25.254,45.581,31.13,55.883a4.748,4.748,0,0,0,5.61,2.157h0Z" transform="translate(-804.731 -731.787)"/>
      <path id="Path_496" data-name="Path 496" class="cls-1" d="M1167.307,877.313c0,2.634.754,4.769,1.683,4.769s1.683-2.135,1.683-4.769-.753-4.769-1.683-4.769S1167.307,874.68,1167.307,877.313Z" transform="translate(-822.694 -775.082)"/>
      <path id="Path_497" data-name="Path 497" class="cls-1" d="M1160.134,875.555c0,1.663.753,3.011,1.682,3.011s1.683-1.348,1.683-3.011-.754-3.011-1.683-3.011S1160.134,873.892,1160.134,875.555Z" transform="translate(-820.414 -775.082)"/>
      <path id="Path_498" data-name="Path 498" class="cls-8" d="M1162.6,858.616c0,2.039.924,3.691,2.063,3.691s2.063-1.653,2.063-3.691-.924-3.692-2.063-3.692S1162.6,856.576,1162.6,858.616Z" transform="translate(-821.199 -769.48)"/>
      <path id="Path_499" data-name="Path 499" class="cls-5" d="M1109.809,767.936c-1.17-2.136-3.644-3.217-6.046-3.759a2.124,2.124,0,0,0-2.574,2.083V789.2a2.129,2.129,0,0,0,2.13,2.129h6.557a2.129,2.129,0,0,0,2.127-2.062C1112.159,784.428,1112.271,772.432,1109.809,767.936Z" transform="translate(-801.675 -740.615)"/>
      <g id="Group_520" data-name="Group 520" transform="translate(302.557 46.596)">
        <path id="Path_500" data-name="Path 500" class="cls-5" d="M1107.324,808.006l23.294.943-1.934-3.457H1109.85a.942.942,0,0,1-.942-.942V797.97h-3.258l.773,9.173A.942.942,0,0,0,1107.324,808.006Z" transform="translate(-1105.65 -797.97)"/>
      </g>
      <g id="Group_521" data-name="Group 521" transform="translate(327.602 125.132)">
        <path id="Path_501" data-name="Path 501" class="cls-8" d="M1142.368,916.684c0,1.973,2.914,3.573,6.51,3.573s6.509-1.6,6.509-3.573-2.914-3.573-6.509-3.573S1142.368,914.711,1142.368,916.684Z" transform="translate(-1142.368 -913.111)"/>
      </g>
      <path id="Path_502" data-name="Path 502" class="cls-7" d="M1047.047,838.935h0a2.59,2.59,0,0,1-2.59-2.59v-8.836a2.591,2.591,0,0,1,2.59-2.591h0a2.591,2.591,0,0,1,2.59,2.591v8.836A2.59,2.59,0,0,1,1047.047,838.935Z" transform="translate(-783.639 -759.942)"/>
    </g>
    <g id="Group_523" data-name="Group 523" transform="translate(215.652 98.172)">
      <path id="Path_503" data-name="Path 503" class="cls-12" d="M691.143,589.379s14.661-27.663,3.867-61.9-28.81-18.8-16.423,8.829A147.16,147.16,0,0,1,691.143,589.379Z" transform="translate(-628.99 -491.085)"/>
      <path id="Path_504" data-name="Path 504" class="cls-12" d="M670.227,595.265s5.221-35.71-19.91-53.477-54.386-22.336-35.873-2.279,24.235,28.635,16.227,29.372-16.767,12.792,7.276,12.5C662.011,581.09,670.227,595.265,670.227,595.265Z" transform="translate(-608.074 -496.971)"/>
      <path id="Path_505" data-name="Path 505" class="cls-6" d="M669.978,581.572s8.65-49.684-32.257-86.323c-36.387-32.591-41.957,9.039-3.342,33.749C663.837,547.847,669.978,581.572,669.978,581.572Z" transform="translate(-607.825 -483.278)"/>
      <path id="Path_506" data-name="Path 506" class="cls-13" d="M710.027,613.195l-8.041,43.851h-46.4l-8.041-43.851Z" transform="translate(-620.453 -524.58)"/>
      <path id="Path_507" data-name="Path 507" class="cls-14" d="M724.136,613.195l-8.041,43.851H699.969l-8.041-43.851Z" transform="translate(-634.562 -524.58)"/>
    </g>
    <rect id="Rectangle_252" data-name="Rectangle 252" class="cls-12" width="162.541" height="130.253" transform="translate(227.683 230.797)"/>
    <rect id="Rectangle_253" data-name="Rectangle 253" class="cls-3" width="20.962" height="36.769" transform="translate(298.473 324.281)"/>
    <rect id="Rectangle_254" data-name="Rectangle 254" class="cls-3" width="20.962" height="42.294" transform="translate(298.473 230.797)"/>
    <rect id="Rectangle_255" data-name="Rectangle 255" class="cls-15" width="159.502" height="89.94" transform="translate(328.078 271.11)"/>
    <g id="Group_526" data-name="Group 526" transform="translate(258.392 276.882)">
      <rect id="Rectangle_257" data-name="Rectangle 257" class="cls-16" width="3.458" height="65.7" transform="translate(14.187 18.651)"/>
      <rect id="Rectangle_258" data-name="Rectangle 258" class="cls-16" width="1.836" height="18.233" transform="translate(25.032 82.514) rotate(90)"/>
      <path id="Path_516" data-name="Path 516" class="cls-6" d="M777.161,471.59H745.331l1.047-3.67.567-1.979,6.125-21.431h16.353l6.125,21.431.567,1.979Z" transform="translate(-745.331 -444.509)"/>
      <path id="Path_517" data-name="Path 517" class="cls-12" d="M776.6,477.908H746.866l.567-1.979h28.6Z" transform="translate(-745.819 -454.498)"/>
    </g>
    <g id="Group_527" data-name="Group 527" transform="translate(326.522 117.452)">
      <path id="Path_518" data-name="Path 518" class="cls-16" d="M808.088,551.944S803.6,562.517,804.323,563s7.929-9.371,7.929-9.371Z" transform="translate(-798.156 -524.387)"/>
      <path id="Path_519" data-name="Path 519" class="cls-16" d="M912.334,551.944S916.819,562.517,916.1,563s-7.929-9.371-7.929-9.371Z" transform="translate(-831.194 -524.387)"/>
      <path id="Path_520" data-name="Path 520" class="cls-14" d="M883.844,543.265H801.5s-1.88-28.685,0-30.436,80.529-1.676,82.339,0S883.844,543.265,883.844,543.265Z" transform="translate(-797.019 -511.543)"/>
      <path id="Rectangle_259" data-name="Rectangle 259" class="cls-13" d="M1.47,0H7.5a1.47,1.47,0,0,1,1.47,1.47V19.864a0,0,0,0,1,0,0H0a0,0,0,0,1,0,0V1.47A1.47,1.47,0,0,1,1.47,0Z" transform="translate(0 11.858)"/>
      <path id="Rectangle_260" data-name="Rectangle 260" class="cls-13" d="M1.47,0H7.5a1.47,1.47,0,0,1,1.47,1.47V19.864a0,0,0,0,1,0,0H0a0,0,0,0,1,0,0V1.47A1.47,1.47,0,0,1,1.47,0Z" transform="translate(82.34 11.858)"/>
      <rect id="Rectangle_261" data-name="Rectangle 261" class="cls-13" width="82.34" height="12.495" transform="translate(4.485 19.227)"/>
    </g>
    <g id="Group_528" data-name="Group 528" transform="translate(450.985 321.405)">
      <path id="Path_521" data-name="Path 521" class="cls-1" d="M924.062,711.414a39.185,39.185,0,0,0,6.153,7.316c4.464,3.906,2.441,6.747,2.218,7.416s-2.344,1.339-2.344,1.9,4.129.67,4.687-.223,1.242-7.416.684-8.755-2.456-3.794-1.9-7.589C933.926,709.007,924.062,711.414,924.062,711.414Z" transform="translate(-908.836 -688.558)"/>
      <path id="Path_522" data-name="Path 522" class="cls-1" d="M909.307,712s-6.026,5.134-6.026,6.139,3.906,5.357,4.576,5.8,2.456-.782,2.567-1.34-2.344-1.451-2.679-2.009a5.946,5.946,0,0,1-.867-1.827c-.153-.713,5.331-4.088,5.331-4.088Z" transform="translate(-902.23 -689.079)"/>
      <path id="Path_523" data-name="Path 523" class="cls-1" d="M904.33,701.065c.249.772,2.791,6.806,4.8,8.258,1.322.954,10.258.263,16.58-.64.994-.141,1.922-.287,2.745-.434a12.28,12.28,0,0,0,3.551-.934,2.473,2.473,0,0,0,.685-1.351c.467-2,.014-5.369-1.353-6.91-1.785-2.01-11.495.669-13.951.111-.031-.008-.062-.014-.1-.024a12.065,12.065,0,0,1-3.035-1.533c-.177-.115-.357-.233-.534-.35-2.127-1.43-4.147-3.114-4.147-3.114l-5.47-1.449S903.875,699.639,904.33,701.065Z" transform="translate(-902.473 -682.941)"/>
      <path id="Path_524" data-name="Path 524" class="cls-8" d="M940.433,699.918s2.45-8.558-2.01-9.966c-4.112-1.3-9.709,5.725-5.914,8.738s5.8.447,5.8.447-3.237-2.009-2.344-3.348,3.236,2.567,3.236,2.567Z" transform="translate(-911.121 -682.019)"/>
      <path id="Path_525" data-name="Path 525" class="cls-1" d="M912.952,710.692s4.24,12.946,4.24,14.621-2.113,1.745-2.187,2.41c-.123,1.1,3.423,1.405,3.981.735s-.232-15.116-.232-15.116Z" transform="translate(-905.304 -688.663)"/>
      <path id="Path_526" data-name="Path 526" class="cls-1" d="M943.747,727.9c-.559.892-3.97.6-3.97.044s2.122-1.228,2.345-1.9,1.115-3.125-3.35-7.031a17.6,17.6,0,0,1-3.618-4.658c-.3-.54-.55-1.042-.752-1.479-.437-.939-.653-1.563-.653-1.563s8.44-1.956,8.384.323a1.093,1.093,0,0,1-.012.122c-.51,3.463,1.524,6.114,2.308,7.567.075.141.139.267.188.385C945.176,721.046,944.305,727,943.747,727.9Z" transform="translate(-911.916 -688.612)"/>
      <path id="Path_527" data-name="Path 527" class="cls-8" d="M913.814,704.516a20.482,20.482,0,0,0-.268,4.032c.2,1.337,1.342,2.7,2.671,2.461,1.433-.254,2.015-2.059,3.3-2.734a3.985,3.985,0,0,1,3.227.115,11.769,11.769,0,0,0,3.15,1.03,9.3,9.3,0,0,0,1.665-.089,5.41,5.41,0,0,1,1.737.019,3.609,3.609,0,0,1,1.758,1.025,13.283,13.283,0,0,1,1.845,2.642c.9,1.519,2.3,3.136,4.054,2.925a2.477,2.477,0,0,0,.632-.163c-.784-1.454-2.818-4.1-2.308-7.568a.942.942,0,0,0,.012-.122c.467-2,.014-5.369-1.353-6.91-1.785-2.01-11.495.669-13.951.111-.031-.008-.062-.014-.1-.024a12.064,12.064,0,0,1-3.035-1.533c-.177-.115-.357-.233-.534-.35a11.5,11.5,0,0,1-2.259.479l-1.84,1.191C913.454,701.608,913.878,703.168,913.814,704.516Z" transform="translate(-905.073 -685.068)"/>
      <path id="Path_528" data-name="Path 528" class="cls-8" d="M903.832,684.584s3.476-6.438,4.635-6.18,1.416,6.051,1.416,6.051Z" transform="translate(-902.405 -678.396)"/>
      <path id="Path_529" data-name="Path 529" class="cls-17" d="M906.774,683.233l3.13.235s0-2.817-.626-3.208S906.774,683.233,906.774,683.233Z" transform="translate(-903.34 -678.978)"/>
      <path id="Path_530" data-name="Path 530" class="cls-8" d="M915.535,690.333s6.051-2.06,6.695-.643-4.893,5.407-4.893,5.407Z" transform="translate(-906.125 -681.828)"/>
      <path id="Path_531" data-name="Path 531" class="cls-1" d="M914.408,692.689a7.742,7.742,0,0,1-1.81,2.089c-1.374,1.059-3.437,1.662-6.47.225-4.893-2.317-4.848-7.066-3.862-8.625a6.079,6.079,0,0,1,1.906-1.941,5.075,5.075,0,0,1,5.045-.247C913.209,686.25,915.2,691.4,914.408,692.689Z" transform="translate(-901.74 -680.061)"/>
      <path id="Path_532" data-name="Path 532" class="cls-17" d="M919.28,690.627l.548,2.661s3.13-2.113,2.974-2.817S919.28,690.627,919.28,690.627Z" transform="translate(-907.316 -682.147)"/>
      <path id="Path_533" data-name="Path 533" class="cls-7" d="M910.978,694.07a1.362,1.362,0,1,1-.38-1.63A1.2,1.2,0,0,1,910.978,694.07Z" transform="translate(-903.965 -682.748)"/>
      <path id="Path_534" data-name="Path 534" class="cls-7" d="M916.087,693.006a.682.682,0,1,1-.812-.2A.6.6,0,0,1,916.087,693.006Z" transform="translate(-905.906 -682.954)"/>
      <path id="Path_535" data-name="Path 535" class="cls-7" d="M911.064,687.748a.681.681,0,1,1-.767.334A.6.6,0,0,1,911.064,687.748Z" transform="translate(-904.429 -681.353)"/>
      <path id="Path_536" data-name="Path 536" class="cls-8" d="M915.543,692.689a7.746,7.746,0,0,1-1.81,2.089,1.882,1.882,0,0,1-1.151-1.84,4.4,4.4,0,0,1,.838-1.644,1.7,1.7,0,0,0,.216-1.751c-.462-.718-1.683-.641-2.087-1.395-.308-.58.059-1.3-.106-1.941a1.587,1.587,0,0,0-1.639-1.033,15.764,15.764,0,0,1-2.718.392,2.216,2.216,0,0,1-1.78-1.129,5.075,5.075,0,0,1,5.045-.247C914.343,686.25,916.337,691.4,915.543,692.689Z" transform="translate(-902.874 -680.061)"/>
    </g>
    <g id="Group_529" data-name="Group 529" transform="matrix(-0.087, -0.996, 0.996, -0.087, 281.898, 451.823)">
      <path id="Path_546" data-name="Path 546" class="cls-8" d="M30.155.065c-7.457-1-10.919,9.827-14.678,11.217C11.133,12.889,12.02,26.707,8.46,25.246,4.315,23.546,4.093,34.6,3.237,33.6c-.373-.435-.8,2.377-1.492,2.388C.939,36.007-.043,38.129,0,38.782c.117,1.712,1.592-.191,2.875.926,2.036,1.771,2.554-.457,5.166.22s.552-3.32,2.673-1.651c3.024,2.38,4.7-2.96,4.5-7.207,4.638,1.491,4.906-10.722,9.49-10.213,2.154.239,4.372.862,6.441.218a4.212,4.212,0,0,0,3.018-2.583c.486-1.78.134-2.889,1.681-4.4,2.486-2.432,5.395-5.509,3.983-9.411C38.589,1.248,33.232.478,30.155.065Z" transform="matrix(0.454, 0.891, -0.891, 0.454, 76.773, 1.625)"/>
      <path id="Path_547" data-name="Path 547" class="cls-7" d="M6.206,26.253s1.879-4.269,2.608-6.2c1.346-3.569,3.438-18.936,3.438-18.936L8.751,0C6.24,10.57,2.783,19.554,0,23.866Z" transform="translate(9.306 13.072) rotate(-30)"/>
      <path id="Path_548" data-name="Path 548" class="cls-7" d="M7.511,10.154s1.75-2.068,1.591-3.5S-3.124-3.558.775,1.616C4.1,6.034,4.01,9.041,4.01,9.041Z" transform="translate(8.08 6.444) rotate(-45)"/>
      <path id="Path_551" data-name="Path 551" class="cls-1" d="M8.585.055C7.4.242,6.308,1.639,5.565,1.986A1.514,1.514,0,0,0,4.13.875,1.658,1.658,0,0,0,2.856,2.9C3.5,6.362,3.178,7.237.521,8.355c-2,.841,2.3,4.276,3.749,3.968.739-.157.512-1.987,1.262-2.1s1.784,1.314,2.9,1.394S14.772,4.4,15,2.984C15.225,1.58,11.143-.35,8.585.055Z" transform="matrix(0.454, 0.891, -0.891, 0.454, 80.678, 22.724)"/>
      <path id="Path_552" data-name="Path 552" class="cls-16" d="M35.381,14.635a9.918,9.918,0,0,0-5.817-2.012c-3.638-.121-19.522,6.726-21.077,4.613A23.453,23.453,0,0,1,4.4,1.313L.328,0c-1.734,4.31,3.9,23.977,5.234,24.315,2.208.56,31.163.519,31.163.519Z" transform="translate(8.563 16.455) rotate(-9)"/>
      <path id="Path_553" data-name="Path 553" class="cls-16" d="M11.687,2.788S9.85-.36,8.63.034C2.267,2.087-1.978,11.066.939,8.838S9.584,5.284,9.584,5.284Z" transform="translate(4.595 8.818) rotate(30)"/>
      <path id="Path_556" data-name="Path 556" class="cls-13" d="M27.288,3.394c.431,1.636-1.829,12.013-2.466,13.126s-4.524,0-5.569,1.035a23.307,23.307,0,0,1-5.409,3.894A15.556,15.556,0,0,1,5.33,23.442c-4.773-.477-6.762-10.5-4.216-10.422s7.558.8,9.388-.4S20.446-.9,23.787.053A4.644,4.644,0,0,1,27.288,3.394Z" transform="translate(51.589 13.491) rotate(30)"/>
      <path id="Path_557" data-name="Path 557" class="cls-13" d="M3.926,0,0,4.748s11.438,5.524,13.9,5.524S30.273,7.007,30.273,7.007c.377-.937.181-1.741-.577-2.9,0,0-10.779,1.433-12.21.877S3.926,0,3.926,0Z" transform="translate(69.328 27.72) rotate(101)"/>
      <path id="Path_549" data-name="Path 549" class="cls-1" d="M.075.455A8.186,8.186,0,0,1,3.417.084C4.531.4,5.38,4.7,4.16,4.7A19.62,19.62,0,0,1,0,3.641Z" transform="translate(55.947 51.842) rotate(104)"/>
      <path id="Path_550" data-name="Path 550" class="cls-14" d="M4.961.066s9.871,8.9,11.143,9.7,14.139.985,14.139.985a4.6,4.6,0,0,1-.076,3.186s-15.5.6-17.776-.034S1.227,6.657,1.227,6.657-.912,3.667.458,2.236A4.613,4.613,0,0,1,2.352.491,3.925,3.925,0,0,1,4.961.066Z" transform="translate(74.74 26.022) rotate(107)"/>
    </g>
    <g id="Group_555" data-name="Group 555" transform="translate(406.124 178.825)">
      <path id="Path_576" data-name="Path 576" class="cls-8" d="M907.143,611.845c22.882-6.485,24.723,23.525-11.989,22.4C874.087,604.237,900.046,590.554,907.143,611.845Z" transform="translate(-887.071 -601.521)"/>
    </g>
    <g id="Bluehost_icon_-_logo" data-name="Bluehost icon - logo" class="cls-18" transform="translate(388.88 297.173)">
      <path id="Icon" class="cls-1" d="M38.187,3.737V14.462H27.519V3.737Zm-13.762,0V14.462H13.758V3.737Zm-13.762,0V14.462H0V3.737ZM38.187-10.132V.592H27.519V-10.132Zm-13.762,0V.592H13.758V-10.132Zm-13.762,0V.592H0V-10.132ZM38.187-24v10.723H27.519V-24ZM24.425-24v10.723H13.758V-24ZM10.663-24v10.723H0V-24Z" transform="translate(0 24)"/>
    </g>
    <g id="Group_1804" data-name="Group 1804" transform="translate(148.447 323.705)">
      <g id="road-signs" transform="translate(514.425 69.712)">
        <path id="Path_2052" data-name="Path 2052" class="cls-8" d="M274.987,118.379H256l4.5-28.774A1.9,1.9,0,0,1,262.372,88h6.243a1.9,1.9,0,0,1,1.876,1.605Zm0,0" transform="translate(-249.355 -88)"/>
        <path id="Path_2053" data-name="Path 2053" class="cls-6" d="M201.9,344h28.48a1.9,1.9,0,0,1,1.9,1.9v1.9H200v-1.9A1.9,1.9,0,0,1,201.9,344Zm0,0" transform="translate(-200 -313.621)"/>
        <path id="Path_2054" data-name="Path 2054" class="cls-19" d="M268.359,168.366,283.81,164.5l-1.428-9.137-12.479,3.12Zm0,0" transform="translate(-260.247 -147.373)"/>
        <path id="Path_2055" data-name="Path 2055" class="cls-19" d="M288.944,275.793a.949.949,0,0,1-.3-1.851l5.7-1.9a.951.951,0,0,1,.6,1.8l-5.7,1.9A.955.955,0,0,1,288.944,275.793Zm0,0" transform="translate(-277.552 -250.161)"/>
        <path id="Path_2056" data-name="Path 2056" class="cls-19" d="M320.944,122.844a.949.949,0,0,1-.3-1.85l2.848-.949a.951.951,0,1,1,.6,1.8l-2.848.949A.953.953,0,0,1,320.944,122.844Zm0,0" transform="translate(-305.754 -116.199)"/>
      </g>
      <g id="road-signs-2" data-name="road-signs" transform="translate(469.954 0)">
        <path id="Path_2052-2" data-name="Path 2052" class="cls-8" d="M274.987,118.379H256l4.5-28.774A1.9,1.9,0,0,1,262.372,88h6.243a1.9,1.9,0,0,1,1.876,1.605Zm0,0" transform="translate(-249.355 -88)"/>
        <path id="Path_2053-2" data-name="Path 2053" class="cls-6" d="M201.9,344h28.48a1.9,1.9,0,0,1,1.9,1.9v1.9H200v-1.9A1.9,1.9,0,0,1,201.9,344Zm0,0" transform="translate(-200 -313.621)"/>
        <path id="Path_2054-2" data-name="Path 2054" class="cls-19" d="M268.359,168.366,283.81,164.5l-1.428-9.137-12.479,3.12Zm0,0" transform="translate(-260.247 -147.373)"/>
        <path id="Path_2055-2" data-name="Path 2055" class="cls-19" d="M288.944,275.793a.949.949,0,0,1-.3-1.851l5.7-1.9a.951.951,0,0,1,.6,1.8l-5.7,1.9A.955.955,0,0,1,288.944,275.793Zm0,0" transform="translate(-277.552 -250.161)"/>
        <path id="Path_2056-2" data-name="Path 2056" class="cls-19" d="M320.944,122.844a.949.949,0,0,1-.3-1.85l2.848-.949a.951.951,0,1,1,.6,1.8l-2.848.949A.953.953,0,0,1,320.944,122.844Zm0,0" transform="translate(-305.754 -116.199)"/>
      </g>
      <g id="road-signs-3" data-name="road-signs" transform="translate(0 0)">
        <path id="Path_2052-3" data-name="Path 2052" class="cls-8" d="M274.987,118.379H256l4.5-28.774A1.9,1.9,0,0,1,262.372,88h6.243a1.9,1.9,0,0,1,1.876,1.605Zm0,0" transform="translate(-249.355 -88)"/>
        <path id="Path_2053-3" data-name="Path 2053" class="cls-6" d="M201.9,344h28.48a1.9,1.9,0,0,1,1.9,1.9v1.9H200v-1.9A1.9,1.9,0,0,1,201.9,344Zm0,0" transform="translate(-200 -313.621)"/>
        <path id="Path_2054-3" data-name="Path 2054" class="cls-19" d="M268.359,168.366,283.81,164.5l-1.428-9.137-12.479,3.12Zm0,0" transform="translate(-260.247 -147.373)"/>
        <path id="Path_2055-3" data-name="Path 2055" class="cls-19" d="M288.944,275.793a.949.949,0,0,1-.3-1.851l5.7-1.9a.951.951,0,0,1,.6,1.8l-5.7,1.9A.955.955,0,0,1,288.944,275.793Zm0,0" transform="translate(-277.552 -250.161)"/>
        <path id="Path_2056-3" data-name="Path 2056" class="cls-19" d="M320.944,122.844a.949.949,0,0,1-.3-1.85l2.848-.949a.951.951,0,1,1,.6,1.8l-2.848.949A.953.953,0,0,1,320.944,122.844Zm0,0" transform="translate(-305.754 -116.199)"/>
      </g>
      <g id="road-signs-4" data-name="road-signs" transform="translate(30.048 69.712)">
        <path id="Path_2052-4" data-name="Path 2052" class="cls-8" d="M274.987,118.379H256l4.5-28.774A1.9,1.9,0,0,1,262.372,88h6.243a1.9,1.9,0,0,1,1.876,1.605Zm0,0" transform="translate(-249.355 -88)"/>
        <path id="Path_2053-4" data-name="Path 2053" class="cls-6" d="M201.9,344h28.48a1.9,1.9,0,0,1,1.9,1.9v1.9H200v-1.9A1.9,1.9,0,0,1,201.9,344Zm0,0" transform="translate(-200 -313.621)"/>
        <path id="Path_2054-4" data-name="Path 2054" class="cls-19" d="M268.359,168.366,283.81,164.5l-1.428-9.137-12.479,3.12Zm0,0" transform="translate(-260.247 -147.373)"/>
        <path id="Path_2055-4" data-name="Path 2055" class="cls-19" d="M288.944,275.793a.949.949,0,0,1-.3-1.851l5.7-1.9a.951.951,0,0,1,.6,1.8l-5.7,1.9A.955.955,0,0,1,288.944,275.793Zm0,0" transform="translate(-277.552 -250.161)"/>
        <path id="Path_2056-4" data-name="Path 2056" class="cls-19" d="M320.944,122.844a.949.949,0,0,1-.3-1.85l2.848-.949a.951.951,0,1,1,.6,1.8l-2.848.949A.953.953,0,0,1,320.944,122.844Zm0,0" transform="translate(-305.754 -116.199)"/>
      </g>
    </g>
    <g id="jack" transform="translate(382.908 409.065)">
      <path id="Path_2057" data-name="Path 2057" class="cls-7" d="M48,100.329,52.329,96l.928.928-4.329,4.329Zm0,0" transform="translate(-46.145 -92.29)"/>
      <path id="Path_2058" data-name="Path 2058" class="cls-7" d="M232,96.924l.928-.928,4.329,4.329-.928.928Zm0,0" transform="translate(-223.037 -92.286)"/>
      <path id="Path_2059" data-name="Path 2059" class="cls-7" d="M224,252.642,228.638,248l.928.928-4.638,4.638Zm0,0" transform="translate(-215.343 -238.419)"/>
      <path id="Path_2060" data-name="Path 2060" class="cls-7" d="M48,248.928l.928-.928,4.329,4.329-.928.928Zm0,0" transform="translate(-46.145 -238.415)"/>
      <path id="Path_2061" data-name="Path 2061" class="cls-8" d="M123.4,360a3.4,3.4,0,0,0-3.4,3.4h6.8A3.4,3.4,0,0,0,123.4,360Z" transform="translate(-115.362 -346.086)"/>
      <path id="Path_2063" data-name="Path 2063" class="cls-8" d="M123.4,43.4a3.4,3.4,0,0,0,3.4-3.4H120A3.4,3.4,0,0,0,123.4,43.4Zm0-2.474Z" transform="translate(-115.362 -38.454)"/>
      <path id="Path_2065" data-name="Path 2065" class="cls-7" d="M8,449.237H23.46V448H8Zm0,0" transform="translate(-7.691 -430.685)"/>
      <path id="Path_2066" data-name="Path 2066" class="cls-7" d="M8,8,9.237,9.237H22.223L23.46,8ZM8,8" transform="translate(-7.691 -7.691)"/>
      <path id="Path_2069" data-name="Path 2069" class="cls-8" d="M338.473,209.236a1.235,1.235,0,0,0-2.362-.507,1.211,1.211,0,0,0,0,1.014,1.235,1.235,0,0,0,2.362-.507Z" transform="translate(-323.013 -199.96)"/>
      <path id="Path_2070" data-name="Path 2070" class="cls-20" d="M40.618,232.309a.309.309,0,1,1-.309-.309A.309.309,0,0,1,40.618,232.309Zm0,0" transform="translate(-38.454 -223.033)"/>
      <path id="Path_2072" data-name="Path 2072" class="cls-8" d="M16.928,209.237a.309.309,0,0,1,.309-.309V208a1.237,1.237,0,1,0,0,2.474v-.928A.309.309,0,0,1,16.928,209.237Zm0,0" transform="translate(-15.382 -199.961)"/>
      <path id="Path_2079" data-name="Path 2079" class="cls-8" d="M16.928,209.237a.309.309,0,0,1,.309-.309V208a1.237,1.237,0,1,0,0,2.474v-.928A.309.309,0,0,1,16.928,209.237Zm0,0" transform="translate(18.855 218.513) rotate(-180)"/>
      <g id="Group_1805" data-name="Group 1805">
        <path id="Path_2074" data-name="Path 2074" class="cls-7" d="M15.769,17.006H11.734a3.7,3.7,0,0,0-1.167-2.4l3.8-3.8a1.537,1.537,0,0,0,0-3.063L10.723,4.1a3.7,3.7,0,0,0,1.011-2.246h2.8a.309.309,0,0,0,.219-.091L15.987.528A.309.309,0,0,0,15.769,0H.309A.309.309,0,0,0,.091.528L1.327,1.765a.309.309,0,0,0,.219.091h2.8A3.7,3.7,0,0,0,5.355,4.1L1.713,7.744a1.537,1.537,0,0,0,0,3.063l3.8,3.8a3.7,3.7,0,0,0-1.167,2.4H.309A.309.309,0,0,0,0,17.315v1.237a.309.309,0,0,0,.309.309h15.46a.309.309,0,0,0,.309-.309V17.315A.309.309,0,0,0,15.769,17.006ZM9.437,13.88l3.611-3.611a1.549,1.549,0,0,0,.556.423L10.08,14.219A3.7,3.7,0,0,0,9.437,13.88Zm-2.125-.2L3.335,9.7a1.385,1.385,0,0,0,0-.848l3.73-3.73a3.6,3.6,0,0,0,1.948,0l3.731,3.73a1.385,1.385,0,0,0,0,.848L8.766,13.677a3.691,3.691,0,0,0-1.453,0ZM6.429,4.883l-3.4,3.4a1.549,1.549,0,0,0-.556-.423L4.492,5.84,5.819,4.512A3.712,3.712,0,0,0,6.429,4.883Zm3.83-.371L13.606,7.86a1.551,1.551,0,0,0-.556.423l-3.4-3.4a3.712,3.712,0,0,0,.609-.371ZM15.15,9.276a.928.928,0,1,1-.928-.928A.928.928,0,0,1,15.15,9.276ZM1.056.618H15.022l-.618.618H1.674Zm10.06,1.237a3.092,3.092,0,0,1-6.153,0ZM.928,9.276a.928.928,0,1,1,.928.928A.928.928,0,0,1,.928,9.276Zm1.544,1.416a1.551,1.551,0,0,0,.556-.423L6.641,13.88A3.7,3.7,0,0,0,6,14.219Zm5.567,3.531a3.1,3.1,0,0,1,3.076,2.783H4.962A3.1,3.1,0,0,1,8.039,14.223Zm7.421,4.019H.618v-.618H15.46Zm0,0"/>
        <path id="Path_2078" data-name="Path 2078" class="cls-21" d="M353.237,224.618" transform="translate(-338.396 -215.343)"/>
      </g>
    </g>
  </g>
</svg>
